<svg xmlns="http://www.w3.org/2000/svg" xmlns:xlink="http://www.w3.org/1999/xlink" width="482" zoomAndPan="magnify" viewBox="0 0 361.5 156.749997" height="209" preserveAspectRatio="xMidYMid meet" version="1.0"><defs><filter x="0%" y="0%" width="100%" height="100%" id="88a120ef06"><feColorMatrix values="0 0 0 0 1 0 0 0 0 1 0 0 0 0 1 0 0 0 1 0" color-interpolation-filters="sRGB"/></filter><g/><clipPath id="0e0d10684e"><path d="M 0.0390625 0 L 360.960938 0 L 360.960938 156.5 L 0.0390625 156.5 Z M 0.0390625 0 " clip-rule="nonzero"/></clipPath><clipPath id="bfd835a920"><path d="M 0.0390625 0 L 360.960938 0 L 360.960938 156.5 L 0.0390625 156.5 Z M 0.0390625 0 " clip-rule="nonzero"/></clipPath><clipPath id="a3ca8d67d1"><path d="M 0.0390625 0 L 360.960938 0 L 360.960938 156.5 L 0.0390625 156.5 Z M 0.0390625 0 " clip-rule="nonzero"/></clipPath><clipPath id="5869741852"><path d="M 0.0390625 0 L 360.960938 0 L 360.960938 156.5 L 0.0390625 156.5 Z M 0.0390625 0 " clip-rule="nonzero"/></clipPath><linearGradient x1="-18.18022" gradientTransform="matrix(0.897086, 0, 0, 0.897189, 16.347449, 45.940225)" y1="35.5" x2="384.149282" gradientUnits="userSpaceOnUse" y2="35.5" id="a7ac0e726d"><stop stop-opacity="1" stop-color="rgb(0%, 0%, 0%)" offset="0"/><stop stop-opacity="1" stop-color="rgb(0%, 0%, 0%)" offset="0.125"/><stop stop-opacity="1" stop-color="rgb(0%, 0%, 0%)" offset="0.1875"/><stop stop-opacity="1" stop-color="rgb(0.177002%, 0.177002%, 0.177002%)" offset="0.21875"/><stop stop-opacity="1" stop-color="rgb(0.679016%, 0.679016%, 0.679016%)" offset="0.222656"/><stop stop-opacity="1" stop-color="rgb(1.004028%, 1.004028%, 1.004028%)" offset="0.226562"/><stop stop-opacity="1" stop-color="rgb(1.329041%, 1.329041%, 1.329041%)" offset="0.230469"/><stop stop-opacity="1" stop-color="rgb(1.654053%, 1.654053%, 1.654053%)" offset="0.234375"/><stop stop-opacity="1" stop-color="rgb(1.979065%, 1.979065%, 1.979065%)" offset="0.238281"/><stop stop-opacity="1" stop-color="rgb(2.304077%, 2.304077%, 2.304077%)" offset="0.242187"/><stop stop-opacity="1" stop-color="rgb(2.629089%, 2.629089%, 2.629089%)" offset="0.246094"/><stop stop-opacity="1" stop-color="rgb(2.954102%, 2.954102%, 2.954102%)" offset="0.25"/><stop stop-opacity="1" stop-color="rgb(3.279114%, 3.279114%, 3.279114%)" offset="0.253906"/><stop stop-opacity="1" stop-color="rgb(3.604126%, 3.604126%, 3.604126%)" offset="0.257812"/><stop stop-opacity="1" stop-color="rgb(3.929138%, 3.929138%, 3.929138%)" offset="0.261719"/><stop stop-opacity="1" stop-color="rgb(4.25415%, 4.25415%, 4.25415%)" offset="0.265625"/><stop stop-opacity="1" stop-color="rgb(4.579163%, 4.579163%, 4.579163%)" offset="0.269531"/><stop stop-opacity="1" stop-color="rgb(4.904175%, 4.904175%, 4.904175%)" offset="0.273438"/><stop stop-opacity="1" stop-color="rgb(5.229187%, 5.229187%, 5.229187%)" offset="0.277344"/><stop stop-opacity="1" stop-color="rgb(5.554199%, 5.554199%, 5.554199%)" offset="0.28125"/><stop stop-opacity="1" stop-color="rgb(5.879211%, 5.879211%, 5.879211%)" offset="0.285156"/><stop stop-opacity="1" stop-color="rgb(6.204224%, 6.204224%, 6.204224%)" offset="0.289062"/><stop stop-opacity="1" stop-color="rgb(6.52771%, 6.52771%, 6.52771%)" offset="0.292969"/><stop stop-opacity="1" stop-color="rgb(6.852722%, 6.852722%, 6.852722%)" offset="0.296875"/><stop stop-opacity="1" stop-color="rgb(7.177734%, 7.177734%, 7.177734%)" offset="0.300781"/><stop stop-opacity="1" stop-color="rgb(7.502747%, 7.502747%, 7.502747%)" offset="0.304688"/><stop stop-opacity="1" stop-color="rgb(7.827759%, 7.827759%, 7.827759%)" offset="0.308594"/><stop stop-opacity="1" stop-color="rgb(8.152771%, 8.152771%, 8.152771%)" offset="0.3125"/><stop stop-opacity="1" stop-color="rgb(8.477783%, 8.477783%, 8.477783%)" offset="0.316406"/><stop stop-opacity="1" stop-color="rgb(8.802795%, 8.802795%, 8.802795%)" offset="0.320312"/><stop stop-opacity="1" stop-color="rgb(9.127808%, 9.127808%, 9.127808%)" offset="0.324219"/><stop stop-opacity="1" stop-color="rgb(9.45282%, 9.45282%, 9.45282%)" offset="0.328125"/><stop stop-opacity="1" stop-color="rgb(9.777832%, 9.777832%, 9.777832%)" offset="0.332031"/><stop stop-opacity="1" stop-color="rgb(10.102844%, 10.102844%, 10.102844%)" offset="0.335938"/><stop stop-opacity="1" stop-color="rgb(10.427856%, 10.427856%, 10.427856%)" offset="0.339844"/><stop stop-opacity="1" stop-color="rgb(10.752869%, 10.752869%, 10.752869%)" offset="0.34375"/><stop stop-opacity="1" stop-color="rgb(11.077881%, 11.077881%, 11.077881%)" offset="0.347656"/><stop stop-opacity="1" stop-color="rgb(11.402893%, 11.402893%, 11.402893%)" offset="0.351562"/><stop stop-opacity="1" stop-color="rgb(11.727905%, 11.727905%, 11.727905%)" offset="0.355469"/><stop stop-opacity="1" stop-color="rgb(12.052917%, 12.052917%, 12.052917%)" offset="0.359375"/><stop stop-opacity="1" stop-color="rgb(12.376404%, 12.376404%, 12.376404%)" offset="0.363281"/><stop stop-opacity="1" stop-color="rgb(12.701416%, 12.701416%, 12.701416%)" offset="0.367188"/><stop stop-opacity="1" stop-color="rgb(13.026428%, 13.026428%, 13.026428%)" offset="0.371094"/><stop stop-opacity="1" stop-color="rgb(13.35144%, 13.35144%, 13.35144%)" offset="0.375"/><stop stop-opacity="1" stop-color="rgb(13.676453%, 13.676453%, 13.676453%)" offset="0.378906"/><stop stop-opacity="1" stop-color="rgb(14.001465%, 14.001465%, 14.001465%)" offset="0.382812"/><stop stop-opacity="1" stop-color="rgb(14.326477%, 14.326477%, 14.326477%)" offset="0.386719"/><stop stop-opacity="1" stop-color="rgb(14.651489%, 14.651489%, 14.651489%)" offset="0.390625"/><stop stop-opacity="1" stop-color="rgb(14.976501%, 14.976501%, 14.976501%)" offset="0.394531"/><stop stop-opacity="1" stop-color="rgb(15.301514%, 15.301514%, 15.301514%)" offset="0.398438"/><stop stop-opacity="1" stop-color="rgb(15.626526%, 15.626526%, 15.626526%)" offset="0.402344"/><stop stop-opacity="1" stop-color="rgb(15.951538%, 15.951538%, 15.951538%)" offset="0.40625"/><stop stop-opacity="1" stop-color="rgb(16.27655%, 16.27655%, 16.27655%)" offset="0.410156"/><stop stop-opacity="1" stop-color="rgb(16.601562%, 16.601562%, 16.601562%)" offset="0.414062"/><stop stop-opacity="1" stop-color="rgb(16.926575%, 16.926575%, 16.926575%)" offset="0.417969"/><stop stop-opacity="1" stop-color="rgb(17.251587%, 17.251587%, 17.251587%)" offset="0.421875"/><stop stop-opacity="1" stop-color="rgb(17.575073%, 17.575073%, 17.575073%)" offset="0.425781"/><stop stop-opacity="1" stop-color="rgb(17.900085%, 17.900085%, 17.900085%)" offset="0.429687"/><stop stop-opacity="1" stop-color="rgb(18.225098%, 18.225098%, 18.225098%)" offset="0.433594"/><stop stop-opacity="1" stop-color="rgb(18.55011%, 18.55011%, 18.55011%)" offset="0.4375"/><stop stop-opacity="1" stop-color="rgb(18.875122%, 18.875122%, 18.875122%)" offset="0.441406"/><stop stop-opacity="1" stop-color="rgb(19.200134%, 19.200134%, 19.200134%)" offset="0.445312"/><stop stop-opacity="1" stop-color="rgb(19.525146%, 19.525146%, 19.525146%)" offset="0.449219"/><stop stop-opacity="1" stop-color="rgb(19.850159%, 19.850159%, 19.850159%)" offset="0.453125"/><stop stop-opacity="1" stop-color="rgb(20.175171%, 20.175171%, 20.175171%)" offset="0.457031"/><stop stop-opacity="1" stop-color="rgb(20.500183%, 20.500183%, 20.500183%)" offset="0.460938"/><stop stop-opacity="1" stop-color="rgb(20.825195%, 20.825195%, 20.825195%)" offset="0.464844"/><stop stop-opacity="1" stop-color="rgb(21.150208%, 21.150208%, 21.150208%)" offset="0.46875"/><stop stop-opacity="1" stop-color="rgb(21.47522%, 21.47522%, 21.47522%)" offset="0.472656"/><stop stop-opacity="1" stop-color="rgb(21.800232%, 21.800232%, 21.800232%)" offset="0.476562"/><stop stop-opacity="1" stop-color="rgb(22.125244%, 22.125244%, 22.125244%)" offset="0.480469"/><stop stop-opacity="1" stop-color="rgb(22.450256%, 22.450256%, 22.450256%)" offset="0.484375"/><stop stop-opacity="1" stop-color="rgb(22.775269%, 22.775269%, 22.775269%)" offset="0.488281"/><stop stop-opacity="1" stop-color="rgb(23.100281%, 23.100281%, 23.100281%)" offset="0.492188"/><stop stop-opacity="1" stop-color="rgb(23.423767%, 23.423767%, 23.423767%)" offset="0.496094"/><stop stop-opacity="1" stop-color="rgb(23.748779%, 23.748779%, 23.748779%)" offset="0.5"/><stop stop-opacity="1" stop-color="rgb(24.073792%, 24.073792%, 24.073792%)" offset="0.503906"/><stop stop-opacity="1" stop-color="rgb(24.398804%, 24.398804%, 24.398804%)" offset="0.507812"/><stop stop-opacity="1" stop-color="rgb(24.723816%, 24.723816%, 24.723816%)" offset="0.511719"/><stop stop-opacity="1" stop-color="rgb(25.048828%, 25.048828%, 25.048828%)" offset="0.515625"/><stop stop-opacity="1" stop-color="rgb(25.37384%, 25.37384%, 25.37384%)" offset="0.519531"/><stop stop-opacity="1" stop-color="rgb(25.698853%, 25.698853%, 25.698853%)" offset="0.523438"/><stop stop-opacity="1" stop-color="rgb(26.023865%, 26.023865%, 26.023865%)" offset="0.527344"/><stop stop-opacity="1" stop-color="rgb(26.348877%, 26.348877%, 26.348877%)" offset="0.53125"/><stop stop-opacity="1" stop-color="rgb(26.673889%, 26.673889%, 26.673889%)" offset="0.535156"/><stop stop-opacity="1" stop-color="rgb(26.998901%, 26.998901%, 26.998901%)" offset="0.539062"/><stop stop-opacity="1" stop-color="rgb(27.323914%, 27.323914%, 27.323914%)" offset="0.542969"/><stop stop-opacity="1" stop-color="rgb(27.648926%, 27.648926%, 27.648926%)" offset="0.546875"/><stop stop-opacity="1" stop-color="rgb(27.973938%, 27.973938%, 27.973938%)" offset="0.550781"/><stop stop-opacity="1" stop-color="rgb(28.29895%, 28.29895%, 28.29895%)" offset="0.554688"/><stop stop-opacity="1" stop-color="rgb(28.622437%, 28.622437%, 28.622437%)" offset="0.558594"/><stop stop-opacity="1" stop-color="rgb(28.947449%, 28.947449%, 28.947449%)" offset="0.5625"/><stop stop-opacity="1" stop-color="rgb(29.272461%, 29.272461%, 29.272461%)" offset="0.566406"/><stop stop-opacity="1" stop-color="rgb(29.597473%, 29.597473%, 29.597473%)" offset="0.570312"/><stop stop-opacity="1" stop-color="rgb(29.922485%, 29.922485%, 29.922485%)" offset="0.574219"/><stop stop-opacity="1" stop-color="rgb(30.247498%, 30.247498%, 30.247498%)" offset="0.578125"/><stop stop-opacity="1" stop-color="rgb(30.57251%, 30.57251%, 30.57251%)" offset="0.582031"/><stop stop-opacity="1" stop-color="rgb(30.897522%, 30.897522%, 30.897522%)" offset="0.585938"/><stop stop-opacity="1" stop-color="rgb(31.222534%, 31.222534%, 31.222534%)" offset="0.589844"/><stop stop-opacity="1" stop-color="rgb(31.547546%, 31.547546%, 31.547546%)" offset="0.59375"/><stop stop-opacity="1" stop-color="rgb(31.872559%, 31.872559%, 31.872559%)" offset="0.597656"/><stop stop-opacity="1" stop-color="rgb(32.197571%, 32.197571%, 32.197571%)" offset="0.601562"/><stop stop-opacity="1" stop-color="rgb(32.522583%, 32.522583%, 32.522583%)" offset="0.605469"/><stop stop-opacity="1" stop-color="rgb(32.847595%, 32.847595%, 32.847595%)" offset="0.609375"/><stop stop-opacity="1" stop-color="rgb(33.172607%, 33.172607%, 33.172607%)" offset="0.613281"/><stop stop-opacity="1" stop-color="rgb(33.49762%, 33.49762%, 33.49762%)" offset="0.617188"/><stop stop-opacity="1" stop-color="rgb(33.822632%, 33.822632%, 33.822632%)" offset="0.621094"/><stop stop-opacity="1" stop-color="rgb(34.147644%, 34.147644%, 34.147644%)" offset="0.625"/><stop stop-opacity="1" stop-color="rgb(34.47113%, 34.47113%, 34.47113%)" offset="0.628906"/><stop stop-opacity="1" stop-color="rgb(34.796143%, 34.796143%, 34.796143%)" offset="0.632812"/><stop stop-opacity="1" stop-color="rgb(35.121155%, 35.121155%, 35.121155%)" offset="0.636719"/><stop stop-opacity="1" stop-color="rgb(35.446167%, 35.446167%, 35.446167%)" offset="0.640625"/><stop stop-opacity="1" stop-color="rgb(35.771179%, 35.771179%, 35.771179%)" offset="0.644531"/><stop stop-opacity="1" stop-color="rgb(36.096191%, 36.096191%, 36.096191%)" offset="0.648438"/><stop stop-opacity="1" stop-color="rgb(36.421204%, 36.421204%, 36.421204%)" offset="0.652344"/><stop stop-opacity="1" stop-color="rgb(36.746216%, 36.746216%, 36.746216%)" offset="0.65625"/><stop stop-opacity="1" stop-color="rgb(37.071228%, 37.071228%, 37.071228%)" offset="0.660156"/><stop stop-opacity="1" stop-color="rgb(37.39624%, 37.39624%, 37.39624%)" offset="0.664062"/><stop stop-opacity="1" stop-color="rgb(37.721252%, 37.721252%, 37.721252%)" offset="0.667969"/><stop stop-opacity="1" stop-color="rgb(38.046265%, 38.046265%, 38.046265%)" offset="0.671875"/><stop stop-opacity="1" stop-color="rgb(38.371277%, 38.371277%, 38.371277%)" offset="0.675781"/><stop stop-opacity="1" stop-color="rgb(38.696289%, 38.696289%, 38.696289%)" offset="0.679688"/><stop stop-opacity="1" stop-color="rgb(39.021301%, 39.021301%, 39.021301%)" offset="0.683594"/><stop stop-opacity="1" stop-color="rgb(39.346313%, 39.346313%, 39.346313%)" offset="0.6875"/><stop stop-opacity="1" stop-color="rgb(39.671326%, 39.671326%, 39.671326%)" offset="0.691406"/><stop stop-opacity="1" stop-color="rgb(39.996338%, 39.996338%, 39.996338%)" offset="0.695313"/><stop stop-opacity="1" stop-color="rgb(40.319824%, 40.319824%, 40.319824%)" offset="0.699219"/><stop stop-opacity="1" stop-color="rgb(40.644836%, 40.644836%, 40.644836%)" offset="0.703125"/><stop stop-opacity="1" stop-color="rgb(40.969849%, 40.969849%, 40.969849%)" offset="0.707031"/><stop stop-opacity="1" stop-color="rgb(41.294861%, 41.294861%, 41.294861%)" offset="0.710938"/><stop stop-opacity="1" stop-color="rgb(41.619873%, 41.619873%, 41.619873%)" offset="0.714844"/><stop stop-opacity="1" stop-color="rgb(41.944885%, 41.944885%, 41.944885%)" offset="0.71875"/><stop stop-opacity="1" stop-color="rgb(42.269897%, 42.269897%, 42.269897%)" offset="0.722656"/><stop stop-opacity="1" stop-color="rgb(42.59491%, 42.59491%, 42.59491%)" offset="0.726562"/><stop stop-opacity="1" stop-color="rgb(42.919922%, 42.919922%, 42.919922%)" offset="0.730469"/><stop stop-opacity="1" stop-color="rgb(43.244934%, 43.244934%, 43.244934%)" offset="0.734375"/><stop stop-opacity="1" stop-color="rgb(43.569946%, 43.569946%, 43.569946%)" offset="0.738281"/><stop stop-opacity="1" stop-color="rgb(43.894958%, 43.894958%, 43.894958%)" offset="0.742188"/><stop stop-opacity="1" stop-color="rgb(44.219971%, 44.219971%, 44.219971%)" offset="0.746094"/><stop stop-opacity="1" stop-color="rgb(44.544983%, 44.544983%, 44.544983%)" offset="0.75"/><stop stop-opacity="1" stop-color="rgb(44.821167%, 44.821167%, 44.821167%)" offset="0.753906"/><stop stop-opacity="1" stop-color="rgb(45.098877%, 45.098877%, 45.098877%)" offset="0.757812"/><stop stop-opacity="1" stop-color="rgb(45.098877%, 45.098877%, 45.098877%)" offset="0.765625"/><stop stop-opacity="1" stop-color="rgb(45.098877%, 45.098877%, 45.098877%)" offset="0.78125"/><stop stop-opacity="1" stop-color="rgb(45.098877%, 45.098877%, 45.098877%)" offset="0.8125"/><stop stop-opacity="1" stop-color="rgb(45.098877%, 45.098877%, 45.098877%)" offset="0.875"/><stop stop-opacity="1" stop-color="rgb(45.098877%, 45.098877%, 45.098877%)" offset="1"/></linearGradient><clipPath id="31b6a77305"><rect x="0" width="361" y="0" height="157"/></clipPath><clipPath id="c8f00ce183"><path d="M 0.0390625 0 L 360.960938 0 L 360.960938 156.5 L 0.0390625 156.5 Z M 0.0390625 0 " clip-rule="nonzero"/></clipPath><clipPath id="5306dd2120"><rect x="0" width="361" y="0" height="157"/></clipPath><clipPath id="c4444a9419"><rect x="0" width="361" y="0" height="157"/></clipPath><mask id="474aa1cc22"><g filter="url(#88a120ef06)"><g transform="matrix(1, 0, 0, 1, 0, 0.000000000000011987)"><g clip-path="url(#c4444a9419)"><g clip-path="url(#c8f00ce183)"><g transform="matrix(1, 0, 0, 1, 0, 0.000000000000011987)"><g clip-path="url(#5306dd2120)"><g fill="#000000" fill-opacity="1"><g transform="translate(77.540816, 105.172295)"><g><path d="M 46.203125 -2.96875 C 44.804688 -5.007812 43.40625 -7.097656 42 -9.234375 C 40.59375 -11.367188 39.15625 -13.550781 37.6875 -15.78125 C 37.113281 -16.675781 36.539062 -17.585938 35.96875 -18.515625 C 35.394531 -19.441406 34.789062 -20.347656 34.15625 -21.234375 C 33.707031 -22.003906 33.035156 -22.390625 32.140625 -22.390625 C 31.316406 -22.390625 30.617188 -22.003906 30.046875 -21.234375 C 29.472656 -20.347656 28.910156 -19.472656 28.359375 -18.609375 C 27.816406 -17.742188 27.257812 -16.898438 26.6875 -16.078125 C 25.476562 -14.160156 24.300781 -12.289062 23.15625 -10.46875 C 22.007812 -8.65625 20.890625 -6.820312 19.796875 -4.96875 C 18.648438 -3.125 17.007812 -1.832031 14.875 -1.09375 C 12.738281 -0.363281 10.472656 -0.03125 8.078125 -0.09375 C 5.691406 -0.15625 3.507812 -0.378906 1.53125 -0.765625 C 1.019531 -0.890625 0.601562 -1.078125 0.28125 -1.328125 C -0.03125 -1.585938 -0.0625 -2.035156 0.1875 -2.671875 C 2.226562 -7.078125 4.695312 -11.175781 7.59375 -14.96875 C 10.5 -18.769531 13.328125 -22.644531 16.078125 -26.59375 L 16.359375 -27.078125 C 17.890625 -29.304688 19.035156 -31.140625 19.796875 -32.578125 C 20.566406 -34.015625 20.953125 -35.320312 20.953125 -36.5 C 20.953125 -37.675781 20.566406 -38.984375 19.796875 -40.421875 C 19.035156 -41.859375 17.890625 -43.660156 16.359375 -45.828125 L 16.078125 -46.203125 C 13.972656 -49.203125 11.832031 -52.171875 9.65625 -55.109375 C 7.488281 -58.046875 5.484375 -61.109375 3.640625 -64.296875 C 3.378906 -64.742188 2.976562 -65.347656 2.4375 -66.109375 C 1.894531 -66.867188 1.476562 -67.664062 1.1875 -68.5 C 0.90625 -69.332031 0.988281 -70.003906 1.4375 -70.515625 C 1.945312 -71.023438 2.695312 -71.195312 3.6875 -71.03125 C 4.675781 -70.875 5.457031 -70.828125 6.03125 -70.890625 C 6.789062 -70.953125 7.535156 -71 8.265625 -71.03125 C 9.003906 -71.0625 9.722656 -71.078125 10.421875 -71.078125 C 13.171875 -71.078125 15.375 -70.550781 17.03125 -69.5 C 18.6875 -68.445312 20.3125 -66.867188 21.90625 -64.765625 C 23.125 -63.171875 24.273438 -61.5625 25.359375 -59.9375 C 26.441406 -58.3125 27.425781 -56.640625 28.3125 -54.921875 C 28.632812 -54.335938 29.113281 -53.628906 29.75 -52.796875 C 30.382812 -51.972656 31.082031 -51.429688 31.84375 -51.171875 C 32.613281 -50.921875 33.351562 -51.304688 34.0625 -52.328125 C 35.71875 -54.878906 37.375 -57.445312 39.03125 -60.03125 C 40.6875 -62.613281 42.410156 -65.117188 44.203125 -67.546875 C 44.585938 -68.054688 44.984375 -68.535156 45.390625 -68.984375 C 45.804688 -69.429688 46.238281 -69.8125 46.6875 -70.125 C 47.582031 -70.695312 48.632812 -71 49.84375 -71.03125 C 51.050781 -71.0625 52.304688 -71 53.609375 -70.84375 C 54.921875 -70.6875 56.054688 -70.609375 57.015625 -70.609375 C 57.398438 -70.609375 57.972656 -70.65625 58.734375 -70.75 C 59.503906 -70.84375 60.253906 -70.875 60.984375 -70.84375 C 61.722656 -70.8125 62.25 -70.632812 62.5625 -70.3125 C 62.882812 -70 62.789062 -69.394531 62.28125 -68.5 C 59.851562 -64.164062 57.285156 -59.925781 54.578125 -55.78125 C 51.867188 -51.632812 49.015625 -47.550781 46.015625 -43.53125 C 44.296875 -41.164062 43.53125 -38.816406 43.71875 -36.484375 C 43.914062 -34.160156 44.8125 -31.851562 46.40625 -29.5625 C 49.207031 -25.476562 52.054688 -21.394531 54.953125 -17.3125 C 57.859375 -13.226562 60.492188 -9.050781 62.859375 -4.78125 C 63.242188 -4.144531 63.59375 -3.503906 63.90625 -2.859375 C 64.226562 -2.222656 64.320312 -1.679688 64.1875 -1.234375 C 64.0625 -0.796875 63.488281 -0.507812 62.46875 -0.375 C 61.707031 -0.3125 60.941406 -0.328125 60.171875 -0.421875 C 59.410156 -0.523438 58.644531 -0.578125 57.875 -0.578125 C 56.21875 -0.578125 54.71875 -0.59375 53.375 -0.625 C 52.039062 -0.65625 50.769531 -0.703125 49.5625 -0.765625 C 49.113281 -0.828125 48.535156 -1.082031 47.828125 -1.53125 C 47.128906 -1.976562 46.585938 -2.457031 46.203125 -2.96875 Z M 46.203125 -2.96875 "/></g></g></g><g fill="#000000" fill-opacity="1"><g transform="translate(142.015901, 105.172295)"><g><path d="M 29.75 -42.375 C 29.4375 -42.1875 29.070312 -42.046875 28.65625 -41.953125 C 28.238281 -41.859375 27.835938 -41.75 27.453125 -41.625 C 26.753906 -41.550781 26.019531 -41.5 25.25 -41.46875 C 24.488281 -41.4375 23.757812 -41.328125 23.0625 -41.140625 C 21.53125 -40.691406 20.222656 -39.875 19.140625 -38.6875 C 18.054688 -37.507812 17.222656 -36.191406 16.640625 -34.734375 C 15.554688 -31.796875 14.867188 -28.601562 14.578125 -25.15625 C 14.296875 -21.71875 14.203125 -18.242188 14.296875 -14.734375 C 14.398438 -11.222656 14.414062 -7.90625 14.34375 -4.78125 L 14.34375 -3.34375 C 14.34375 -2.132812 13.878906 -1.289062 12.953125 -0.8125 C 12.035156 -0.332031 10.921875 -0.078125 9.609375 -0.046875 C 8.304688 -0.015625 7.03125 -0.0625 5.78125 -0.1875 C 4.539062 -0.3125 3.570312 -0.410156 2.875 -0.484375 C 2.226562 -0.484375 1.75 -0.609375 1.4375 -0.859375 C 0.863281 -1.242188 0.492188 -1.976562 0.328125 -3.0625 C 0.171875 -4.144531 0.09375 -5.351562 0.09375 -6.6875 C 0.09375 -8.03125 0.140625 -9.304688 0.234375 -10.515625 C 0.328125 -11.734375 0.375 -12.628906 0.375 -13.203125 C 0.507812 -15.429688 0.640625 -17.660156 0.765625 -19.890625 C 0.890625 -22.128906 0.953125 -24.363281 0.953125 -26.59375 C 0.953125 -30.9375 0.953125 -35.289062 0.953125 -39.65625 C 0.953125 -44.019531 0.953125 -48.40625 0.953125 -52.8125 C 0.953125 -53.894531 1.207031 -54.578125 1.71875 -54.859375 C 2.226562 -55.148438 2.863281 -55.265625 3.625 -55.203125 C 4.394531 -55.140625 5.164062 -55.140625 5.9375 -55.203125 C 7.269531 -55.390625 8.578125 -55.484375 9.859375 -55.484375 C 12.472656 -55.484375 14.476562 -54.65625 15.875 -53 C 16.382812 -52.425781 17.023438 -52.140625 17.796875 -52.140625 C 18.046875 -52.140625 18.269531 -52.171875 18.46875 -52.234375 C 19.289062 -52.296875 20.273438 -52.582031 21.421875 -53.09375 C 22.578125 -53.601562 23.773438 -54.097656 25.015625 -54.578125 C 26.265625 -55.054688 27.429688 -55.375 28.515625 -55.53125 C 29.597656 -55.695312 30.488281 -55.507812 31.1875 -54.96875 C 31.882812 -54.425781 32.234375 -53.320312 32.234375 -51.65625 C 32.234375 -50.832031 32.21875 -49.988281 32.1875 -49.125 C 32.15625 -48.269531 32.109375 -47.425781 32.046875 -46.59375 C 31.984375 -46.144531 31.921875 -45.664062 31.859375 -45.15625 C 31.796875 -44.644531 31.601562 -44.195312 31.28125 -43.8125 C 30.894531 -43.113281 30.382812 -42.632812 29.75 -42.375 Z M 29.75 -42.375 "/></g></g></g><g fill="#000000" fill-opacity="1"><g transform="translate(174.444174, 105.172295)"><g><path d="M 3.640625 -60.265625 C 2.234375 -61.160156 1.210938 -62.421875 0.578125 -64.046875 C -0.0546875 -65.671875 -0.0859375 -67.441406 0.484375 -69.359375 C 1.566406 -73.117188 4.113281 -75.066406 8.125 -75.203125 L 8.328125 -75.203125 C 10.304688 -75.203125 11.960938 -74.675781 13.296875 -73.625 C 14.640625 -72.570312 15.535156 -71.117188 15.984375 -69.265625 C 16.554688 -66.972656 16.332031 -64.867188 15.3125 -62.953125 C 14.289062 -61.035156 12.566406 -59.789062 10.140625 -59.21875 C 8.929688 -58.96875 7.765625 -58.9375 6.640625 -59.125 C 5.523438 -59.3125 4.523438 -59.691406 3.640625 -60.265625 Z M 2.296875 -50.703125 C 3.191406 -51.273438 4.46875 -51.53125 6.125 -51.46875 C 7.082031 -51.46875 8.132812 -51.5 9.28125 -51.5625 C 10.425781 -51.625 11.492188 -51.507812 12.484375 -51.21875 C 13.472656 -50.9375 14.128906 -50.285156 14.453125 -49.265625 C 15.023438 -47.671875 15.210938 -45.742188 15.015625 -43.484375 C 14.828125 -41.222656 14.734375 -39.257812 14.734375 -37.59375 C 14.796875 -33.707031 14.828125 -29.847656 14.828125 -26.015625 C 14.828125 -22.191406 14.859375 -18.335938 14.921875 -14.453125 C 14.921875 -13.804688 15 -12.734375 15.15625 -11.234375 C 15.320312 -9.742188 15.421875 -8.132812 15.453125 -6.40625 C 15.484375 -4.6875 15.304688 -3.21875 14.921875 -2 C 14.535156 -0.789062 13.769531 -0.15625 12.625 -0.09375 C 11.15625 -0.03125 9.625 0.015625 8.03125 0.046875 C 6.4375 0.078125 4.90625 0 3.4375 -0.1875 C 2.414062 -0.3125 1.710938 -0.867188 1.328125 -1.859375 C 0.953125 -2.847656 0.75 -4.046875 0.71875 -5.453125 C 0.6875 -6.859375 0.734375 -8.195312 0.859375 -9.46875 C 0.984375 -10.75 1.046875 -11.738281 1.046875 -12.4375 C 0.984375 -15.050781 0.9375 -17.679688 0.90625 -20.328125 C 0.875 -22.972656 0.859375 -25.601562 0.859375 -28.21875 C 0.796875 -30.457031 0.765625 -32.691406 0.765625 -34.921875 C 0.765625 -37.148438 0.734375 -39.347656 0.671875 -41.515625 C 0.671875 -43.367188 0.640625 -45.15625 0.578125 -46.875 C 0.515625 -48.601562 1.085938 -49.878906 2.296875 -50.703125 Z M 2.296875 -50.703125 "/></g></g></g><g fill="#000000" fill-opacity="1"><g transform="translate(190.99254, 105.172295)"><g><path d="M 14.25 -1.34375 C 13.800781 -0.769531 13.160156 -0.445312 12.328125 -0.375 C 11.503906 -0.3125 10.648438 -0.21875 9.765625 -0.09375 C 8.929688 -0.03125 7.957031 0.03125 6.84375 0.09375 C 5.726562 0.15625 4.675781 0.046875 3.6875 -0.234375 C 2.695312 -0.523438 1.945312 -1.117188 1.4375 -2.015625 C 0.664062 -3.410156 0.21875 -4.953125 0.09375 -6.640625 C -0.03125 -8.335938 0 -10.0625 0.1875 -11.8125 C 0.382812 -13.570312 0.484375 -15.21875 0.484375 -16.75 C 0.546875 -19.738281 0.59375 -22.71875 0.625 -25.6875 C 0.65625 -28.65625 0.703125 -31.640625 0.765625 -34.640625 C 0.828125 -40.566406 0.84375 -46.507812 0.8125 -52.46875 C 0.78125 -58.4375 0.703125 -64.382812 0.578125 -70.3125 C 0.578125 -71.976562 0.925781 -73.175781 1.625 -73.90625 C 2.320312 -74.632812 3.242188 -75.0625 4.390625 -75.1875 C 5.546875 -75.320312 6.789062 -75.289062 8.125 -75.09375 C 9.46875 -74.90625 10.742188 -74.75 11.953125 -74.625 C 13.296875 -74.5 14.175781 -73.78125 14.59375 -72.46875 C 15.007812 -71.164062 15.195312 -69.765625 15.15625 -68.265625 C 15.125 -66.765625 15.078125 -65.566406 15.015625 -64.671875 C 14.890625 -61.734375 14.8125 -58.765625 14.78125 -55.765625 C 14.75 -52.773438 14.734375 -49.78125 14.734375 -46.78125 C 14.734375 -39.507812 14.734375 -32.238281 14.734375 -24.96875 C 14.734375 -17.695312 14.734375 -10.425781 14.734375 -3.15625 C 14.734375 -2.394531 14.570312 -1.789062 14.25 -1.34375 Z M 14.25 -1.34375 "/></g></g></g><g fill="#000000" fill-opacity="1"><g transform="translate(206.392964, 105.172295)"><g><path d="M 3.640625 -60.265625 C 2.234375 -61.160156 1.210938 -62.421875 0.578125 -64.046875 C -0.0546875 -65.671875 -0.0859375 -67.441406 0.484375 -69.359375 C 1.566406 -73.117188 4.113281 -75.066406 8.125 -75.203125 L 8.328125 -75.203125 C 10.304688 -75.203125 11.960938 -74.675781 13.296875 -73.625 C 14.640625 -72.570312 15.535156 -71.117188 15.984375 -69.265625 C 16.554688 -66.972656 16.332031 -64.867188 15.3125 -62.953125 C 14.289062 -61.035156 12.566406 -59.789062 10.140625 -59.21875 C 8.929688 -58.96875 7.765625 -58.9375 6.640625 -59.125 C 5.523438 -59.3125 4.523438 -59.691406 3.640625 -60.265625 Z M 2.296875 -50.703125 C 3.191406 -51.273438 4.46875 -51.53125 6.125 -51.46875 C 7.082031 -51.46875 8.132812 -51.5 9.28125 -51.5625 C 10.425781 -51.625 11.492188 -51.507812 12.484375 -51.21875 C 13.472656 -50.9375 14.128906 -50.285156 14.453125 -49.265625 C 15.023438 -47.671875 15.210938 -45.742188 15.015625 -43.484375 C 14.828125 -41.222656 14.734375 -39.257812 14.734375 -37.59375 C 14.796875 -33.707031 14.828125 -29.847656 14.828125 -26.015625 C 14.828125 -22.191406 14.859375 -18.335938 14.921875 -14.453125 C 14.921875 -13.804688 15 -12.734375 15.15625 -11.234375 C 15.320312 -9.742188 15.421875 -8.132812 15.453125 -6.40625 C 15.484375 -4.6875 15.304688 -3.21875 14.921875 -2 C 14.535156 -0.789062 13.769531 -0.15625 12.625 -0.09375 C 11.15625 -0.03125 9.625 0.015625 8.03125 0.046875 C 6.4375 0.078125 4.90625 0 3.4375 -0.1875 C 2.414062 -0.3125 1.710938 -0.867188 1.328125 -1.859375 C 0.953125 -2.847656 0.75 -4.046875 0.71875 -5.453125 C 0.6875 -6.859375 0.734375 -8.195312 0.859375 -9.46875 C 0.984375 -10.75 1.046875 -11.738281 1.046875 -12.4375 C 0.984375 -15.050781 0.9375 -17.679688 0.90625 -20.328125 C 0.875 -22.972656 0.859375 -25.601562 0.859375 -28.21875 C 0.796875 -30.457031 0.765625 -32.691406 0.765625 -34.921875 C 0.765625 -37.148438 0.734375 -39.347656 0.671875 -41.515625 C 0.671875 -43.367188 0.640625 -45.15625 0.578125 -46.875 C 0.515625 -48.601562 1.085938 -49.878906 2.296875 -50.703125 Z M 2.296875 -50.703125 "/></g></g></g><g fill="#000000" fill-opacity="1"><g transform="translate(222.94133, 105.172295)"><g><path d="M 48.125 -49.359375 C 49.332031 -48.023438 49.710938 -46.59375 49.265625 -45.0625 C 49.078125 -44.363281 48.742188 -43.707031 48.265625 -43.09375 C 47.785156 -42.488281 47.289062 -41.898438 46.78125 -41.328125 C 46.46875 -41.015625 46.148438 -40.695312 45.828125 -40.375 C 45.503906 -40.050781 45.1875 -39.734375 44.875 -39.421875 C 44.363281 -38.847656 43.675781 -38.65625 42.8125 -38.84375 C 41.945312 -39.03125 41.082031 -39.347656 40.21875 -39.796875 C 39.363281 -40.242188 38.617188 -40.5625 37.984375 -40.75 C 36.578125 -41.257812 35.1875 -41.707031 33.8125 -42.09375 C 32.445312 -42.476562 31.03125 -42.765625 29.5625 -42.953125 C 29.238281 -43.015625 28.929688 -43.046875 28.640625 -43.046875 C 28.359375 -43.046875 28.0625 -43.046875 27.75 -43.046875 C 24.625 -43.046875 21.832031 -42.101562 19.375 -40.21875 C 16.914062 -38.34375 15.238281 -35.84375 14.34375 -32.71875 C 13.394531 -29.34375 13.492188 -26.023438 14.640625 -22.765625 C 15.785156 -19.515625 17.757812 -16.898438 20.5625 -14.921875 C 22.738281 -13.453125 25.546875 -12.71875 28.984375 -12.71875 C 33.390625 -12.71875 36.929688 -13.769531 39.609375 -15.875 C 40.878906 -16.894531 41.945312 -17.546875 42.8125 -17.828125 C 43.675781 -18.117188 44.710938 -17.535156 45.921875 -16.078125 C 46.554688 -15.429688 47.175781 -14.742188 47.78125 -14.015625 C 48.394531 -13.285156 48.988281 -12.535156 49.5625 -11.765625 C 50.320312 -10.742188 50.445312 -9.753906 49.9375 -8.796875 C 49.425781 -7.835938 48.566406 -6.941406 47.359375 -6.109375 C 46.148438 -5.285156 44.890625 -4.570312 43.578125 -3.96875 C 42.273438 -3.363281 41.269531 -2.898438 40.5625 -2.578125 C 36.675781 -0.734375 32.59375 0.1875 28.3125 0.1875 C 24.101562 0.1875 20.085938 -0.71875 16.265625 -2.53125 C 12.441406 -4.351562 9.03125 -6.921875 6.03125 -10.234375 C 3.476562 -13.234375 1.785156 -16.328125 0.953125 -19.515625 C 0.128906 -22.703125 -0.140625 -25.828125 0.140625 -28.890625 C 0.429688 -31.953125 0.957031 -34.726562 1.71875 -37.21875 C 3.375 -42.320312 6.066406 -46.398438 9.796875 -49.453125 C 13.535156 -52.515625 18.179688 -54.398438 23.734375 -55.109375 C 25.578125 -55.296875 27.296875 -55.390625 28.890625 -55.390625 C 29.785156 -55.390625 31.09375 -55.273438 32.8125 -55.046875 C 34.539062 -54.828125 36.390625 -54.476562 38.359375 -54 C 40.335938 -53.53125 42.21875 -52.910156 44 -52.140625 C 45.789062 -51.378906 47.164062 -50.453125 48.125 -49.359375 Z M 48.125 -49.359375 "/></g></g></g></g></g></g></g></g></g></mask><clipPath id="de89172031"><path d="M 0.0390625 0 L 360.960938 0 L 360.960938 156.5 L 0.0390625 156.5 Z M 0.0390625 0 " clip-rule="nonzero"/></clipPath><clipPath id="62f4234b8f"><rect x="0" width="361" y="0" height="157"/></clipPath><clipPath id="47b9ecfd85"><rect x="0" width="361" y="0" height="157"/></clipPath><clipPath id="f650013bc9"><path d="M 292.902344 86.710938 L 311.039062 86.710938 L 311.039062 104.84375 L 292.902344 104.84375 Z M 292.902344 86.710938 " clip-rule="nonzero"/></clipPath><clipPath id="a48d9c784c"><path d="M 301.972656 86.710938 C 296.964844 86.710938 292.902344 90.769531 292.902344 95.777344 C 292.902344 100.785156 296.964844 104.84375 301.972656 104.84375 C 306.980469 104.84375 311.039062 100.785156 311.039062 95.777344 C 311.039062 90.769531 306.980469 86.710938 301.972656 86.710938 Z M 301.972656 86.710938 " clip-rule="nonzero"/></clipPath><clipPath id="7b53184824"><path d="M 0.902344 0.710938 L 19.039062 0.710938 L 19.039062 18.84375 L 0.902344 18.84375 Z M 0.902344 0.710938 " clip-rule="nonzero"/></clipPath><clipPath id="5286906efa"><path d="M 9.972656 0.710938 C 4.964844 0.710938 0.902344 4.769531 0.902344 9.777344 C 0.902344 14.785156 4.964844 18.84375 9.972656 18.84375 C 14.980469 18.84375 19.039062 14.785156 19.039062 9.777344 C 19.039062 4.769531 14.980469 0.710938 9.972656 0.710938 Z M 9.972656 0.710938 " clip-rule="nonzero"/></clipPath><linearGradient x1="0.000016237" gradientTransform="matrix(0.0708361, 0, 0, 0.0708361, 0.904109, 0.710501)" y1="128" x2="255.999997" gradientUnits="userSpaceOnUse" y2="128" id="15ef78d93d"><stop stop-opacity="1" stop-color="rgb(99.998474%, 34.118652%, 34.118652%)" offset="0"/><stop stop-opacity="1" stop-color="rgb(99.822998%, 34.111023%, 34.376526%)" offset="0.00390625"/><stop stop-opacity="1" stop-color="rgb(99.647522%, 34.103394%, 34.634399%)" offset="0.0078125"/><stop stop-opacity="1" stop-color="rgb(99.47052%, 34.095764%, 34.890747%)" offset="0.0117188"/><stop stop-opacity="1" stop-color="rgb(99.295044%, 34.088135%, 35.148621%)" offset="0.015625"/><stop stop-opacity="1" stop-color="rgb(99.118042%, 34.080505%, 35.404968%)" offset="0.0195312"/><stop stop-opacity="1" stop-color="rgb(98.942566%, 34.072876%, 35.662842%)" offset="0.0234375"/><stop stop-opacity="1" stop-color="rgb(98.765564%, 34.065247%, 35.920715%)" offset="0.0273438"/><stop stop-opacity="1" stop-color="rgb(98.590088%, 34.057617%, 36.178589%)" offset="0.03125"/><stop stop-opacity="1" stop-color="rgb(98.413086%, 34.049988%, 36.434937%)" offset="0.0351562"/><stop stop-opacity="1" stop-color="rgb(98.23761%, 34.042358%, 36.69281%)" offset="0.0390625"/><stop stop-opacity="1" stop-color="rgb(98.060608%, 34.034729%, 36.949158%)" offset="0.0429688"/><stop stop-opacity="1" stop-color="rgb(97.885132%, 34.0271%, 37.207031%)" offset="0.046875"/><stop stop-opacity="1" stop-color="rgb(97.70813%, 34.01947%, 37.464905%)" offset="0.0507812"/><stop stop-opacity="1" stop-color="rgb(97.532654%, 34.011841%, 37.722778%)" offset="0.0546875"/><stop stop-opacity="1" stop-color="rgb(97.355652%, 34.004211%, 37.979126%)" offset="0.0585938"/><stop stop-opacity="1" stop-color="rgb(97.180176%, 33.996582%, 38.237%)" offset="0.0625"/><stop stop-opacity="1" stop-color="rgb(97.003174%, 33.988953%, 38.493347%)" offset="0.0664062"/><stop stop-opacity="1" stop-color="rgb(96.827698%, 33.981323%, 38.751221%)" offset="0.0703125"/><stop stop-opacity="1" stop-color="rgb(96.650696%, 33.973694%, 39.007568%)" offset="0.0742188"/><stop stop-opacity="1" stop-color="rgb(96.47522%, 33.966064%, 39.265442%)" offset="0.078125"/><stop stop-opacity="1" stop-color="rgb(96.298218%, 33.958435%, 39.523315%)" offset="0.0820312"/><stop stop-opacity="1" stop-color="rgb(96.122742%, 33.950806%, 39.781189%)" offset="0.0859375"/><stop stop-opacity="1" stop-color="rgb(95.947266%, 33.943176%, 40.037537%)" offset="0.0898438"/><stop stop-opacity="1" stop-color="rgb(95.77179%, 33.935547%, 40.29541%)" offset="0.09375"/><stop stop-opacity="1" stop-color="rgb(95.594788%, 33.927917%, 40.551758%)" offset="0.0976562"/><stop stop-opacity="1" stop-color="rgb(95.419312%, 33.920288%, 40.809631%)" offset="0.101562"/><stop stop-opacity="1" stop-color="rgb(95.24231%, 33.912659%, 41.067505%)" offset="0.105469"/><stop stop-opacity="1" stop-color="rgb(95.066833%, 33.905029%, 41.325378%)" offset="0.109375"/><stop stop-opacity="1" stop-color="rgb(94.889832%, 33.8974%, 41.581726%)" offset="0.113281"/><stop stop-opacity="1" stop-color="rgb(94.714355%, 33.889771%, 41.8396%)" offset="0.117188"/><stop stop-opacity="1" stop-color="rgb(94.537354%, 33.882141%, 42.095947%)" offset="0.121094"/><stop stop-opacity="1" stop-color="rgb(94.361877%, 33.874512%, 42.353821%)" offset="0.125"/><stop stop-opacity="1" stop-color="rgb(94.184875%, 33.866882%, 42.611694%)" offset="0.128906"/><stop stop-opacity="1" stop-color="rgb(94.009399%, 33.859253%, 42.869568%)" offset="0.132812"/><stop stop-opacity="1" stop-color="rgb(93.832397%, 33.851624%, 43.125916%)" offset="0.136719"/><stop stop-opacity="1" stop-color="rgb(93.656921%, 33.843994%, 43.383789%)" offset="0.140625"/><stop stop-opacity="1" stop-color="rgb(93.479919%, 33.836365%, 43.640137%)" offset="0.144531"/><stop stop-opacity="1" stop-color="rgb(93.304443%, 33.828735%, 43.89801%)" offset="0.148438"/><stop stop-opacity="1" stop-color="rgb(93.127441%, 33.821106%, 44.154358%)" offset="0.152344"/><stop stop-opacity="1" stop-color="rgb(92.951965%, 33.813477%, 44.412231%)" offset="0.15625"/><stop stop-opacity="1" stop-color="rgb(92.774963%, 33.805847%, 44.670105%)" offset="0.160156"/><stop stop-opacity="1" stop-color="rgb(92.599487%, 33.798218%, 44.927979%)" offset="0.164062"/><stop stop-opacity="1" stop-color="rgb(92.422485%, 33.790588%, 45.184326%)" offset="0.167969"/><stop stop-opacity="1" stop-color="rgb(92.247009%, 33.782959%, 45.4422%)" offset="0.171875"/><stop stop-opacity="1" stop-color="rgb(92.071533%, 33.77533%, 45.698547%)" offset="0.175781"/><stop stop-opacity="1" stop-color="rgb(91.896057%, 33.7677%, 45.956421%)" offset="0.179688"/><stop stop-opacity="1" stop-color="rgb(91.719055%, 33.760071%, 46.214294%)" offset="0.183594"/><stop stop-opacity="1" stop-color="rgb(91.543579%, 33.752441%, 46.472168%)" offset="0.1875"/><stop stop-opacity="1" stop-color="rgb(91.366577%, 33.744812%, 46.728516%)" offset="0.191406"/><stop stop-opacity="1" stop-color="rgb(91.191101%, 33.737183%, 46.986389%)" offset="0.195312"/><stop stop-opacity="1" stop-color="rgb(91.014099%, 33.728027%, 47.242737%)" offset="0.199219"/><stop stop-opacity="1" stop-color="rgb(90.838623%, 33.720398%, 47.50061%)" offset="0.203125"/><stop stop-opacity="1" stop-color="rgb(90.661621%, 33.712769%, 47.758484%)" offset="0.207031"/><stop stop-opacity="1" stop-color="rgb(90.486145%, 33.705139%, 48.016357%)" offset="0.210938"/><stop stop-opacity="1" stop-color="rgb(90.309143%, 33.69751%, 48.272705%)" offset="0.214844"/><stop stop-opacity="1" stop-color="rgb(90.133667%, 33.68988%, 48.530579%)" offset="0.21875"/><stop stop-opacity="1" stop-color="rgb(89.956665%, 33.682251%, 48.786926%)" offset="0.222656"/><stop stop-opacity="1" stop-color="rgb(89.781189%, 33.674622%, 49.0448%)" offset="0.226562"/><stop stop-opacity="1" stop-color="rgb(89.604187%, 33.666992%, 49.302673%)" offset="0.230469"/><stop stop-opacity="1" stop-color="rgb(89.428711%, 33.659363%, 49.560547%)" offset="0.234375"/><stop stop-opacity="1" stop-color="rgb(89.251709%, 33.651733%, 49.816895%)" offset="0.238281"/><stop stop-opacity="1" stop-color="rgb(89.076233%, 33.644104%, 50.074768%)" offset="0.242188"/><stop stop-opacity="1" stop-color="rgb(88.899231%, 33.636475%, 50.331116%)" offset="0.246094"/><stop stop-opacity="1" stop-color="rgb(88.723755%, 33.628845%, 50.588989%)" offset="0.25"/><stop stop-opacity="1" stop-color="rgb(88.546753%, 33.621216%, 50.845337%)" offset="0.253906"/><stop stop-opacity="1" stop-color="rgb(88.371277%, 33.613586%, 51.10321%)" offset="0.257812"/><stop stop-opacity="1" stop-color="rgb(88.194275%, 33.605957%, 51.361084%)" offset="0.261719"/><stop stop-opacity="1" stop-color="rgb(88.018799%, 33.598328%, 51.618958%)" offset="0.265625"/><stop stop-opacity="1" stop-color="rgb(87.843323%, 33.590698%, 51.875305%)" offset="0.269531"/><stop stop-opacity="1" stop-color="rgb(87.667847%, 33.583069%, 52.133179%)" offset="0.273438"/><stop stop-opacity="1" stop-color="rgb(87.490845%, 33.575439%, 52.389526%)" offset="0.277344"/><stop stop-opacity="1" stop-color="rgb(87.315369%, 33.56781%, 52.6474%)" offset="0.28125"/><stop stop-opacity="1" stop-color="rgb(87.138367%, 33.560181%, 52.905273%)" offset="0.285156"/><stop stop-opacity="1" stop-color="rgb(86.962891%, 33.552551%, 53.163147%)" offset="0.289062"/><stop stop-opacity="1" stop-color="rgb(86.785889%, 33.544922%, 53.419495%)" offset="0.292969"/><stop stop-opacity="1" stop-color="rgb(86.610413%, 33.537292%, 53.677368%)" offset="0.296875"/><stop stop-opacity="1" stop-color="rgb(86.433411%, 33.529663%, 53.933716%)" offset="0.300781"/><stop stop-opacity="1" stop-color="rgb(86.257935%, 33.522034%, 54.191589%)" offset="0.304688"/><stop stop-opacity="1" stop-color="rgb(86.080933%, 33.514404%, 54.449463%)" offset="0.308594"/><stop stop-opacity="1" stop-color="rgb(85.905457%, 33.506775%, 54.707336%)" offset="0.3125"/><stop stop-opacity="1" stop-color="rgb(85.728455%, 33.499146%, 54.963684%)" offset="0.316406"/><stop stop-opacity="1" stop-color="rgb(85.552979%, 33.491516%, 55.221558%)" offset="0.320312"/><stop stop-opacity="1" stop-color="rgb(85.375977%, 33.483887%, 55.477905%)" offset="0.324219"/><stop stop-opacity="1" stop-color="rgb(85.2005%, 33.476257%, 55.735779%)" offset="0.328125"/><stop stop-opacity="1" stop-color="rgb(85.023499%, 33.468628%, 55.993652%)" offset="0.332031"/><stop stop-opacity="1" stop-color="rgb(84.848022%, 33.460999%, 56.251526%)" offset="0.335938"/><stop stop-opacity="1" stop-color="rgb(84.671021%, 33.453369%, 56.507874%)" offset="0.339844"/><stop stop-opacity="1" stop-color="rgb(84.495544%, 33.44574%, 56.765747%)" offset="0.34375"/><stop stop-opacity="1" stop-color="rgb(84.318542%, 33.43811%, 57.022095%)" offset="0.347656"/><stop stop-opacity="1" stop-color="rgb(84.143066%, 33.430481%, 57.279968%)" offset="0.351562"/><stop stop-opacity="1" stop-color="rgb(83.96759%, 33.422852%, 57.536316%)" offset="0.355469"/><stop stop-opacity="1" stop-color="rgb(83.792114%, 33.415222%, 57.794189%)" offset="0.359375"/><stop stop-opacity="1" stop-color="rgb(83.615112%, 33.407593%, 58.052063%)" offset="0.363281"/><stop stop-opacity="1" stop-color="rgb(83.439636%, 33.399963%, 58.309937%)" offset="0.367188"/><stop stop-opacity="1" stop-color="rgb(83.262634%, 33.392334%, 58.566284%)" offset="0.371094"/><stop stop-opacity="1" stop-color="rgb(83.087158%, 33.384705%, 58.824158%)" offset="0.375"/><stop stop-opacity="1" stop-color="rgb(82.910156%, 33.377075%, 59.080505%)" offset="0.378906"/><stop stop-opacity="1" stop-color="rgb(82.73468%, 33.369446%, 59.338379%)" offset="0.382812"/><stop stop-opacity="1" stop-color="rgb(82.557678%, 33.361816%, 59.596252%)" offset="0.386719"/><stop stop-opacity="1" stop-color="rgb(82.382202%, 33.354187%, 59.854126%)" offset="0.390625"/><stop stop-opacity="1" stop-color="rgb(82.2052%, 33.346558%, 60.110474%)" offset="0.394531"/><stop stop-opacity="1" stop-color="rgb(82.029724%, 33.338928%, 60.368347%)" offset="0.398438"/><stop stop-opacity="1" stop-color="rgb(81.852722%, 33.331299%, 60.624695%)" offset="0.402344"/><stop stop-opacity="1" stop-color="rgb(81.677246%, 33.323669%, 60.882568%)" offset="0.40625"/><stop stop-opacity="1" stop-color="rgb(81.500244%, 33.31604%, 61.140442%)" offset="0.410156"/><stop stop-opacity="1" stop-color="rgb(81.324768%, 33.308411%, 61.398315%)" offset="0.414062"/><stop stop-opacity="1" stop-color="rgb(81.147766%, 33.299255%, 61.654663%)" offset="0.417969"/><stop stop-opacity="1" stop-color="rgb(80.97229%, 33.291626%, 61.912537%)" offset="0.421875"/><stop stop-opacity="1" stop-color="rgb(80.795288%, 33.283997%, 62.168884%)" offset="0.425781"/><stop stop-opacity="1" stop-color="rgb(80.619812%, 33.276367%, 62.426758%)" offset="0.429688"/><stop stop-opacity="1" stop-color="rgb(80.44281%, 33.268738%, 62.683105%)" offset="0.433594"/><stop stop-opacity="1" stop-color="rgb(80.267334%, 33.261108%, 62.940979%)" offset="0.4375"/><stop stop-opacity="1" stop-color="rgb(80.091858%, 33.253479%, 63.198853%)" offset="0.441406"/><stop stop-opacity="1" stop-color="rgb(79.916382%, 33.24585%, 63.456726%)" offset="0.445312"/><stop stop-opacity="1" stop-color="rgb(79.73938%, 33.23822%, 63.713074%)" offset="0.449219"/><stop stop-opacity="1" stop-color="rgb(79.563904%, 33.230591%, 63.970947%)" offset="0.453125"/><stop stop-opacity="1" stop-color="rgb(79.386902%, 33.222961%, 64.227295%)" offset="0.457031"/><stop stop-opacity="1" stop-color="rgb(79.211426%, 33.215332%, 64.485168%)" offset="0.460938"/><stop stop-opacity="1" stop-color="rgb(79.034424%, 33.207703%, 64.743042%)" offset="0.464844"/><stop stop-opacity="1" stop-color="rgb(78.858948%, 33.200073%, 65.000916%)" offset="0.46875"/><stop stop-opacity="1" stop-color="rgb(78.681946%, 33.192444%, 65.257263%)" offset="0.472656"/><stop stop-opacity="1" stop-color="rgb(78.50647%, 33.184814%, 65.515137%)" offset="0.476562"/><stop stop-opacity="1" stop-color="rgb(78.329468%, 33.177185%, 65.771484%)" offset="0.480469"/><stop stop-opacity="1" stop-color="rgb(78.153992%, 33.169556%, 66.029358%)" offset="0.484375"/><stop stop-opacity="1" stop-color="rgb(77.97699%, 33.161926%, 66.287231%)" offset="0.488281"/><stop stop-opacity="1" stop-color="rgb(77.801514%, 33.154297%, 66.545105%)" offset="0.492188"/><stop stop-opacity="1" stop-color="rgb(77.624512%, 33.146667%, 66.801453%)" offset="0.496094"/><stop stop-opacity="1" stop-color="rgb(77.449036%, 33.139038%, 67.059326%)" offset="0.5"/><stop stop-opacity="1" stop-color="rgb(77.272034%, 33.131409%, 67.315674%)" offset="0.503906"/><stop stop-opacity="1" stop-color="rgb(77.096558%, 33.123779%, 67.573547%)" offset="0.507812"/><stop stop-opacity="1" stop-color="rgb(76.919556%, 33.11615%, 67.831421%)" offset="0.511719"/><stop stop-opacity="1" stop-color="rgb(76.74408%, 33.108521%, 68.089294%)" offset="0.515625"/><stop stop-opacity="1" stop-color="rgb(76.567078%, 33.100891%, 68.345642%)" offset="0.519531"/><stop stop-opacity="1" stop-color="rgb(76.391602%, 33.093262%, 68.603516%)" offset="0.523438"/><stop stop-opacity="1" stop-color="rgb(76.2146%, 33.085632%, 68.859863%)" offset="0.527344"/><stop stop-opacity="1" stop-color="rgb(76.039124%, 33.078003%, 69.117737%)" offset="0.53125"/><stop stop-opacity="1" stop-color="rgb(75.863647%, 33.070374%, 69.374084%)" offset="0.535156"/><stop stop-opacity="1" stop-color="rgb(75.688171%, 33.062744%, 69.631958%)" offset="0.539062"/><stop stop-opacity="1" stop-color="rgb(75.511169%, 33.055115%, 69.889832%)" offset="0.542969"/><stop stop-opacity="1" stop-color="rgb(75.335693%, 33.047485%, 70.147705%)" offset="0.546875"/><stop stop-opacity="1" stop-color="rgb(75.158691%, 33.039856%, 70.404053%)" offset="0.550781"/><stop stop-opacity="1" stop-color="rgb(74.983215%, 33.032227%, 70.661926%)" offset="0.554688"/><stop stop-opacity="1" stop-color="rgb(74.806213%, 33.024597%, 70.918274%)" offset="0.558594"/><stop stop-opacity="1" stop-color="rgb(74.630737%, 33.016968%, 71.176147%)" offset="0.5625"/><stop stop-opacity="1" stop-color="rgb(74.453735%, 33.009338%, 71.434021%)" offset="0.566406"/><stop stop-opacity="1" stop-color="rgb(74.278259%, 33.001709%, 71.691895%)" offset="0.570312"/><stop stop-opacity="1" stop-color="rgb(74.101257%, 32.99408%, 71.948242%)" offset="0.574219"/><stop stop-opacity="1" stop-color="rgb(73.925781%, 32.98645%, 72.206116%)" offset="0.578125"/><stop stop-opacity="1" stop-color="rgb(73.748779%, 32.978821%, 72.462463%)" offset="0.582031"/><stop stop-opacity="1" stop-color="rgb(73.573303%, 32.971191%, 72.720337%)" offset="0.585938"/><stop stop-opacity="1" stop-color="rgb(73.396301%, 32.963562%, 72.97821%)" offset="0.589844"/><stop stop-opacity="1" stop-color="rgb(73.220825%, 32.955933%, 73.236084%)" offset="0.59375"/><stop stop-opacity="1" stop-color="rgb(73.043823%, 32.948303%, 73.492432%)" offset="0.597656"/><stop stop-opacity="1" stop-color="rgb(72.868347%, 32.940674%, 73.750305%)" offset="0.601562"/><stop stop-opacity="1" stop-color="rgb(72.691345%, 32.933044%, 74.006653%)" offset="0.605469"/><stop stop-opacity="1" stop-color="rgb(72.515869%, 32.925415%, 74.264526%)" offset="0.609375"/><stop stop-opacity="1" stop-color="rgb(72.338867%, 32.917786%, 74.5224%)" offset="0.613281"/><stop stop-opacity="1" stop-color="rgb(72.163391%, 32.910156%, 74.780273%)" offset="0.617188"/><stop stop-opacity="1" stop-color="rgb(71.987915%, 32.902527%, 75.036621%)" offset="0.621094"/><stop stop-opacity="1" stop-color="rgb(71.812439%, 32.894897%, 75.294495%)" offset="0.625"/><stop stop-opacity="1" stop-color="rgb(71.635437%, 32.887268%, 75.550842%)" offset="0.628906"/><stop stop-opacity="1" stop-color="rgb(71.459961%, 32.879639%, 75.808716%)" offset="0.632812"/><stop stop-opacity="1" stop-color="rgb(71.282959%, 32.870483%, 76.065063%)" offset="0.636719"/><stop stop-opacity="1" stop-color="rgb(71.107483%, 32.862854%, 76.322937%)" offset="0.640625"/><stop stop-opacity="1" stop-color="rgb(70.930481%, 32.855225%, 76.580811%)" offset="0.644531"/><stop stop-opacity="1" stop-color="rgb(70.755005%, 32.847595%, 76.838684%)" offset="0.648438"/><stop stop-opacity="1" stop-color="rgb(70.578003%, 32.839966%, 77.095032%)" offset="0.652344"/><stop stop-opacity="1" stop-color="rgb(70.402527%, 32.832336%, 77.352905%)" offset="0.65625"/><stop stop-opacity="1" stop-color="rgb(70.225525%, 32.824707%, 77.609253%)" offset="0.660156"/><stop stop-opacity="1" stop-color="rgb(70.050049%, 32.817078%, 77.867126%)" offset="0.664062"/><stop stop-opacity="1" stop-color="rgb(69.873047%, 32.809448%, 78.125%)" offset="0.667969"/><stop stop-opacity="1" stop-color="rgb(69.697571%, 32.801819%, 78.382874%)" offset="0.671875"/><stop stop-opacity="1" stop-color="rgb(69.520569%, 32.794189%, 78.639221%)" offset="0.675781"/><stop stop-opacity="1" stop-color="rgb(69.345093%, 32.78656%, 78.897095%)" offset="0.679688"/><stop stop-opacity="1" stop-color="rgb(69.168091%, 32.778931%, 79.153442%)" offset="0.683594"/><stop stop-opacity="1" stop-color="rgb(68.992615%, 32.771301%, 79.411316%)" offset="0.6875"/><stop stop-opacity="1" stop-color="rgb(68.815613%, 32.763672%, 79.669189%)" offset="0.691406"/><stop stop-opacity="1" stop-color="rgb(68.640137%, 32.756042%, 79.927063%)" offset="0.695312"/><stop stop-opacity="1" stop-color="rgb(68.463135%, 32.748413%, 80.183411%)" offset="0.699219"/><stop stop-opacity="1" stop-color="rgb(68.287659%, 32.740784%, 80.441284%)" offset="0.703125"/><stop stop-opacity="1" stop-color="rgb(68.112183%, 32.733154%, 80.697632%)" offset="0.707031"/><stop stop-opacity="1" stop-color="rgb(67.936707%, 32.725525%, 80.955505%)" offset="0.710938"/><stop stop-opacity="1" stop-color="rgb(67.759705%, 32.717896%, 81.211853%)" offset="0.714844"/><stop stop-opacity="1" stop-color="rgb(67.584229%, 32.710266%, 81.469727%)" offset="0.71875"/><stop stop-opacity="1" stop-color="rgb(67.407227%, 32.702637%, 81.7276%)" offset="0.722656"/><stop stop-opacity="1" stop-color="rgb(67.23175%, 32.695007%, 81.985474%)" offset="0.726562"/><stop stop-opacity="1" stop-color="rgb(67.054749%, 32.687378%, 82.241821%)" offset="0.730469"/><stop stop-opacity="1" stop-color="rgb(66.879272%, 32.679749%, 82.499695%)" offset="0.734375"/><stop stop-opacity="1" stop-color="rgb(66.702271%, 32.672119%, 82.756042%)" offset="0.738281"/><stop stop-opacity="1" stop-color="rgb(66.526794%, 32.66449%, 83.013916%)" offset="0.742188"/><stop stop-opacity="1" stop-color="rgb(66.349792%, 32.65686%, 83.27179%)" offset="0.746094"/><stop stop-opacity="1" stop-color="rgb(66.174316%, 32.649231%, 83.529663%)" offset="0.75"/><stop stop-opacity="1" stop-color="rgb(65.997314%, 32.641602%, 83.786011%)" offset="0.753906"/><stop stop-opacity="1" stop-color="rgb(65.821838%, 32.633972%, 84.043884%)" offset="0.757812"/><stop stop-opacity="1" stop-color="rgb(65.644836%, 32.626343%, 84.300232%)" offset="0.761719"/><stop stop-opacity="1" stop-color="rgb(65.46936%, 32.618713%, 84.558105%)" offset="0.765625"/><stop stop-opacity="1" stop-color="rgb(65.292358%, 32.611084%, 84.815979%)" offset="0.769531"/><stop stop-opacity="1" stop-color="rgb(65.116882%, 32.603455%, 85.073853%)" offset="0.773438"/><stop stop-opacity="1" stop-color="rgb(64.93988%, 32.595825%, 85.3302%)" offset="0.777344"/><stop stop-opacity="1" stop-color="rgb(64.764404%, 32.588196%, 85.588074%)" offset="0.78125"/><stop stop-opacity="1" stop-color="rgb(64.587402%, 32.580566%, 85.844421%)" offset="0.785156"/><stop stop-opacity="1" stop-color="rgb(64.411926%, 32.572937%, 86.102295%)" offset="0.789062"/><stop stop-opacity="1" stop-color="rgb(64.234924%, 32.565308%, 86.360168%)" offset="0.792969"/><stop stop-opacity="1" stop-color="rgb(64.059448%, 32.557678%, 86.618042%)" offset="0.796875"/><stop stop-opacity="1" stop-color="rgb(63.883972%, 32.550049%, 86.87439%)" offset="0.800781"/><stop stop-opacity="1" stop-color="rgb(63.708496%, 32.542419%, 87.132263%)" offset="0.804688"/><stop stop-opacity="1" stop-color="rgb(63.531494%, 32.53479%, 87.388611%)" offset="0.808594"/><stop stop-opacity="1" stop-color="rgb(63.356018%, 32.527161%, 87.646484%)" offset="0.8125"/><stop stop-opacity="1" stop-color="rgb(63.179016%, 32.519531%, 87.902832%)" offset="0.816406"/><stop stop-opacity="1" stop-color="rgb(63.00354%, 32.511902%, 88.160706%)" offset="0.820312"/><stop stop-opacity="1" stop-color="rgb(62.826538%, 32.504272%, 88.418579%)" offset="0.824219"/><stop stop-opacity="1" stop-color="rgb(62.651062%, 32.496643%, 88.676453%)" offset="0.828125"/><stop stop-opacity="1" stop-color="rgb(62.47406%, 32.489014%, 88.9328%)" offset="0.832031"/><stop stop-opacity="1" stop-color="rgb(62.298584%, 32.481384%, 89.190674%)" offset="0.835938"/><stop stop-opacity="1" stop-color="rgb(62.121582%, 32.473755%, 89.447021%)" offset="0.839844"/><stop stop-opacity="1" stop-color="rgb(61.946106%, 32.466125%, 89.704895%)" offset="0.84375"/><stop stop-opacity="1" stop-color="rgb(61.769104%, 32.458496%, 89.962769%)" offset="0.847656"/><stop stop-opacity="1" stop-color="rgb(61.593628%, 32.450867%, 90.220642%)" offset="0.851562"/><stop stop-opacity="1" stop-color="rgb(61.416626%, 32.443237%, 90.47699%)" offset="0.855469"/><stop stop-opacity="1" stop-color="rgb(61.24115%, 32.435608%, 90.734863%)" offset="0.859375"/><stop stop-opacity="1" stop-color="rgb(61.064148%, 32.426453%, 90.991211%)" offset="0.863281"/><stop stop-opacity="1" stop-color="rgb(60.888672%, 32.418823%, 91.249084%)" offset="0.867188"/><stop stop-opacity="1" stop-color="rgb(60.71167%, 32.411194%, 91.506958%)" offset="0.871094"/><stop stop-opacity="1" stop-color="rgb(60.536194%, 32.403564%, 91.764832%)" offset="0.875"/><stop stop-opacity="1" stop-color="rgb(60.359192%, 32.395935%, 92.021179%)" offset="0.878906"/><stop stop-opacity="1" stop-color="rgb(60.183716%, 32.388306%, 92.279053%)" offset="0.882812"/><stop stop-opacity="1" stop-color="rgb(60.00824%, 32.380676%, 92.5354%)" offset="0.886719"/><stop stop-opacity="1" stop-color="rgb(59.832764%, 32.373047%, 92.793274%)" offset="0.890625"/><stop stop-opacity="1" stop-color="rgb(59.655762%, 32.365417%, 93.051147%)" offset="0.894531"/><stop stop-opacity="1" stop-color="rgb(59.480286%, 32.357788%, 93.309021%)" offset="0.898438"/><stop stop-opacity="1" stop-color="rgb(59.303284%, 32.350159%, 93.565369%)" offset="0.902344"/><stop stop-opacity="1" stop-color="rgb(59.127808%, 32.342529%, 93.823242%)" offset="0.90625"/><stop stop-opacity="1" stop-color="rgb(58.950806%, 32.3349%, 94.07959%)" offset="0.910156"/><stop stop-opacity="1" stop-color="rgb(58.77533%, 32.327271%, 94.337463%)" offset="0.914062"/><stop stop-opacity="1" stop-color="rgb(58.598328%, 32.319641%, 94.593811%)" offset="0.917969"/><stop stop-opacity="1" stop-color="rgb(58.422852%, 32.312012%, 94.851685%)" offset="0.921875"/><stop stop-opacity="1" stop-color="rgb(58.24585%, 32.304382%, 95.109558%)" offset="0.925781"/><stop stop-opacity="1" stop-color="rgb(58.070374%, 32.296753%, 95.367432%)" offset="0.929688"/><stop stop-opacity="1" stop-color="rgb(57.893372%, 32.289124%, 95.623779%)" offset="0.933594"/><stop stop-opacity="1" stop-color="rgb(57.717896%, 32.281494%, 95.881653%)" offset="0.9375"/><stop stop-opacity="1" stop-color="rgb(57.540894%, 32.273865%, 96.138%)" offset="0.941406"/><stop stop-opacity="1" stop-color="rgb(57.365417%, 32.266235%, 96.395874%)" offset="0.945312"/><stop stop-opacity="1" stop-color="rgb(57.188416%, 32.258606%, 96.653748%)" offset="0.949219"/><stop stop-opacity="1" stop-color="rgb(57.012939%, 32.250977%, 96.911621%)" offset="0.953125"/><stop stop-opacity="1" stop-color="rgb(56.835938%, 32.243347%, 97.167969%)" offset="0.957031"/><stop stop-opacity="1" stop-color="rgb(56.660461%, 32.235718%, 97.425842%)" offset="0.960938"/><stop stop-opacity="1" stop-color="rgb(56.483459%, 32.228088%, 97.68219%)" offset="0.964844"/><stop stop-opacity="1" stop-color="rgb(56.307983%, 32.220459%, 97.940063%)" offset="0.96875"/><stop stop-opacity="1" stop-color="rgb(56.132507%, 32.21283%, 98.197937%)" offset="0.972656"/><stop stop-opacity="1" stop-color="rgb(55.957031%, 32.2052%, 98.455811%)" offset="0.976562"/><stop stop-opacity="1" stop-color="rgb(55.780029%, 32.197571%, 98.712158%)" offset="0.980469"/><stop stop-opacity="1" stop-color="rgb(55.604553%, 32.189941%, 98.970032%)" offset="0.984375"/><stop stop-opacity="1" stop-color="rgb(55.427551%, 32.182312%, 99.226379%)" offset="0.988281"/><stop stop-opacity="1" stop-color="rgb(55.252075%, 32.174683%, 99.484253%)" offset="0.992188"/><stop stop-opacity="1" stop-color="rgb(55.075073%, 32.167053%, 99.740601%)" offset="0.996094"/><stop stop-opacity="1" stop-color="rgb(54.899597%, 32.159424%, 99.998474%)" offset="1"/></linearGradient><clipPath id="41565968d7"><rect x="0" width="20" y="0" height="19"/></clipPath><clipPath id="58a344a961"><path d="M 27.539062 63.851562 L 256.453125 63.851562 L 256.453125 156.5 L 27.539062 156.5 Z M 27.539062 63.851562 " clip-rule="nonzero"/></clipPath><clipPath id="80dad2daee"><path d="M 0.539062 0.851562 L 229.453125 0.851562 L 229.453125 93.5 L 0.539062 93.5 Z M 0.539062 0.851562 " clip-rule="nonzero"/></clipPath><clipPath id="b00b7ab8ae"><path d="M 0.539062 0.851562 L 224.066406 0.851562 L 224.066406 93.5 L 0.539062 93.5 Z M 0.539062 0.851562 " clip-rule="nonzero"/></clipPath><linearGradient x1="-58.306" gradientTransform="matrix(0.899165, 0, 0, 0.894037, 52.966017, 52.980768)" y1="14.5" x2="190.28999" gradientUnits="userSpaceOnUse" y2="14.5" id="54bc16b9d3"><stop stop-opacity="1" stop-color="rgb(100%, 34.118652%, 34.118652%)" offset="0"/><stop stop-opacity="1" stop-color="rgb(100%, 34.118652%, 34.118652%)" offset="0.125"/><stop stop-opacity="1" stop-color="rgb(100%, 34.118652%, 34.118652%)" offset="0.1875"/><stop stop-opacity="1" stop-color="rgb(100%, 34.118652%, 34.118652%)" offset="0.21875"/><stop stop-opacity="1" stop-color="rgb(100%, 34.118652%, 34.118652%)" offset="0.234375"/><stop stop-opacity="1" stop-color="rgb(99.674988%, 34.104919%, 34.593201%)" offset="0.238281"/><stop stop-opacity="1" stop-color="rgb(99.349976%, 34.091187%, 35.067749%)" offset="0.242187"/><stop stop-opacity="1" stop-color="rgb(99.017334%, 34.075928%, 35.552979%)" offset="0.246094"/><stop stop-opacity="1" stop-color="rgb(98.686218%, 34.062195%, 36.038208%)" offset="0.25"/><stop stop-opacity="1" stop-color="rgb(98.353577%, 34.046936%, 36.521912%)" offset="0.253906"/><stop stop-opacity="1" stop-color="rgb(98.022461%, 34.033203%, 37.007141%)" offset="0.257812"/><stop stop-opacity="1" stop-color="rgb(97.689819%, 34.017944%, 37.490845%)" offset="0.261719"/><stop stop-opacity="1" stop-color="rgb(97.358704%, 34.004211%, 37.976074%)" offset="0.265625"/><stop stop-opacity="1" stop-color="rgb(97.026062%, 33.988953%, 38.459778%)" offset="0.269531"/><stop stop-opacity="1" stop-color="rgb(96.694946%, 33.97522%, 38.945007%)" offset="0.273438"/><stop stop-opacity="1" stop-color="rgb(96.362305%, 33.959961%, 39.430237%)" offset="0.277344"/><stop stop-opacity="1" stop-color="rgb(96.031189%, 33.946228%, 39.915466%)" offset="0.28125"/><stop stop-opacity="1" stop-color="rgb(95.698547%, 33.930969%, 40.39917%)" offset="0.285156"/><stop stop-opacity="1" stop-color="rgb(95.367432%, 33.917236%, 40.884399%)" offset="0.289062"/><stop stop-opacity="1" stop-color="rgb(95.03479%, 33.903503%, 41.368103%)" offset="0.292969"/><stop stop-opacity="1" stop-color="rgb(94.703674%, 33.889771%, 41.853333%)" offset="0.296875"/><stop stop-opacity="1" stop-color="rgb(94.371033%, 33.874512%, 42.338562%)" offset="0.300781"/><stop stop-opacity="1" stop-color="rgb(94.039917%, 33.860779%, 42.823792%)" offset="0.304688"/><stop stop-opacity="1" stop-color="rgb(93.707275%, 33.84552%, 43.307495%)" offset="0.308594"/><stop stop-opacity="1" stop-color="rgb(93.37616%, 33.831787%, 43.792725%)" offset="0.3125"/><stop stop-opacity="1" stop-color="rgb(93.045044%, 33.816528%, 44.276428%)" offset="0.316406"/><stop stop-opacity="1" stop-color="rgb(92.713928%, 33.802795%, 44.761658%)" offset="0.320312"/><stop stop-opacity="1" stop-color="rgb(92.381287%, 33.787537%, 45.246887%)" offset="0.324219"/><stop stop-opacity="1" stop-color="rgb(92.050171%, 33.773804%, 45.732117%)" offset="0.328125"/><stop stop-opacity="1" stop-color="rgb(91.717529%, 33.758545%, 46.21582%)" offset="0.332031"/><stop stop-opacity="1" stop-color="rgb(91.386414%, 33.744812%, 46.70105%)" offset="0.335937"/><stop stop-opacity="1" stop-color="rgb(91.053772%, 33.729553%, 47.184753%)" offset="0.339844"/><stop stop-opacity="1" stop-color="rgb(90.722656%, 33.71582%, 47.669983%)" offset="0.34375"/><stop stop-opacity="1" stop-color="rgb(90.390015%, 33.700562%, 48.155212%)" offset="0.347656"/><stop stop-opacity="1" stop-color="rgb(90.058899%, 33.686829%, 48.640442%)" offset="0.351562"/><stop stop-opacity="1" stop-color="rgb(89.726257%, 33.67157%, 49.124146%)" offset="0.355469"/><stop stop-opacity="1" stop-color="rgb(89.395142%, 33.657837%, 49.609375%)" offset="0.359375"/><stop stop-opacity="1" stop-color="rgb(89.0625%, 33.642578%, 50.093079%)" offset="0.363281"/><stop stop-opacity="1" stop-color="rgb(88.731384%, 33.628845%, 50.578308%)" offset="0.367188"/><stop stop-opacity="1" stop-color="rgb(88.398743%, 33.615112%, 51.063538%)" offset="0.371094"/><stop stop-opacity="1" stop-color="rgb(88.067627%, 33.601379%, 51.548767%)" offset="0.375"/><stop stop-opacity="1" stop-color="rgb(87.734985%, 33.586121%, 52.032471%)" offset="0.378906"/><stop stop-opacity="1" stop-color="rgb(87.40387%, 33.572388%, 52.5177%)" offset="0.382812"/><stop stop-opacity="1" stop-color="rgb(87.071228%, 33.557129%, 53.001404%)" offset="0.386719"/><stop stop-opacity="1" stop-color="rgb(86.740112%, 33.543396%, 53.486633%)" offset="0.390625"/><stop stop-opacity="1" stop-color="rgb(86.407471%, 33.528137%, 53.971863%)" offset="0.394531"/><stop stop-opacity="1" stop-color="rgb(86.076355%, 33.514404%, 54.457092%)" offset="0.398438"/><stop stop-opacity="1" stop-color="rgb(85.743713%, 33.499146%, 54.940796%)" offset="0.402344"/><stop stop-opacity="1" stop-color="rgb(85.412598%, 33.485413%, 55.426025%)" offset="0.40625"/><stop stop-opacity="1" stop-color="rgb(85.079956%, 33.470154%, 55.909729%)" offset="0.410156"/><stop stop-opacity="1" stop-color="rgb(84.74884%, 33.456421%, 56.394958%)" offset="0.414062"/><stop stop-opacity="1" stop-color="rgb(84.416199%, 33.441162%, 56.880188%)" offset="0.417969"/><stop stop-opacity="1" stop-color="rgb(84.085083%, 33.427429%, 57.365417%)" offset="0.421875"/><stop stop-opacity="1" stop-color="rgb(83.753967%, 33.41217%, 57.849121%)" offset="0.425781"/><stop stop-opacity="1" stop-color="rgb(83.422852%, 33.398438%, 58.334351%)" offset="0.429687"/><stop stop-opacity="1" stop-color="rgb(83.09021%, 33.383179%, 58.818054%)" offset="0.433594"/><stop stop-opacity="1" stop-color="rgb(82.759094%, 33.369446%, 59.303284%)" offset="0.4375"/><stop stop-opacity="1" stop-color="rgb(82.426453%, 33.354187%, 59.788513%)" offset="0.441406"/><stop stop-opacity="1" stop-color="rgb(82.095337%, 33.340454%, 60.273743%)" offset="0.445312"/><stop stop-opacity="1" stop-color="rgb(81.762695%, 33.326721%, 60.757446%)" offset="0.449219"/><stop stop-opacity="1" stop-color="rgb(81.43158%, 33.312988%, 61.242676%)" offset="0.453125"/><stop stop-opacity="1" stop-color="rgb(81.098938%, 33.297729%, 61.726379%)" offset="0.457031"/><stop stop-opacity="1" stop-color="rgb(80.767822%, 33.283997%, 62.211609%)" offset="0.460937"/><stop stop-opacity="1" stop-color="rgb(80.435181%, 33.268738%, 62.696838%)" offset="0.464844"/><stop stop-opacity="1" stop-color="rgb(80.104065%, 33.255005%, 63.182068%)" offset="0.46875"/><stop stop-opacity="1" stop-color="rgb(79.771423%, 33.239746%, 63.665771%)" offset="0.472656"/><stop stop-opacity="1" stop-color="rgb(79.440308%, 33.226013%, 64.151001%)" offset="0.476562"/><stop stop-opacity="1" stop-color="rgb(79.107666%, 33.210754%, 64.634705%)" offset="0.480469"/><stop stop-opacity="1" stop-color="rgb(78.77655%, 33.197021%, 65.119934%)" offset="0.484375"/><stop stop-opacity="1" stop-color="rgb(78.443909%, 33.181763%, 65.605164%)" offset="0.488281"/><stop stop-opacity="1" stop-color="rgb(78.112793%, 33.16803%, 66.090393%)" offset="0.492188"/><stop stop-opacity="1" stop-color="rgb(77.780151%, 33.152771%, 66.574097%)" offset="0.496094"/><stop stop-opacity="1" stop-color="rgb(77.449036%, 33.139038%, 67.059326%)" offset="0.5"/><stop stop-opacity="1" stop-color="rgb(77.116394%, 33.123779%, 67.54303%)" offset="0.503906"/><stop stop-opacity="1" stop-color="rgb(76.785278%, 33.110046%, 68.028259%)" offset="0.507812"/><stop stop-opacity="1" stop-color="rgb(76.452637%, 33.094788%, 68.513489%)" offset="0.511719"/><stop stop-opacity="1" stop-color="rgb(76.121521%, 33.081055%, 68.998718%)" offset="0.515625"/><stop stop-opacity="1" stop-color="rgb(75.788879%, 33.065796%, 69.482422%)" offset="0.519531"/><stop stop-opacity="1" stop-color="rgb(75.457764%, 33.052063%, 69.967651%)" offset="0.523438"/><stop stop-opacity="1" stop-color="rgb(75.125122%, 33.03833%, 70.451355%)" offset="0.527344"/><stop stop-opacity="1" stop-color="rgb(74.794006%, 33.024597%, 70.936584%)" offset="0.53125"/><stop stop-opacity="1" stop-color="rgb(74.461365%, 33.009338%, 71.421814%)" offset="0.535156"/><stop stop-opacity="1" stop-color="rgb(74.130249%, 32.995605%, 71.907043%)" offset="0.539062"/><stop stop-opacity="1" stop-color="rgb(73.799133%, 32.980347%, 72.390747%)" offset="0.542969"/><stop stop-opacity="1" stop-color="rgb(73.468018%, 32.966614%, 72.875977%)" offset="0.546875"/><stop stop-opacity="1" stop-color="rgb(73.135376%, 32.951355%, 73.35968%)" offset="0.550781"/><stop stop-opacity="1" stop-color="rgb(72.80426%, 32.937622%, 73.84491%)" offset="0.554687"/><stop stop-opacity="1" stop-color="rgb(72.471619%, 32.922363%, 74.330139%)" offset="0.558594"/><stop stop-opacity="1" stop-color="rgb(72.140503%, 32.90863%, 74.815369%)" offset="0.5625"/><stop stop-opacity="1" stop-color="rgb(71.807861%, 32.893372%, 75.299072%)" offset="0.566406"/><stop stop-opacity="1" stop-color="rgb(71.476746%, 32.879639%, 75.784302%)" offset="0.570312"/><stop stop-opacity="1" stop-color="rgb(71.144104%, 32.86438%, 76.268005%)" offset="0.574219"/><stop stop-opacity="1" stop-color="rgb(70.812988%, 32.850647%, 76.753235%)" offset="0.578125"/><stop stop-opacity="1" stop-color="rgb(70.480347%, 32.835388%, 77.238464%)" offset="0.582031"/><stop stop-opacity="1" stop-color="rgb(70.149231%, 32.821655%, 77.723694%)" offset="0.585938"/><stop stop-opacity="1" stop-color="rgb(69.816589%, 32.806396%, 78.207397%)" offset="0.589844"/><stop stop-opacity="1" stop-color="rgb(69.485474%, 32.792664%, 78.692627%)" offset="0.59375"/><stop stop-opacity="1" stop-color="rgb(69.152832%, 32.777405%, 79.176331%)" offset="0.597656"/><stop stop-opacity="1" stop-color="rgb(68.821716%, 32.763672%, 79.66156%)" offset="0.601562"/><stop stop-opacity="1" stop-color="rgb(68.489075%, 32.749939%, 80.14679%)" offset="0.605469"/><stop stop-opacity="1" stop-color="rgb(68.157959%, 32.736206%, 80.632019%)" offset="0.609375"/><stop stop-opacity="1" stop-color="rgb(67.825317%, 32.720947%, 81.115723%)" offset="0.613281"/><stop stop-opacity="1" stop-color="rgb(67.494202%, 32.707214%, 81.600952%)" offset="0.617188"/><stop stop-opacity="1" stop-color="rgb(67.16156%, 32.691956%, 82.084656%)" offset="0.621094"/><stop stop-opacity="1" stop-color="rgb(66.830444%, 32.678223%, 82.569885%)" offset="0.625"/><stop stop-opacity="1" stop-color="rgb(66.497803%, 32.662964%, 83.053589%)" offset="0.628906"/><stop stop-opacity="1" stop-color="rgb(66.166687%, 32.649231%, 83.538818%)" offset="0.632812"/><stop stop-opacity="1" stop-color="rgb(65.834045%, 32.633972%, 84.024048%)" offset="0.636719"/><stop stop-opacity="1" stop-color="rgb(65.50293%, 32.620239%, 84.509277%)" offset="0.640625"/><stop stop-opacity="1" stop-color="rgb(65.170288%, 32.60498%, 84.992981%)" offset="0.644531"/><stop stop-opacity="1" stop-color="rgb(64.839172%, 32.591248%, 85.47821%)" offset="0.648437"/><stop stop-opacity="1" stop-color="rgb(64.508057%, 32.575989%, 85.961914%)" offset="0.652344"/><stop stop-opacity="1" stop-color="rgb(64.176941%, 32.562256%, 86.447144%)" offset="0.65625"/><stop stop-opacity="1" stop-color="rgb(63.844299%, 32.546997%, 86.932373%)" offset="0.660156"/><stop stop-opacity="1" stop-color="rgb(63.513184%, 32.533264%, 87.417603%)" offset="0.664062"/><stop stop-opacity="1" stop-color="rgb(63.180542%, 32.518005%, 87.901306%)" offset="0.667969"/><stop stop-opacity="1" stop-color="rgb(62.849426%, 32.504272%, 88.386536%)" offset="0.671875"/><stop stop-opacity="1" stop-color="rgb(62.516785%, 32.489014%, 88.870239%)" offset="0.675781"/><stop stop-opacity="1" stop-color="rgb(62.185669%, 32.475281%, 89.355469%)" offset="0.679688"/><stop stop-opacity="1" stop-color="rgb(61.853027%, 32.460022%, 89.840698%)" offset="0.683594"/><stop stop-opacity="1" stop-color="rgb(61.521912%, 32.446289%, 90.325928%)" offset="0.6875"/><stop stop-opacity="1" stop-color="rgb(61.18927%, 32.432556%, 90.809631%)" offset="0.691406"/><stop stop-opacity="1" stop-color="rgb(60.858154%, 32.418823%, 91.294861%)" offset="0.695312"/><stop stop-opacity="1" stop-color="rgb(60.525513%, 32.403564%, 91.778564%)" offset="0.699219"/><stop stop-opacity="1" stop-color="rgb(60.194397%, 32.389832%, 92.263794%)" offset="0.703125"/><stop stop-opacity="1" stop-color="rgb(59.861755%, 32.374573%, 92.749023%)" offset="0.707031"/><stop stop-opacity="1" stop-color="rgb(59.53064%, 32.36084%, 93.234253%)" offset="0.710938"/><stop stop-opacity="1" stop-color="rgb(59.197998%, 32.345581%, 93.717957%)" offset="0.714844"/><stop stop-opacity="1" stop-color="rgb(58.866882%, 32.331848%, 94.203186%)" offset="0.71875"/><stop stop-opacity="1" stop-color="rgb(58.534241%, 32.316589%, 94.68689%)" offset="0.722656"/><stop stop-opacity="1" stop-color="rgb(58.203125%, 32.302856%, 95.172119%)" offset="0.726562"/><stop stop-opacity="1" stop-color="rgb(57.870483%, 32.287598%, 95.657349%)" offset="0.730469"/><stop stop-opacity="1" stop-color="rgb(57.539368%, 32.273865%, 96.142578%)" offset="0.734375"/><stop stop-opacity="1" stop-color="rgb(57.206726%, 32.258606%, 96.626282%)" offset="0.738281"/><stop stop-opacity="1" stop-color="rgb(56.87561%, 32.244873%, 97.111511%)" offset="0.742188"/><stop stop-opacity="1" stop-color="rgb(56.542969%, 32.229614%, 97.595215%)" offset="0.746094"/><stop stop-opacity="1" stop-color="rgb(56.211853%, 32.215881%, 98.080444%)" offset="0.75"/><stop stop-opacity="1" stop-color="rgb(55.879211%, 32.200623%, 98.565674%)" offset="0.753906"/><stop stop-opacity="1" stop-color="rgb(55.548096%, 32.18689%, 99.050903%)" offset="0.757812"/><stop stop-opacity="1" stop-color="rgb(55.223083%, 32.173157%, 99.525452%)" offset="0.761719"/><stop stop-opacity="1" stop-color="rgb(54.899597%, 32.159424%, 100%)" offset="0.765625"/><stop stop-opacity="1" stop-color="rgb(54.899597%, 32.159424%, 100%)" offset="0.78125"/><stop stop-opacity="1" stop-color="rgb(54.899597%, 32.159424%, 100%)" offset="0.8125"/><stop stop-opacity="1" stop-color="rgb(54.899597%, 32.159424%, 100%)" offset="0.875"/><stop stop-opacity="1" stop-color="rgb(54.899597%, 32.159424%, 100%)" offset="1"/></linearGradient><clipPath id="6d60de2cec"><rect x="0" width="230" y="0" height="94"/></clipPath><clipPath id="46eab7a573"><path d="M 0.539062 0.851562 L 229.453125 0.851562 L 229.453125 93.5 L 0.539062 93.5 Z M 0.539062 0.851562 " clip-rule="nonzero"/></clipPath><clipPath id="3b7a36a6c7"><rect x="0" width="230" y="0" height="94"/></clipPath><clipPath id="ca7a573442"><rect x="0" width="230" y="0" height="94"/></clipPath><mask id="c2f0457abf"><g filter="url(#88a120ef06)"><g transform="matrix(1, 0, 0, 1, 0, 0.000000000000014211)"><g clip-path="url(#ca7a573442)"><g clip-path="url(#46eab7a573)"><g transform="matrix(1, 0, 0, 1, 0, 0.000000000000014211)"><g clip-path="url(#3b7a36a6c7)"><g fill="#000000" fill-opacity="1"><g transform="translate(52.60613, 72.669675)"><g><path d="M 5.203125 -6 C 4.785156 -6 4.476562 -5.8125 4.28125 -5.4375 C 4.082031 -5.070312 3.957031 -4.628906 3.90625 -4.109375 C 3.851562 -3.585938 3.832031 -3.082031 3.84375 -2.59375 C 3.863281 -2.101562 3.882812 -1.734375 3.90625 -1.484375 C 3.9375 -1.242188 3.957031 -0.984375 3.96875 -0.703125 C 3.976562 -0.421875 3.84375 -0.222656 3.5625 -0.109375 C 3.363281 -0.0351562 3.140625 -0.0195312 2.890625 -0.0625 C 2.640625 -0.101562 2.410156 -0.117188 2.203125 -0.109375 C 2.078125 -0.109375 1.859375 -0.09375 1.546875 -0.0625 C 1.234375 -0.0390625 0.925781 -0.0390625 0.625 -0.0625 C 0.332031 -0.09375 0.148438 -0.175781 0.078125 -0.3125 C 0.0546875 -0.363281 0.046875 -0.460938 0.046875 -0.609375 C 0.046875 -1.578125 0.046875 -2.550781 0.046875 -3.53125 C 0.046875 -4.507812 0.046875 -5.476562 0.046875 -6.4375 C 0.046875 -8.289062 0.046875 -10.144531 0.046875 -12 C 0.046875 -13.851562 0.0390625 -15.707031 0.03125 -17.5625 C 0.03125 -17.90625 0.0507812 -18.257812 0.09375 -18.625 C 0.132812 -19 0.363281 -19.25 0.78125 -19.375 C 1.132812 -19.476562 1.5 -19.488281 1.875 -19.40625 C 2.257812 -19.320312 2.640625 -19.273438 3.015625 -19.265625 C 4.316406 -19.191406 5.625 -19.132812 6.9375 -19.09375 C 8.25 -19.050781 9.566406 -18.953125 10.890625 -18.796875 C 11.179688 -18.753906 11.472656 -18.695312 11.765625 -18.625 C 12.054688 -18.5625 12.335938 -18.46875 12.609375 -18.34375 C 13.609375 -17.925781 14.3125 -17.265625 14.71875 -16.359375 C 15.132812 -15.453125 15.375 -14.492188 15.4375 -13.484375 C 15.476562 -12.785156 15.4375 -12.085938 15.3125 -11.390625 C 15.1875 -10.703125 14.957031 -10.054688 14.625 -9.453125 C 14.457031 -9.148438 14.265625 -8.859375 14.046875 -8.578125 C 13.835938 -8.304688 13.601562 -8.046875 13.34375 -7.796875 C 13.238281 -7.691406 13.082031 -7.566406 12.875 -7.421875 C 12.664062 -7.285156 12.488281 -7.140625 12.34375 -6.984375 C 12.195312 -6.828125 12.128906 -6.65625 12.140625 -6.46875 C 12.160156 -6.394531 12.1875 -6.320312 12.21875 -6.25 C 12.257812 -6.1875 12.296875 -6.109375 12.328125 -6.015625 C 12.742188 -5.390625 13.195312 -4.785156 13.6875 -4.203125 C 14.175781 -3.617188 14.640625 -3.019531 15.078125 -2.40625 C 15.265625 -2.125 15.46875 -1.84375 15.6875 -1.5625 C 15.90625 -1.289062 16.078125 -1 16.203125 -0.6875 C 16.234375 -0.59375 16.265625 -0.484375 16.296875 -0.359375 C 16.335938 -0.242188 16.296875 -0.148438 16.171875 -0.078125 C 16.117188 -0.0546875 16.039062 -0.046875 15.9375 -0.046875 C 15.539062 -0.046875 15.140625 -0.0390625 14.734375 -0.03125 C 14.335938 -0.03125 13.9375 -0.03125 13.53125 -0.03125 C 13.125 -0.03125 12.71875 -0.0351562 12.3125 -0.046875 C 11.90625 -0.0664062 11.546875 -0.226562 11.234375 -0.53125 C 11.003906 -0.75 10.8125 -1.003906 10.65625 -1.296875 C 10.5 -1.585938 10.320312 -1.863281 10.125 -2.125 C 9.789062 -2.625 9.445312 -3.125 9.09375 -3.625 C 8.738281 -4.125 8.359375 -4.609375 7.953125 -5.078125 C 7.460938 -5.597656 6.566406 -5.90625 5.265625 -6 C 5.242188 -6 5.234375 -6 5.234375 -6 C 5.234375 -6 5.222656 -6 5.203125 -6 Z M 4.140625 -10.75 C 4.222656 -10.375 4.441406 -10.09375 4.796875 -9.90625 C 5.160156 -9.71875 5.582031 -9.601562 6.0625 -9.5625 C 6.539062 -9.519531 7.007812 -9.519531 7.46875 -9.5625 C 7.9375 -9.601562 8.304688 -9.660156 8.578125 -9.734375 C 9.347656 -9.929688 10.015625 -10.296875 10.578125 -10.828125 C 11.148438 -11.359375 11.4375 -12.039062 11.4375 -12.875 C 11.4375 -13.5 11.28125 -14.019531 10.96875 -14.4375 C 10.664062 -14.863281 10.269531 -15.195312 9.78125 -15.4375 C 9.300781 -15.6875 8.773438 -15.847656 8.203125 -15.921875 C 7.640625 -16.003906 7.09375 -16.019531 6.5625 -15.96875 C 6.34375 -15.945312 6.054688 -15.910156 5.703125 -15.859375 C 5.359375 -15.804688 5.039062 -15.710938 4.75 -15.578125 C 4.457031 -15.453125 4.28125 -15.238281 4.21875 -14.9375 C 3.882812 -13.53125 3.859375 -12.132812 4.140625 -10.75 Z M 4.140625 -10.75 "/></g></g></g><g fill="#000000" fill-opacity="1"><g transform="translate(71.545855, 72.669675)"><g><path d="M 12.90625 -19.390625 C 13.1875 -19.390625 13.378906 -19.367188 13.484375 -19.328125 C 13.585938 -19.296875 13.644531 -19.265625 13.65625 -19.234375 C 13.800781 -19.097656 13.875 -18.925781 13.875 -18.71875 C 13.882812 -18.519531 13.882812 -18.328125 13.875 -18.140625 C 13.851562 -17.878906 13.835938 -17.613281 13.828125 -17.34375 C 13.816406 -17.070312 13.820312 -16.804688 13.84375 -16.546875 C 13.84375 -16.472656 13.84375 -16.390625 13.84375 -16.296875 C 13.84375 -16.210938 13.828125 -16.128906 13.796875 -16.046875 C 13.742188 -15.890625 13.582031 -15.796875 13.3125 -15.765625 C 13.039062 -15.742188 12.753906 -15.75 12.453125 -15.78125 C 12.160156 -15.8125 11.9375 -15.828125 11.78125 -15.828125 C 11.375 -15.847656 10.96875 -15.859375 10.5625 -15.859375 C 10.164062 -15.859375 9.769531 -15.859375 9.375 -15.859375 C 8.570312 -15.859375 7.773438 -15.859375 6.984375 -15.859375 C 6.203125 -15.859375 5.410156 -15.859375 4.609375 -15.859375 C 4.429688 -15.859375 4.273438 -15.789062 4.140625 -15.65625 C 4.015625 -15.53125 3.953125 -15.375 3.953125 -15.1875 L 3.953125 -12.125 C 3.953125 -11.925781 4.015625 -11.757812 4.140625 -11.625 C 4.273438 -11.5 4.429688 -11.4375 4.609375 -11.4375 C 4.890625 -11.4375 5.164062 -11.4375 5.4375 -11.4375 C 5.71875 -11.4375 6 -11.4375 6.28125 -11.4375 C 7.238281 -11.4375 8.191406 -11.4375 9.140625 -11.4375 C 10.097656 -11.4375 11.054688 -11.445312 12.015625 -11.46875 C 12.203125 -11.476562 12.332031 -11.40625 12.40625 -11.25 C 12.488281 -11.09375 12.539062 -10.914062 12.5625 -10.71875 C 12.582031 -10.53125 12.59375 -10.367188 12.59375 -10.234375 C 12.59375 -10.078125 12.59375 -9.816406 12.59375 -9.453125 C 12.601562 -9.085938 12.578125 -8.742188 12.515625 -8.421875 C 12.460938 -8.097656 12.332031 -7.898438 12.125 -7.828125 C 12.050781 -7.804688 11.96875 -7.796875 11.875 -7.796875 C 11.789062 -7.796875 11.707031 -7.796875 11.625 -7.796875 C 10.75 -7.890625 9.863281 -7.925781 8.96875 -7.90625 C 8.082031 -7.882812 7.195312 -7.875 6.3125 -7.875 C 5.507812 -7.875 4.9375 -7.832031 4.59375 -7.75 C 4.25 -7.675781 4.039062 -7.484375 3.96875 -7.171875 C 3.90625 -6.867188 3.875 -6.367188 3.875 -5.671875 C 3.875 -5.097656 3.894531 -4.660156 3.9375 -4.359375 C 3.976562 -4.054688 4.097656 -3.847656 4.296875 -3.734375 C 4.503906 -3.617188 4.832031 -3.550781 5.28125 -3.53125 C 5.738281 -3.507812 6.378906 -3.5 7.203125 -3.5 C 8.273438 -3.5 9.34375 -3.503906 10.40625 -3.515625 C 11.476562 -3.523438 12.546875 -3.53125 13.609375 -3.53125 C 13.992188 -3.53125 14.1875 -3.398438 14.1875 -3.140625 C 14.1875 -2.878906 14.175781 -2.609375 14.15625 -2.328125 C 14.144531 -2.117188 14.132812 -1.90625 14.125 -1.6875 C 14.113281 -1.46875 14.117188 -1.242188 14.140625 -1.015625 C 14.148438 -0.722656 14.117188 -0.492188 14.046875 -0.328125 C 13.984375 -0.160156 13.769531 -0.078125 13.40625 -0.078125 C 12.382812 -0.078125 11.363281 -0.078125 10.34375 -0.078125 C 9.320312 -0.078125 8.300781 -0.078125 7.28125 -0.078125 C 6.332031 -0.0976562 5.378906 -0.117188 4.421875 -0.140625 C 3.460938 -0.171875 2.515625 -0.160156 1.578125 -0.109375 C 1.378906 -0.0859375 1.164062 -0.0546875 0.9375 -0.015625 C 0.71875 0.015625 0.507812 -0.015625 0.3125 -0.109375 C 0.132812 -0.191406 0.0390625 -0.394531 0.03125 -0.71875 C 0.03125 -1.039062 0.03125 -1.289062 0.03125 -1.46875 C 0.0078125 -1.75 0 -2.023438 0 -2.296875 C 0 -2.566406 0 -2.835938 0 -3.109375 C 0.0195312 -3.671875 0.0351562 -4.234375 0.046875 -4.796875 C 0.0664062 -5.367188 0.078125 -5.941406 0.078125 -6.515625 C 0.078125 -8.378906 0.078125 -10.273438 0.078125 -12.203125 C 0.078125 -14.128906 0.0625 -16.046875 0.03125 -17.953125 C 0.03125 -18.597656 0.113281 -19.007812 0.28125 -19.1875 C 0.445312 -19.34375 0.660156 -19.421875 0.921875 -19.421875 C 1.179688 -19.421875 1.40625 -19.410156 1.59375 -19.390625 C 1.894531 -19.390625 2.1875 -19.390625 2.46875 -19.390625 C 2.757812 -19.390625 3.046875 -19.382812 3.328125 -19.375 C 3.878906 -19.351562 4.4375 -19.34375 5 -19.34375 C 5.5625 -19.34375 6.109375 -19.34375 6.640625 -19.34375 C 7.566406 -19.34375 8.488281 -19.347656 9.40625 -19.359375 C 10.320312 -19.367188 11.234375 -19.378906 12.140625 -19.390625 Z M 12.90625 -19.390625 "/></g></g></g><g fill="#000000" fill-opacity="1"><g transform="translate(88.366632, 72.669675)"><g><path d="M 17.4375 -15.96875 C 17.4375 -15.894531 17.398438 -15.820312 17.328125 -15.75 C 17.046875 -15.425781 16.75 -15.101562 16.4375 -14.78125 C 16.132812 -14.457031 15.835938 -14.128906 15.546875 -13.796875 C 15.515625 -13.753906 15.472656 -13.710938 15.421875 -13.671875 C 15.367188 -13.628906 15.304688 -13.59375 15.234375 -13.5625 C 15.054688 -13.507812 14.851562 -13.59375 14.625 -13.8125 C 14.40625 -14.039062 14.234375 -14.207031 14.109375 -14.3125 C 13.535156 -14.726562 12.925781 -15.078125 12.28125 -15.359375 C 11.632812 -15.640625 10.941406 -15.78125 10.203125 -15.78125 L 10.125 -15.78125 C 8.726562 -15.757812 7.507812 -15.378906 6.46875 -14.640625 C 5.4375 -13.898438 4.6875 -12.875 4.21875 -11.5625 C 4.007812 -10.988281 3.921875 -10.359375 3.953125 -9.671875 C 3.984375 -8.984375 4.117188 -8.300781 4.359375 -7.625 C 4.597656 -6.957031 4.914062 -6.347656 5.3125 -5.796875 C 5.71875 -5.242188 6.179688 -4.800781 6.703125 -4.46875 C 7.628906 -3.894531 8.710938 -3.609375 9.953125 -3.609375 C 10.816406 -3.609375 11.609375 -3.75 12.328125 -4.03125 C 13.046875 -4.3125 13.628906 -4.703125 14.078125 -5.203125 C 14.328125 -5.503906 14.554688 -5.691406 14.765625 -5.765625 C 14.972656 -5.847656 15.222656 -5.75 15.515625 -5.46875 C 15.796875 -5.207031 16.0625 -4.929688 16.3125 -4.640625 C 16.570312 -4.359375 16.8125 -4.066406 17.03125 -3.765625 C 17.070312 -3.703125 17.113281 -3.640625 17.15625 -3.578125 C 17.195312 -3.515625 17.226562 -3.4375 17.25 -3.34375 C 17.320312 -3.082031 17.234375 -2.835938 16.984375 -2.609375 C 16.742188 -2.390625 16.460938 -2.195312 16.140625 -2.03125 C 15.816406 -1.863281 15.566406 -1.726562 15.390625 -1.625 C 14.585938 -1.113281 13.707031 -0.71875 12.75 -0.4375 C 11.789062 -0.164062 10.796875 -0.03125 9.765625 -0.03125 C 8.378906 -0.03125 7.148438 -0.226562 6.078125 -0.625 C 5.003906 -1.03125 4.085938 -1.554688 3.328125 -2.203125 C 2.578125 -2.859375 1.960938 -3.570312 1.484375 -4.34375 C 1.003906 -5.125 0.65625 -5.898438 0.4375 -6.671875 C -0.0078125 -8.328125 -0.109375 -9.9375 0.140625 -11.5 C 0.398438 -13.0625 1 -14.453125 1.9375 -15.671875 C 2.820312 -16.859375 3.9375 -17.78125 5.28125 -18.4375 C 6.625 -19.09375 8.066406 -19.421875 9.609375 -19.421875 L 9.6875 -19.421875 C 10.800781 -19.421875 11.894531 -19.265625 12.96875 -18.953125 C 14.039062 -18.648438 15.03125 -18.171875 15.9375 -17.515625 C 16.070312 -17.410156 16.253906 -17.273438 16.484375 -17.109375 C 16.710938 -16.941406 16.921875 -16.757812 17.109375 -16.5625 C 17.304688 -16.375 17.414062 -16.175781 17.4375 -15.96875 Z M 17.4375 -15.96875 "/></g></g></g><g fill="#000000" fill-opacity="1"><g transform="translate(108.405067, 72.669675)"><g><path d="M 5.203125 -6 C 4.785156 -6 4.476562 -5.8125 4.28125 -5.4375 C 4.082031 -5.070312 3.957031 -4.628906 3.90625 -4.109375 C 3.851562 -3.585938 3.832031 -3.082031 3.84375 -2.59375 C 3.863281 -2.101562 3.882812 -1.734375 3.90625 -1.484375 C 3.9375 -1.242188 3.957031 -0.984375 3.96875 -0.703125 C 3.976562 -0.421875 3.84375 -0.222656 3.5625 -0.109375 C 3.363281 -0.0351562 3.140625 -0.0195312 2.890625 -0.0625 C 2.640625 -0.101562 2.410156 -0.117188 2.203125 -0.109375 C 2.078125 -0.109375 1.859375 -0.09375 1.546875 -0.0625 C 1.234375 -0.0390625 0.925781 -0.0390625 0.625 -0.0625 C 0.332031 -0.09375 0.148438 -0.175781 0.078125 -0.3125 C 0.0546875 -0.363281 0.046875 -0.460938 0.046875 -0.609375 C 0.046875 -1.578125 0.046875 -2.550781 0.046875 -3.53125 C 0.046875 -4.507812 0.046875 -5.476562 0.046875 -6.4375 C 0.046875 -8.289062 0.046875 -10.144531 0.046875 -12 C 0.046875 -13.851562 0.0390625 -15.707031 0.03125 -17.5625 C 0.03125 -17.90625 0.0507812 -18.257812 0.09375 -18.625 C 0.132812 -19 0.363281 -19.25 0.78125 -19.375 C 1.132812 -19.476562 1.5 -19.488281 1.875 -19.40625 C 2.257812 -19.320312 2.640625 -19.273438 3.015625 -19.265625 C 4.316406 -19.191406 5.625 -19.132812 6.9375 -19.09375 C 8.25 -19.050781 9.566406 -18.953125 10.890625 -18.796875 C 11.179688 -18.753906 11.472656 -18.695312 11.765625 -18.625 C 12.054688 -18.5625 12.335938 -18.46875 12.609375 -18.34375 C 13.609375 -17.925781 14.3125 -17.265625 14.71875 -16.359375 C 15.132812 -15.453125 15.375 -14.492188 15.4375 -13.484375 C 15.476562 -12.785156 15.4375 -12.085938 15.3125 -11.390625 C 15.1875 -10.703125 14.957031 -10.054688 14.625 -9.453125 C 14.457031 -9.148438 14.265625 -8.859375 14.046875 -8.578125 C 13.835938 -8.304688 13.601562 -8.046875 13.34375 -7.796875 C 13.238281 -7.691406 13.082031 -7.566406 12.875 -7.421875 C 12.664062 -7.285156 12.488281 -7.140625 12.34375 -6.984375 C 12.195312 -6.828125 12.128906 -6.65625 12.140625 -6.46875 C 12.160156 -6.394531 12.1875 -6.320312 12.21875 -6.25 C 12.257812 -6.1875 12.296875 -6.109375 12.328125 -6.015625 C 12.742188 -5.390625 13.195312 -4.785156 13.6875 -4.203125 C 14.175781 -3.617188 14.640625 -3.019531 15.078125 -2.40625 C 15.265625 -2.125 15.46875 -1.84375 15.6875 -1.5625 C 15.90625 -1.289062 16.078125 -1 16.203125 -0.6875 C 16.234375 -0.59375 16.265625 -0.484375 16.296875 -0.359375 C 16.335938 -0.242188 16.296875 -0.148438 16.171875 -0.078125 C 16.117188 -0.0546875 16.039062 -0.046875 15.9375 -0.046875 C 15.539062 -0.046875 15.140625 -0.0390625 14.734375 -0.03125 C 14.335938 -0.03125 13.9375 -0.03125 13.53125 -0.03125 C 13.125 -0.03125 12.71875 -0.0351562 12.3125 -0.046875 C 11.90625 -0.0664062 11.546875 -0.226562 11.234375 -0.53125 C 11.003906 -0.75 10.8125 -1.003906 10.65625 -1.296875 C 10.5 -1.585938 10.320312 -1.863281 10.125 -2.125 C 9.789062 -2.625 9.445312 -3.125 9.09375 -3.625 C 8.738281 -4.125 8.359375 -4.609375 7.953125 -5.078125 C 7.460938 -5.597656 6.566406 -5.90625 5.265625 -6 C 5.242188 -6 5.234375 -6 5.234375 -6 C 5.234375 -6 5.222656 -6 5.203125 -6 Z M 4.140625 -10.75 C 4.222656 -10.375 4.441406 -10.09375 4.796875 -9.90625 C 5.160156 -9.71875 5.582031 -9.601562 6.0625 -9.5625 C 6.539062 -9.519531 7.007812 -9.519531 7.46875 -9.5625 C 7.9375 -9.601562 8.304688 -9.660156 8.578125 -9.734375 C 9.347656 -9.929688 10.015625 -10.296875 10.578125 -10.828125 C 11.148438 -11.359375 11.4375 -12.039062 11.4375 -12.875 C 11.4375 -13.5 11.28125 -14.019531 10.96875 -14.4375 C 10.664062 -14.863281 10.269531 -15.195312 9.78125 -15.4375 C 9.300781 -15.6875 8.773438 -15.847656 8.203125 -15.921875 C 7.640625 -16.003906 7.09375 -16.019531 6.5625 -15.96875 C 6.34375 -15.945312 6.054688 -15.910156 5.703125 -15.859375 C 5.359375 -15.804688 5.039062 -15.710938 4.75 -15.578125 C 4.457031 -15.453125 4.28125 -15.238281 4.21875 -14.9375 C 3.882812 -13.53125 3.859375 -12.132812 4.140625 -10.75 Z M 4.140625 -10.75 "/></g></g></g><g fill="#000000" fill-opacity="1"><g transform="translate(127.344792, 72.669675)"><g><path d="M 16.25 -6.5625 C 16.164062 -6.082031 16.046875 -5.597656 15.890625 -5.109375 C 15.734375 -4.617188 15.53125 -4.15625 15.28125 -3.71875 C 15.050781 -3.332031 14.773438 -2.945312 14.453125 -2.5625 C 14.378906 -2.488281 14.3125 -2.421875 14.25 -2.359375 C 14.1875 -2.304688 14.117188 -2.242188 14.046875 -2.171875 C 13.242188 -1.398438 12.3125 -0.835938 11.25 -0.484375 C 10.1875 -0.128906 9.082031 0.0195312 7.9375 -0.03125 C 6.800781 -0.0820312 5.71875 -0.320312 4.6875 -0.75 C 3.65625 -1.175781 2.769531 -1.789062 2.03125 -2.59375 C 1.289062 -3.394531 0.796875 -4.378906 0.546875 -5.546875 C 0.253906 -6.941406 0.0820312 -8.34375 0.03125 -9.75 C -0.0078125 -11.15625 -0.0078125 -12.566406 0.03125 -13.984375 C 0.0820312 -15.410156 0.0976562 -16.828125 0.078125 -18.234375 C 0.078125 -18.554688 0.101562 -18.785156 0.15625 -18.921875 C 0.207031 -19.054688 0.390625 -19.148438 0.703125 -19.203125 C 0.898438 -19.242188 1.175781 -19.28125 1.53125 -19.3125 C 1.882812 -19.351562 2.25 -19.363281 2.625 -19.34375 C 3 -19.320312 3.3125 -19.25 3.5625 -19.125 C 3.820312 -19.007812 3.953125 -18.8125 3.953125 -18.53125 C 3.929688 -17.570312 3.921875 -16.597656 3.921875 -15.609375 C 3.921875 -14.628906 3.921875 -13.648438 3.921875 -12.671875 C 3.921875 -11.765625 3.90625 -10.835938 3.875 -9.890625 C 3.851562 -8.953125 3.941406 -8.046875 4.140625 -7.171875 C 4.304688 -6.390625 4.625 -5.691406 5.09375 -5.078125 C 5.570312 -4.460938 6.160156 -4.007812 6.859375 -3.71875 C 7.554688 -3.4375 8.320312 -3.390625 9.15625 -3.578125 C 9.925781 -3.753906 10.523438 -4.070312 10.953125 -4.53125 C 11.378906 -5 11.6875 -5.550781 11.875 -6.1875 C 12.070312 -6.820312 12.179688 -7.488281 12.203125 -8.1875 C 12.253906 -9.53125 12.273438 -10.882812 12.265625 -12.25 C 12.253906 -13.613281 12.257812 -14.96875 12.28125 -16.3125 C 12.289062 -16.707031 12.285156 -17.15625 12.265625 -17.65625 C 12.253906 -18.15625 12.378906 -18.566406 12.640625 -18.890625 C 12.847656 -19.191406 13.132812 -19.363281 13.5 -19.40625 C 13.863281 -19.445312 14.242188 -19.4375 14.640625 -19.375 C 15.035156 -19.3125 15.378906 -19.253906 15.671875 -19.203125 C 16.023438 -19.171875 16.238281 -19.003906 16.3125 -18.703125 C 16.394531 -18.410156 16.414062 -18.082031 16.375 -17.71875 C 16.34375 -17.363281 16.328125 -17.054688 16.328125 -16.796875 C 16.347656 -16.242188 16.363281 -15.679688 16.375 -15.109375 C 16.382812 -14.546875 16.394531 -13.984375 16.40625 -13.421875 C 16.425781 -12.359375 16.453125 -11.234375 16.484375 -10.046875 C 16.523438 -8.859375 16.445312 -7.695312 16.25 -6.5625 Z M 16.25 -6.5625 "/></g></g></g><g fill="#000000" fill-opacity="1"><g transform="translate(146.467644, 72.669675)"><g><path d="M 0.890625 -19.421875 C 0.910156 -19.421875 0.925781 -19.421875 0.9375 -19.421875 C 0.957031 -19.421875 0.976562 -19.421875 1 -19.421875 C 1.4375 -19.421875 1.863281 -19.414062 2.28125 -19.40625 C 2.695312 -19.394531 3.125 -19.382812 3.5625 -19.375 C 3.875 -19.351562 4.03125 -19.226562 4.03125 -19 C 4.03125 -18.769531 4.03125 -18.535156 4.03125 -18.296875 C 4.03125 -16.796875 4.03125 -15.285156 4.03125 -13.765625 C 4.03125 -12.242188 4.03125 -10.734375 4.03125 -9.234375 C 4.03125 -8.523438 4.023438 -7.804688 4.015625 -7.078125 C 4.003906 -6.359375 4 -5.640625 4 -4.921875 C 4 -4.253906 4.035156 -3.582031 4.109375 -2.90625 C 4.191406 -2.238281 4.191406 -1.566406 4.109375 -0.890625 C 4.054688 -0.554688 3.941406 -0.34375 3.765625 -0.25 C 3.585938 -0.15625 3.335938 -0.0859375 3.015625 -0.046875 C 2.859375 -0.0351562 2.617188 -0.0234375 2.296875 -0.015625 C 1.972656 -0.00390625 1.632812 -0.0195312 1.28125 -0.0625 C 0.9375 -0.101562 0.632812 -0.191406 0.375 -0.328125 C 0.125 -0.460938 0 -0.648438 0 -0.890625 C 0 -3.816406 0.00390625 -6.742188 0.015625 -9.671875 C 0.0234375 -12.609375 0.0195312 -15.546875 0 -18.484375 C 0 -18.828125 0.0625 -19.0625 0.1875 -19.1875 C 0.320312 -19.320312 0.554688 -19.398438 0.890625 -19.421875 Z M 0.890625 -19.421875 "/></g></g></g><g fill="#000000" fill-opacity="1"><g transform="translate(153.269203, 72.669675)"><g><path d="M 14.921875 -16.140625 C 14.742188 -15.972656 14.5 -15.910156 14.1875 -15.953125 C 13.875 -15.992188 13.59375 -16.015625 13.34375 -16.015625 C 12.84375 -16.015625 12.335938 -16.015625 11.828125 -16.015625 C 11.328125 -16.015625 10.820312 -16.015625 10.3125 -16.015625 C 10.070312 -16.015625 9.898438 -15.929688 9.796875 -15.765625 C 9.703125 -15.597656 9.648438 -15.398438 9.640625 -15.171875 C 9.628906 -14.953125 9.625 -14.753906 9.625 -14.578125 C 9.625 -12.273438 9.625 -9.972656 9.625 -7.671875 C 9.625 -5.378906 9.632812 -3.082031 9.65625 -0.78125 C 9.65625 -0.5 9.582031 -0.316406 9.4375 -0.234375 C 9.289062 -0.148438 9.082031 -0.113281 8.8125 -0.125 C 8.539062 -0.144531 8.257812 -0.160156 7.96875 -0.171875 C 7.675781 -0.179688 7.382812 -0.175781 7.09375 -0.15625 C 6.90625 -0.15625 6.675781 -0.113281 6.40625 -0.03125 C 6.144531 0.0390625 5.929688 0 5.765625 -0.15625 C 5.617188 -0.289062 5.546875 -0.515625 5.546875 -0.828125 C 5.546875 -1.148438 5.546875 -1.398438 5.546875 -1.578125 C 5.546875 -2.859375 5.550781 -4.144531 5.5625 -5.4375 C 5.570312 -6.726562 5.578125 -8.015625 5.578125 -9.296875 C 5.578125 -9.953125 5.578125 -10.609375 5.578125 -11.265625 C 5.578125 -11.921875 5.566406 -12.570312 5.546875 -13.21875 C 5.546875 -13.394531 5.5625 -13.628906 5.59375 -13.921875 C 5.632812 -14.222656 5.648438 -14.523438 5.640625 -14.828125 C 5.628906 -15.128906 5.570312 -15.390625 5.46875 -15.609375 C 5.363281 -15.828125 5.171875 -15.9375 4.890625 -15.9375 C 4.191406 -15.9375 3.5 -15.929688 2.8125 -15.921875 C 2.125 -15.910156 1.429688 -15.898438 0.734375 -15.890625 C 0.648438 -15.890625 0.550781 -15.890625 0.4375 -15.890625 C 0.332031 -15.898438 0.25 -15.941406 0.1875 -16.015625 C 0.113281 -16.085938 0.0664062 -16.171875 0.046875 -16.265625 C 0.0351562 -16.359375 0.03125 -16.453125 0.03125 -16.546875 C 0.0078125 -16.941406 0 -17.335938 0 -17.734375 C 0 -18.128906 0 -18.515625 0 -18.890625 C 0 -18.960938 0.00390625 -19.03125 0.015625 -19.09375 C 0.0234375 -19.164062 0.0546875 -19.226562 0.109375 -19.28125 C 0.171875 -19.351562 0.242188 -19.398438 0.328125 -19.421875 C 0.421875 -19.441406 0.515625 -19.453125 0.609375 -19.453125 C 2.890625 -19.398438 5.160156 -19.375 7.421875 -19.375 C 9.691406 -19.375 11.960938 -19.390625 14.234375 -19.421875 C 14.359375 -19.421875 14.476562 -19.414062 14.59375 -19.40625 C 14.71875 -19.394531 14.828125 -19.347656 14.921875 -19.265625 C 15.003906 -19.171875 15.054688 -19.054688 15.078125 -18.921875 C 15.109375 -18.796875 15.132812 -18.675781 15.15625 -18.5625 C 15.15625 -18.34375 15.160156 -18.128906 15.171875 -17.921875 C 15.179688 -17.710938 15.1875 -17.503906 15.1875 -17.296875 C 15.195312 -17.117188 15.195312 -16.945312 15.1875 -16.78125 C 15.1875 -16.625 15.140625 -16.472656 15.046875 -16.328125 C 15.023438 -16.273438 14.984375 -16.210938 14.921875 -16.140625 Z M 14.921875 -16.140625 "/></g></g></g></g></g></g></g></g></g></mask><clipPath id="167a516464"><path d="M 0.539062 0.851562 L 224.066406 0.851562 L 224.066406 93.5 L 0.539062 93.5 Z M 0.539062 0.851562 " clip-rule="nonzero"/></clipPath><clipPath id="88377feb36"><rect x="0" width="230" y="0" height="94"/></clipPath><clipPath id="b0447d6ef3"><rect x="0" width="230" y="0" height="94"/></clipPath><clipPath id="fe7977c3f1"><rect x="0" width="361" y="0" height="157"/></clipPath></defs><g clip-path="url(#0e0d10684e)"><g transform="matrix(1, 0, 0, 1, 0, 0.000000000000011987)"><g clip-path="url(#fe7977c3f1)"><g clip-path="url(#bfd835a920)"><g transform="matrix(1, 0, 0, 1, 0, 0.000000000000011987)"><g clip-path="url(#47b9ecfd85)"><g clip-path="url(#a3ca8d67d1)"><g mask="url(#474aa1cc22)"><g transform="matrix(1, 0, 0, 1, 0, 0.000000000000011987)"><g clip-path="url(#62f4234b8f)"><g clip-path="url(#de89172031)"><path fill="url(#a7ac0e726d)" d="M 0.0390625 0 L 0.0390625 156.5 L 360.960938 156.5 L 360.960938 0 Z M 0.0390625 0 " fill-rule="nonzero"/></g></g></g></g></g></g></g></g><g clip-path="url(#f650013bc9)"><g clip-path="url(#a48d9c784c)"><g transform="matrix(1, 0, 0, 1, 292, 86)"><g clip-path="url(#41565968d7)"><g clip-path="url(#7b53184824)"><g clip-path="url(#5286906efa)"><path fill="url(#15ef78d93d)" d="M 0.902344 0.710938 L 0.902344 18.84375 L 19.039062 18.84375 L 19.039062 0.710938 Z M 0.902344 0.710938 " fill-rule="nonzero"/></g></g></g></g></g></g><g clip-path="url(#58a344a961)"><g transform="matrix(1, 0, 0, 1, 27, 63)"><g clip-path="url(#b0447d6ef3)"><g clip-path="url(#80dad2daee)"><g mask="url(#c2f0457abf)"><g transform="matrix(1, 0, 0, 1, 0, 0.000000000000014211)"><g clip-path="url(#88377feb36)"><g clip-path="url(#167a516464)"><path fill="url(#54bc16b9d3)" d="M 0.539062 0.851562 L 0.539062 93.5 L 224.066406 93.5 L 224.066406 0.851562 Z M 0.539062 0.851562 " fill-rule="nonzero"/></g></g></g></g></g></g></g></g></g></g></g></svg>