<svg xmlns="http://www.w3.org/2000/svg" width="18" height="14" viewBox="0 0 18 14" fill="none"><path fill-rule="evenodd" clip-rule="evenodd" d="M10.47 0.46995C10.6106 0.3295 10.8012 0.25061 11 0.25061C11.1988 0.25061 11.3894 0.3295 11.53 0.46995L17.53 6.46995C17.6705 6.61058 17.7493 6.8012 17.7493 6.99995C17.7493 7.1987 17.6705 7.38932 17.53 7.52995L11.53 13.53C11.4613 13.6036 11.3785 13.6627 11.2865 13.7037C11.1945 13.7447 11.0952 13.7668 10.9945 13.7685C10.8938 13.7703 10.7938 13.7518 10.7004 13.7141C10.607 13.6764 10.5222 13.6202 10.451 13.549C10.3797 13.4778 10.3236 13.3929 10.2859 13.2995C10.2482 13.2062 10.2296 13.1061 10.2314 13.0054C10.2332 12.9047 10.2552 12.8054 10.2962 12.7134C10.3372 12.6214 10.3963 12.5386 10.47 12.4699L15.19 7.74995H1C0.801088 7.74995 0.610322 7.67093 0.46967 7.53028C0.329018 7.38963 0.25 7.19886 0.25 6.99995C0.25 6.80104 0.329018 6.61027 0.46967 6.46962C0.610322 6.32897 0.801088 6.24995 1 6.24995H15.19L10.47 1.52995C10.3295 1.38933 10.2507 1.1987 10.2507 0.99995C10.2507 0.8012 10.3295 0.610576 10.47 0.46995Z" fill="#5092FF"></path></svg>