<svg xmlns="http://www.w3.org/2000/svg" width="30" height="30" viewBox="0 0 30 30" fill="none"><path d="M20.0376 12.5374C20.1297 12.4516 20.2035 12.3481 20.2548 12.2331C20.306 12.1181 20.3336 11.994 20.3358 11.8681C20.338 11.7422 20.3149 11.6172 20.2677 11.5005C20.2206 11.3837 20.1504 11.2777 20.0613 11.1887C19.9723 11.0996 19.8663 11.0294 19.7495 10.9823C19.6328 10.9351 19.5078 10.912 19.3819 10.9142C19.256 10.9164 19.1319 10.944 19.0169 10.9952C18.9019 11.0465 18.7984 11.1203 18.7126 11.2124L13.1251 16.7999L11.2876 14.9624C11.1098 14.7968 10.8748 14.7067 10.6319 14.711C10.389 14.7153 10.1573 14.8137 9.98552 14.9854C9.81376 15.1572 9.71537 15.3889 9.71108 15.6318C9.7068 15.8747 9.79695 16.1097 9.96255 16.2874L12.4626 18.7874C12.6383 18.963 12.8766 19.0616 13.1251 19.0616C13.3735 19.0616 13.6118 18.963 13.7876 18.7874L20.0376 12.5374Z" fill="#A05EFE"></path><path fill-rule="evenodd" clip-rule="evenodd" d="M15 1.5625C7.57875 1.5625 1.5625 7.57875 1.5625 15C1.5625 22.4212 7.57875 28.4375 15 28.4375C22.4212 28.4375 28.4375 22.4212 28.4375 15C28.4375 7.57875 22.4212 1.5625 15 1.5625ZM3.4375 15C3.4375 11.9334 4.65569 8.99247 6.82408 6.82408C8.99247 4.65569 11.9334 3.4375 15 3.4375C18.0666 3.4375 21.0075 4.65569 23.1759 6.82408C25.3443 8.99247 26.5625 11.9334 26.5625 15C26.5625 18.0666 25.3443 21.0075 23.1759 23.1759C21.0075 25.3443 18.0666 26.5625 15 26.5625C11.9334 26.5625 8.99247 25.3443 6.82408 23.1759C4.65569 21.0075 3.4375 18.0666 3.4375 15Z" fill="#A05EFE"></path></svg>