<svg xmlns="http://www.w3.org/2000/svg" width="27" height="28" viewBox="0 0 27 28" fill="none"><path fill-rule="evenodd" clip-rule="evenodd" d="M13.5 9.3125C12.2568 9.3125 11.0645 9.80636 10.1854 10.6854C9.30636 11.5645 8.8125 12.7568 8.8125 14C8.8125 15.2432 9.30636 16.4355 10.1854 17.3146C11.0645 18.1936 12.2568 18.6875 13.5 18.6875C14.7432 18.6875 15.9355 18.1936 16.8146 17.3146C17.6936 16.4355 18.1875 15.2432 18.1875 14C18.1875 12.7568 17.6936 11.5645 16.8146 10.6854C15.9355 9.80636 14.7432 9.3125 13.5 9.3125ZM10.6875 14C10.6875 13.2541 10.9838 12.5387 11.5113 12.0113C12.0387 11.4838 12.7541 11.1875 13.5 11.1875C14.2459 11.1875 14.9613 11.4838 15.4887 12.0113C16.0162 12.5387 16.3125 13.2541 16.3125 14C16.3125 14.7459 16.0162 15.4613 15.4887 15.9887C14.9613 16.5162 14.2459 16.8125 13.5 16.8125C12.7541 16.8125 12.0387 16.5162 11.5113 15.9887C10.9838 15.4613 10.6875 14.7459 10.6875 14Z" fill="#F268A8"></path><path fill-rule="evenodd" clip-rule="evenodd" d="M13.4692 0.5625C12.913 0.5625 12.4492 0.5625 12.0692 0.5875C11.6807 0.603145 11.2976 0.683411 10.9355 0.825C10.5183 0.997612 10.1392 1.25072 9.81981 1.56986C9.50045 1.889 9.24709 2.26793 9.0742 2.685C8.89295 3.1225 8.8442 3.585 8.8242 4.0875C8.82197 4.27123 8.77322 4.4514 8.68251 4.61118C8.59179 4.77097 8.46207 4.90517 8.30545 5.00125C8.14398 5.08915 7.96286 5.13468 7.77902 5.13359C7.59518 5.1325 7.41461 5.08482 7.2542 4.995C6.8092 4.76 6.3842 4.57125 5.9142 4.50875C5.46663 4.44988 5.01185 4.47974 4.57582 4.59663C4.13979 4.71352 3.73106 4.91515 3.37295 5.19C3.06969 5.4331 2.80904 5.72501 2.6017 6.05375C2.3892 6.37125 2.1567 6.7725 1.8792 7.25375L1.84795 7.30875C1.5692 7.79 1.33795 8.19125 1.17045 8.53375C0.995451 8.89125 0.857951 9.24375 0.807951 9.63375C0.688701 10.5375 0.9333 11.4516 1.48795 12.175C1.7767 12.5512 2.15295 12.825 2.57795 13.0925C2.73624 13.1864 2.86813 13.3188 2.96126 13.4776C3.05439 13.6363 3.10572 13.816 3.11045 14C3.10572 14.184 3.05439 14.3637 2.96126 14.5224C2.86813 14.6812 2.73624 14.8136 2.57795 14.9075C2.15295 15.175 1.77795 15.4488 1.48795 15.825C1.2131 16.1831 1.01147 16.5918 0.89458 17.0279C0.777691 17.4639 0.747829 17.9187 0.806701 18.3662C0.857951 18.7563 0.994201 19.1087 1.1692 19.4662C1.33795 19.8087 1.5692 20.21 1.84795 20.6912L1.8792 20.7463C2.1567 21.2275 2.3892 21.6287 2.6017 21.9463C2.82295 22.275 3.06045 22.5713 3.37295 22.8088C3.73096 23.0838 4.13966 23.2857 4.57569 23.4028C5.01172 23.5199 5.46655 23.5499 5.9142 23.4913C6.3842 23.4288 6.8092 23.2413 7.2542 23.005C7.41446 22.9154 7.5948 22.8678 7.7784 22.8668C7.962 22.8657 8.14289 22.9111 8.3042 22.9987C8.46209 23.0936 8.59296 23.2275 8.68423 23.3875C8.77551 23.5475 8.82414 23.7283 8.82545 23.9125C8.8442 24.415 8.89295 24.8775 9.07545 25.315C9.24806 25.7322 9.50117 26.1113 9.82031 26.4306C10.1395 26.75 10.5184 27.0034 10.9355 27.1763C11.298 27.3263 11.673 27.385 12.0692 27.4113C12.4492 27.4375 12.913 27.4375 13.4692 27.4375H13.5317C14.088 27.4375 14.5517 27.4375 14.9317 27.4125C15.3292 27.385 15.703 27.3263 16.0655 27.175C16.4826 27.0024 16.8617 26.7493 17.1811 26.4301C17.5005 26.111 17.7538 25.7321 17.9267 25.315C18.108 24.8775 18.1567 24.415 18.1767 23.9125C18.1787 23.7286 18.2274 23.5481 18.3181 23.3881C18.4088 23.2281 18.5387 23.0937 18.6955 22.9975C18.857 22.9098 19.0382 22.8645 19.222 22.8658C19.4059 22.8671 19.5864 22.915 19.7467 23.005C20.1917 23.24 20.6167 23.4287 21.0867 23.49C21.9904 23.6092 22.9045 23.3647 23.628 22.81C23.9405 22.57 24.178 22.275 24.3992 21.9463C24.6117 21.6287 24.8442 21.2275 25.1217 20.7463L25.153 20.6912C25.4317 20.21 25.663 19.8087 25.8305 19.4662C26.0055 19.1087 26.143 18.755 26.193 18.3662C26.3122 17.4625 26.0676 16.5484 25.513 15.825C25.2242 15.4488 24.848 15.175 24.423 14.9075C24.2647 14.8136 24.1328 14.6812 24.0396 14.5224C23.9465 14.3637 23.8952 14.184 23.8905 14C23.8905 13.6525 24.0805 13.3075 24.423 13.0925C24.848 12.825 25.223 12.5512 25.513 12.175C25.7878 11.8169 25.9894 11.4082 26.1063 10.9721C26.2232 10.5361 26.2531 10.0813 26.1942 9.63375C26.1353 9.2495 26.0128 8.87774 25.8317 8.53375C25.6182 8.11847 25.3919 7.70994 25.153 7.30875L25.1217 7.25375C24.8934 6.84635 24.6524 6.44616 24.3992 6.05375C24.1917 5.72545 23.9311 5.43397 23.628 5.19125C23.2699 4.91618 22.8612 4.71432 22.4252 4.59722C21.9892 4.48012 21.5344 4.45005 21.0867 4.50875C20.6167 4.57125 20.1917 4.75875 19.7467 4.995C19.5864 5.08459 19.4061 5.13215 19.2225 5.13325C19.0389 5.13434 18.858 5.08893 18.6967 5.00125C18.5396 4.90547 18.4094 4.7714 18.3182 4.6116C18.2271 4.45179 18.1779 4.27146 18.1755 4.0875C18.1567 3.585 18.108 3.1225 17.9255 2.685C17.7528 2.26781 17.4997 1.88871 17.1806 1.56936C16.8615 1.25 16.4825 0.996642 16.0655 0.82375C15.703 0.67375 15.328 0.615 14.9317 0.58875C14.5517 0.5625 14.088 0.5625 13.5317 0.5625H13.4692ZM11.653 2.55625C11.7492 2.51625 11.8955 2.48 12.1967 2.45875C12.5055 2.4375 12.9055 2.4375 13.5005 2.4375C14.0955 2.4375 14.4955 2.4375 14.8042 2.45875C15.1055 2.48 15.2517 2.51625 15.348 2.55625C15.7317 2.715 16.0355 3.01875 16.1942 3.4025C16.2442 3.5225 16.2855 3.71125 16.3017 4.1575C16.3392 5.1475 16.8505 6.10125 17.758 6.625C18.6655 7.14875 19.7467 7.115 20.623 6.6525C21.018 6.44375 21.2017 6.385 21.3317 6.36875C21.7424 6.31448 22.1579 6.42554 22.4867 6.6775C22.5692 6.74125 22.6742 6.85 22.843 7.1C23.0167 7.3575 23.2167 7.70375 23.5142 8.21875C23.8117 8.73375 24.0105 9.08125 24.1467 9.35875C24.2805 9.63 24.3217 9.775 24.3342 9.87875C24.3885 10.2895 24.2774 10.7049 24.0255 11.0337C23.9455 11.1375 23.803 11.2675 23.4255 11.505C22.5855 12.0325 22.0155 12.9525 22.0155 14C22.0155 15.0475 22.5855 15.9675 23.4255 16.495C23.803 16.7325 23.9455 16.8625 24.0255 16.9662C24.278 17.295 24.388 17.71 24.3342 18.1213C24.3217 18.225 24.2792 18.3713 24.1467 18.6413C24.0105 18.92 23.8117 19.2663 23.5142 19.7812C23.2167 20.2962 23.0155 20.6425 22.843 20.9C22.6742 21.15 22.5692 21.2587 22.4867 21.3225C22.1579 21.5745 21.7424 21.6855 21.3317 21.6312C21.2017 21.615 21.0192 21.5562 20.623 21.3475C19.748 20.885 18.6655 20.85 17.758 21.3738C16.8505 21.8975 16.3392 22.8525 16.3017 23.8425C16.2855 24.2888 16.2442 24.4775 16.1942 24.5975C16.1157 24.7872 16.0005 24.9597 15.8553 25.1049C15.7101 25.2501 15.5377 25.3652 15.348 25.4438C15.2517 25.4838 15.1055 25.52 14.8042 25.5413C14.4955 25.5625 14.0955 25.5625 13.5005 25.5625C12.9055 25.5625 12.5055 25.5625 12.1967 25.5413C11.8955 25.52 11.7492 25.4838 11.653 25.4438C11.4632 25.3652 11.2908 25.2501 11.1456 25.1049C11.0004 24.9597 10.8852 24.7872 10.8067 24.5975C10.7567 24.4775 10.7155 24.2888 10.6992 23.8425C10.6617 22.8525 10.1505 21.8988 9.24295 21.375C8.33545 20.8512 7.2542 20.885 6.37795 21.3475C5.98295 21.5562 5.7992 21.615 5.6692 21.6312C5.25849 21.6855 4.84305 21.5745 4.5142 21.3225C4.4317 21.2587 4.3267 21.15 4.15795 20.9C3.9228 20.534 3.69895 20.1609 3.4867 19.7812C3.1892 19.2663 2.99045 18.9188 2.8542 18.6413C2.72045 18.37 2.6792 18.225 2.6667 18.1213C2.61243 17.7105 2.72349 17.2951 2.97545 16.9662C3.05545 16.8625 3.19795 16.7325 3.57545 16.495C4.41545 15.9675 4.98545 15.0475 4.98545 14C4.98545 12.9525 4.41545 12.0325 3.57545 11.505C3.19795 11.2675 3.05545 11.1375 2.97545 11.0337C2.72349 10.7049 2.61243 10.2895 2.6667 9.87875C2.6792 9.775 2.7217 9.62875 2.8542 9.35875C2.99045 9.08 3.1892 8.73375 3.4867 8.21875C3.7842 7.70375 3.98545 7.3575 4.15795 7.1C4.3267 6.85 4.4317 6.74125 4.5142 6.6775C4.84305 6.42554 5.25849 6.31448 5.6692 6.36875C5.7992 6.385 5.9817 6.44375 6.37795 6.6525C7.25295 7.115 8.33545 7.15 9.24295 6.625C10.1505 6.10125 10.6617 5.1475 10.6992 4.1575C10.7155 3.71125 10.7567 3.5225 10.8067 3.4025C10.9655 3.01875 11.2692 2.715 11.653 2.55625Z" fill="#F268A8"></path></svg>