<svg xmlns="http://www.w3.org/2000/svg" width="20" height="21" viewBox="0 0 20 21" fill="none"><path d="M7.1071 3.948C7.7051 2.198 10.1231 2.145 10.8321 3.789L10.8921 3.949L11.6991 6.309C11.884 6.85023 12.1829 7.34551 12.5755 7.76142C12.9682 8.17734 13.4454 8.50421 13.9751 8.72L14.1921 8.801L16.5521 9.607C18.3021 10.205 18.3551 12.623 16.7121 13.332L16.5521 13.392L14.1921 14.199C13.6507 14.3838 13.1552 14.6826 12.7391 15.0753C12.323 15.4679 11.996 15.9452 11.7801 16.475L11.6991 16.691L10.8931 19.052C10.2951 20.802 7.8771 20.855 7.1691 19.212L7.1071 19.052L6.3011 16.692C6.11628 16.1506 5.81748 15.6551 5.42485 15.239C5.03222 14.8229 4.5549 14.4959 4.0251 14.28L3.8091 14.199L1.4491 13.393C-0.301896 12.795 -0.354896 10.377 1.2891 9.669L1.4491 9.607L3.8091 8.801C4.35034 8.61606 4.84562 8.31719 5.26153 7.92457C5.67744 7.53195 6.00432 7.05469 6.2201 6.525L6.3011 6.309L7.1071 3.948ZM17.0001 0.5C17.1872 0.5 17.3705 0.552478 17.5293 0.651472C17.688 0.750465 17.8158 0.892003 17.8981 1.06L17.9461 1.177L18.2961 2.203L19.3231 2.553C19.5106 2.6167 19.6749 2.73462 19.7953 2.89182C19.9157 3.04902 19.9867 3.23842 19.9994 3.43602C20.012 3.63362 19.9657 3.83053 19.8663 4.00179C19.7669 4.17304 19.6189 4.31094 19.4411 4.398L19.3231 4.446L18.2971 4.796L17.9471 5.823C17.8833 6.01043 17.7653 6.1747 17.608 6.29499C17.4508 6.41529 17.2613 6.48619 17.0637 6.49872C16.8661 6.51125 16.6693 6.46484 16.4981 6.36538C16.3269 6.26591 16.1891 6.11787 16.1021 5.94L16.0541 5.823L15.7041 4.797L14.6771 4.447C14.4896 4.3833 14.3253 4.26538 14.2049 4.10819C14.0845 3.95099 14.0135 3.76158 14.0008 3.56398C13.9882 3.36638 14.0345 3.16947 14.1339 2.99821C14.2333 2.82696 14.3813 2.68906 14.5591 2.602L14.6771 2.554L15.7031 2.204L16.0531 1.177C16.1205 0.979426 16.2481 0.807909 16.4179 0.686499C16.5878 0.565089 16.7913 0.499875 17.0001 0.5Z" fill="#4D5FF8"></path></svg>