<svg xmlns="http://www.w3.org/2000/svg" width="16" height="9" viewBox="0 0 16 9" fill="none"><path fill-rule="evenodd" clip-rule="evenodd" d="M0.429442 1.01193C0.49357 0.937112 0.571814 0.87566 0.659703 0.831092C0.747591 0.786523 0.843401 0.759711 0.941657 0.752188C1.03991 0.744666 1.13869 0.756581 1.23234 0.787251C1.32599 0.817921 1.41267 0.866746 1.48744 0.930935L7.99944 6.51193L14.5114 0.930935C14.6633 0.809064 14.8565 0.751007 15.0504 0.769038C15.2442 0.787069 15.4235 0.879774 15.5502 1.02756C15.677 1.17534 15.7413 1.36662 15.7296 1.56095C15.7179 1.75529 15.631 1.93745 15.4874 2.06894L8.48744 8.06893C8.35152 8.1854 8.17843 8.24941 7.99944 8.24941C7.82045 8.24941 7.64736 8.1854 7.51144 8.06893L0.511442 2.06894C0.360627 1.93945 0.267382 1.75539 0.252194 1.5572C0.237006 1.359 0.301118 1.16289 0.430443 1.01193" fill="#7B8698"></path></svg>