<svg xmlns="http://www.w3.org/2000/svg" width="22" height="23" viewBox="0 0 22 23" fill="none"><path d="M18.3752 7.99998C18.9858 8.00012 19.5839 8.17225 20.1012 8.49664C20.6185 8.82103 21.0339 9.28457 21.2999 9.83415C21.5659 10.3837 21.6716 10.9971 21.6051 11.6041C21.5386 12.211 21.3025 12.7869 20.9238 13.2658C20.545 13.7448 20.0391 14.1073 19.4638 14.312C18.8886 14.5166 18.2673 14.5551 17.6712 14.423C17.0751 14.2909 16.5283 13.9935 16.0934 13.565C15.6585 13.1364 15.3531 12.5941 15.2122 12H12.2122C12.1365 12.485 11.952 12.9466 11.6724 13.3502C11.3929 13.7538 11.0256 14.0888 10.5982 14.3302C10.1707 14.5716 9.69413 14.7131 9.20419 14.7441C8.71424 14.775 8.22365 14.6946 7.7692 14.509L6.2142 17.26C6.82412 17.7722 7.2247 18.4906 7.33987 19.2788C7.45504 20.0669 7.27678 20.8699 6.83895 21.5352C6.40111 22.2006 5.73419 22.682 4.9648 22.8881C4.19542 23.0941 3.37716 23.0105 2.66539 22.653C1.95362 22.2955 1.3979 21.6891 1.10376 20.9489C0.809616 20.2087 0.797531 19.3863 1.0698 18.6378C1.34206 17.8892 1.87972 17.2668 2.58068 16.8885C3.28164 16.5103 4.09709 16.4026 4.8722 16.586L6.5442 13.629C6.0312 13.0384 5.74918 12.2822 5.7502 11.5C5.7502 10.593 6.1212 9.77298 6.7202 9.18398L5.1172 6.34598C4.62975 6.50154 4.11249 6.53993 3.60743 6.45802C3.10237 6.37611 2.62375 6.17621 2.21045 5.87457C1.79716 5.57293 1.46085 5.17805 1.22884 4.72202C0.996833 4.26598 0.87567 3.76165 0.875196 3.24998C0.875198 2.7142 1.00766 2.18673 1.26079 1.71452C1.51393 1.24231 1.87988 0.840001 2.32607 0.543406C2.77227 0.24681 3.28487 0.0651273 3.81826 0.0145271C4.35164 -0.0360731 4.88927 0.0459791 5.38328 0.253381C5.87729 0.460783 6.31236 0.7871 6.64977 1.20329C6.98718 1.61948 7.21647 2.11263 7.31722 2.63886C7.41797 3.16508 7.38706 3.70805 7.22724 4.21944C7.06743 4.73083 6.78366 5.19477 6.4012 5.56998L8.0042 8.40598C8.82412 8.14186 9.71536 8.21406 10.4821 8.6067C11.2488 8.99934 11.8283 9.68032 12.0932 10.5H15.2122C15.381 9.78807 15.7852 9.15395 16.3592 8.70025C16.9332 8.24655 17.6435 7.99982 18.3752 7.99998ZM9.0002 9.74998C8.76693 9.74434 8.53489 9.7854 8.31773 9.87076C8.10057 9.95611 7.90267 10.084 7.73567 10.247C7.56867 10.4099 7.43595 10.6047 7.3453 10.8197C7.25466 11.0347 7.20794 11.2656 7.20787 11.499C7.2078 11.7323 7.2544 11.9633 7.34492 12.1784C7.43543 12.3934 7.56805 12.5882 7.73495 12.7513C7.90186 12.9143 8.09968 13.0423 8.3168 13.1278C8.53391 13.2133 8.76593 13.2545 8.9992 13.249C9.45595 13.2382 9.89038 13.0492 10.2097 12.7224C10.5289 12.3956 10.7077 11.9569 10.7079 11.5C10.708 11.0431 10.5294 10.6043 10.2104 10.2773C9.89127 9.95028 9.45695 9.76103 9.0002 9.74998ZM4.1252 1.49998C3.66107 1.49998 3.21595 1.68436 2.88776 2.01255C2.55957 2.34074 2.3752 2.78586 2.3752 3.24998C2.3752 3.71411 2.55957 4.15923 2.88776 4.48742C3.21595 4.81561 3.66107 4.99998 4.1252 4.99998C4.58932 4.99998 5.03444 4.81561 5.36263 4.48742C5.69082 4.15923 5.8752 3.71411 5.8752 3.24998C5.8752 2.78586 5.69082 2.34074 5.36263 2.01255C5.03444 1.68436 4.58932 1.49998 4.1252 1.49998ZM16.6252 11.25C16.6252 11.7141 16.8096 12.1592 17.1378 12.4874C17.4659 12.8156 17.9111 13 18.3752 13C18.8393 13 19.2844 12.8156 19.6126 12.4874C19.9408 12.1592 20.1252 11.7141 20.1252 11.25C20.1252 10.7859 19.9408 10.3407 19.6126 10.0125C19.2844 9.68436 18.8393 9.49998 18.3752 9.49998C17.9111 9.49998 17.4659 9.68436 17.1378 10.0125C16.8096 10.3407 16.6252 10.7859 16.6252 11.25ZM2.3752 19.75C2.37533 20.2142 2.55988 20.6594 2.88826 20.9876C3.21664 21.3158 3.66193 21.5001 4.1262 21.5C4.59046 21.4999 5.03565 21.3153 5.36384 20.9869C5.69203 20.6585 5.87633 20.2132 5.8762 19.749C5.87613 19.5191 5.83079 19.2915 5.74276 19.0791C5.65472 18.8668 5.52573 18.6738 5.36313 18.5113C5.20054 18.3488 5.00753 18.22 4.79512 18.132C4.58272 18.0441 4.35507 17.9989 4.1252 17.999C3.89532 17.9991 3.6677 18.0444 3.45535 18.1324C3.24299 18.2205 3.05005 18.3495 2.88755 18.512C2.72505 18.6746 2.59616 18.8677 2.50825 19.0801C2.42034 19.2925 2.37513 19.5201 2.3752 19.75Z" fill="#F268A8"></path></svg>