<svg xmlns="http://www.w3.org/2000/svg" width="24" height="25" viewBox="0 0 24 25" fill="none"><path fill-rule="evenodd" clip-rule="evenodd" d="M12 1.75C10.7402 1.75 9.53204 2.25044 8.64124 3.14124C7.75045 4.03204 7.25 5.24022 7.25 6.5C7.25 7.75978 7.75045 8.96796 8.64124 9.85876C9.53204 10.7496 10.7402 11.25 12 11.25C13.2598 11.25 14.468 10.7496 15.3588 9.85876C16.2496 8.96796 16.75 7.75978 16.75 6.5C16.75 5.24022 16.2496 4.03204 15.3588 3.14124C14.468 2.25044 13.2598 1.75 12 1.75ZM8.75 6.5C8.75 5.63805 9.09241 4.8114 9.7019 4.2019C10.3114 3.59241 11.138 3.25 12 3.25C12.862 3.25 13.6886 3.59241 14.2981 4.2019C14.9076 4.8114 15.25 5.63805 15.25 6.5C15.25 7.36195 14.9076 8.1886 14.2981 8.7981C13.6886 9.40759 12.862 9.75 12 9.75C11.138 9.75 10.3114 9.40759 9.7019 8.7981C9.09241 8.1886 8.75 7.36195 8.75 6.5Z" fill="#4D5FF8"></path><path d="M18 3.75C17.8011 3.75 17.6103 3.82902 17.4697 3.96967C17.329 4.11032 17.25 4.30109 17.25 4.5C17.25 4.69891 17.329 4.88968 17.4697 5.03033C17.6103 5.17098 17.8011 5.25 18 5.25C19.377 5.25 20.25 6.156 20.25 7C20.25 7.844 19.377 8.75 18 8.75C17.8011 8.75 17.6103 8.82902 17.4697 8.96967C17.329 9.11032 17.25 9.30109 17.25 9.5C17.25 9.69891 17.329 9.88968 17.4697 10.0303C17.6103 10.171 17.8011 10.25 18 10.25C19.937 10.25 21.75 8.917 21.75 7C21.75 5.083 19.937 3.75 18 3.75ZM6.75 4.5C6.75 4.30109 6.67098 4.11032 6.53033 3.96967C6.38968 3.82902 6.19891 3.75 6 3.75C4.063 3.75 2.25 5.083 2.25 7C2.25 8.917 4.063 10.25 6 10.25C6.19891 10.25 6.38968 10.171 6.53033 10.0303C6.67098 9.88968 6.75 9.69891 6.75 9.5C6.75 9.30109 6.67098 9.11032 6.53033 8.96967C6.38968 8.82902 6.19891 8.75 6 8.75C4.624 8.75 3.75 7.844 3.75 7C3.75 6.156 4.624 5.25 6 5.25C6.19891 5.25 6.38968 5.17098 6.53033 5.03033C6.67098 4.88968 6.75 4.69891 6.75 4.5Z" fill="#4D5FF8"></path><path fill-rule="evenodd" clip-rule="evenodd" d="M12 12.75C10.216 12.75 8.566 13.23 7.341 14.047C6.121 14.861 5.25 16.067 5.25 17.5C5.25 18.933 6.121 20.14 7.341 20.953C8.566 21.769 10.216 22.25 12 22.25C13.784 22.25 15.434 21.77 16.659 20.953C17.879 20.139 18.75 18.933 18.75 17.5C18.75 16.067 17.878 14.86 16.659 14.047C15.434 13.231 13.784 12.75 12 12.75ZM6.75 17.5C6.75 16.724 7.222 15.93 8.173 15.296C9.12 14.665 10.471 14.25 12 14.25C13.53 14.25 14.88 14.665 15.827 15.296C16.778 15.93 17.25 16.724 17.25 17.5C17.25 18.276 16.778 19.07 15.827 19.704C14.88 20.335 13.529 20.75 12 20.75C10.47 20.75 9.12 20.335 8.173 19.704C7.222 19.07 6.75 18.276 6.75 17.5Z" fill="#4D5FF8"></path><path d="M19.267 14.34C19.288 14.2437 19.3278 14.1524 19.3841 14.0714C19.4404 13.9904 19.5121 13.9213 19.5951 13.8681C19.6782 13.8149 19.7709 13.7785 19.868 13.7612C19.9651 13.7439 20.0647 13.7458 20.161 13.767C21.122 13.978 21.989 14.359 22.633 14.886C23.276 15.412 23.75 16.136 23.75 17C23.75 17.865 23.276 18.588 22.633 19.114C21.989 19.641 21.123 20.022 20.161 20.233C20.0647 20.2542 19.9653 20.2561 19.8682 20.2388C19.7712 20.2215 19.6786 20.1853 19.5955 20.1322C19.5125 20.0791 19.4408 20.0101 19.3844 19.9293C19.328 19.8484 19.2881 19.7573 19.267 19.661C19.2459 19.5648 19.2439 19.4653 19.2612 19.3683C19.2785 19.2712 19.3147 19.1786 19.3678 19.0956C19.421 19.0125 19.4899 18.9408 19.5707 18.8844C19.6516 18.8281 19.7427 18.7882 19.839 18.767C20.632 18.594 21.265 18.295 21.683 17.953C22.101 17.611 22.25 17.276 22.25 17C22.25 16.724 22.101 16.39 21.683 16.047C21.265 15.704 20.632 15.407 19.839 15.233C19.7427 15.2119 19.6515 15.1721 19.5707 15.1157C19.4898 15.0594 19.4208 14.9876 19.3677 14.9046C19.3146 14.8216 19.2783 14.7289 19.261 14.6318C19.2438 14.5348 19.2458 14.4353 19.267 14.339M3.84 13.767C4.0344 13.7246 4.2377 13.7611 4.40517 13.8686C4.57264 13.976 4.69057 14.1456 4.733 14.34C4.77543 14.5344 4.7389 14.7377 4.63145 14.9052C4.52399 15.0727 4.3544 15.1906 4.16 15.233C3.368 15.406 2.735 15.705 2.317 16.047C1.899 16.389 1.75 16.724 1.75 17C1.75 17.276 1.899 17.61 2.317 17.953C2.735 18.296 3.368 18.593 4.161 18.767C4.3554 18.8097 4.52488 18.9279 4.63215 19.0956C4.73942 19.2632 4.7757 19.4666 4.733 19.661C4.6903 19.8554 4.57212 20.0249 4.40447 20.1322C4.23681 20.2395 4.0334 20.2757 3.839 20.233C2.877 20.022 2.011 19.641 1.367 19.114C0.724 18.588 0.25 17.864 0.25 17C0.25 16.135 0.724 15.412 1.367 14.886C2.011 14.359 2.878 13.978 3.84 13.767Z" fill="#4D5FF8"></path></svg>