<svg xmlns="http://www.w3.org/2000/svg" xmlns:xlink="http://www.w3.org/1999/xlink" width="1344" zoomAndPan="magnify" viewBox="0 0 1008 1295.99994" height="1728" preserveAspectRatio="xMidYMid meet" version="1.0"><defs><g/><clipPath id="357edb9e98"><path d="M 730 590 L 781 590 L 781 643 L 730 643 Z M 730 590 " clip-rule="nonzero"/></clipPath><clipPath id="6b8a8fd93d"><path d="M 720.304688 597.980469 L 756.800781 566.804688 L 803.566406 621.550781 L 767.070312 652.726562 Z M 720.304688 597.980469 " clip-rule="nonzero"/></clipPath><clipPath id="5084d8b503"><path d="M 720.304688 597.980469 L 756.800781 566.804688 L 803.566406 621.550781 L 767.070312 652.726562 Z M 720.304688 597.980469 " clip-rule="nonzero"/></clipPath></defs><g clip-path="url(#357edb9e98)"><g clip-path="url(#6b8a8fd93d)"><g clip-path="url(#5084d8b503)"><path fill="#8c52ff" d="M 780.378906 594.476562 L 737.65625 590.902344 C 729.402344 590.210938 727.375 606.257812 737.160156 606.90625 L 763.761719 608.671875 L 760.679688 635.386719 C 759.742188 643.523438 775.621094 645.007812 776.402344 636.730469 Z M 780.378906 594.476562 " fill-opacity="1" fill-rule="nonzero"/></g></g></g><g fill="#8c52ff" fill-opacity="1"><g transform="translate(220.911625, 694.164591)"><g><path d="M 8.5 -2.09375 L 8.5 -71.703125 C 8.5 -73.097656 9.195312 -73.796875 10.59375 -73.796875 L 17.796875 -73.796875 C 18.597656 -73.796875 19.148438 -73.644531 19.453125 -73.34375 C 19.753906 -73.050781 19.90625 -72.503906 19.90625 -71.703125 L 19.90625 -2.09375 C 19.90625 -1.300781 19.769531 -0.753906 19.5 -0.453125 C 19.226562 -0.148438 18.660156 0 17.796875 0 L 10.59375 0 C 9.195312 0 8.5 -0.695312 8.5 -2.09375 Z M 53.40625 -28.90625 L 53.40625 -2.09375 C 53.40625 -1.300781 53.269531 -0.753906 53 -0.453125 C 52.726562 -0.148438 52.160156 0 51.296875 0 L 44.09375 0 C 42.695312 0 42 -0.695312 42 -2.09375 L 42 -26.40625 C 42 -31.738281 41.066406 -35.632812 39.203125 -38.09375 C 37.335938 -40.5625 34.632812 -41.796875 31.09375 -41.796875 C 29.03125 -41.796875 27.179688 -41.242188 25.546875 -40.140625 C 23.910156 -39.046875 22.628906 -37.597656 21.703125 -35.796875 L 21.703125 -46.59375 C 23.234375 -48.257812 25.066406 -49.578125 27.203125 -50.546875 C 29.335938 -51.515625 31.601562 -52 34 -52 C 37.664062 -52 40.960938 -51.265625 43.890625 -49.796875 C 46.828125 -48.328125 49.144531 -45.910156 50.84375 -42.546875 C 52.550781 -39.179688 53.40625 -34.632812 53.40625 -28.90625 Z M 53.40625 -28.90625 "/></g></g></g><g fill="#8c52ff" fill-opacity="1"><g transform="translate(277.10932, 694.164591)"><g><path d="M 20.09375 -47.796875 L 20.09375 -2.09375 C 20.03125 -1.300781 19.863281 -0.753906 19.59375 -0.453125 C 19.332031 -0.148438 18.800781 0 18 0 L 10.796875 0 C 9.992188 0 9.441406 -0.148438 9.140625 -0.453125 C 8.847656 -0.753906 8.703125 -1.300781 8.703125 -2.09375 L 8.703125 -48.796875 C 8.703125 -49.597656 8.847656 -50.148438 9.140625 -50.453125 C 9.441406 -50.753906 9.992188 -50.90625 10.796875 -50.90625 L 14.40625 -50.90625 C 15.9375 -50.90625 17 -50.703125 17.59375 -50.296875 C 18.195312 -49.898438 19.03125 -49.066406 20.09375 -47.796875 Z M 21.796875 -32.796875 L 21.796875 -45.296875 C 25.328125 -49.765625 30.796875 -52 38.203125 -52 C 39.203125 -52 39.816406 -51.847656 40.046875 -51.546875 C 40.285156 -51.242188 40.335938 -50.726562 40.203125 -50 L 39.09375 -42.703125 C 38.96875 -41.898438 38.738281 -41.363281 38.40625 -41.09375 C 38.070312 -40.832031 37.503906 -40.703125 36.703125 -40.703125 C 33.628906 -40.703125 30.757812 -40.097656 28.09375 -38.890625 C 25.425781 -37.691406 23.328125 -35.660156 21.796875 -32.796875 Z M 21.796875 -32.796875 "/></g></g></g><g fill="#373643" fill-opacity="1"><g transform="translate(315.212398, 694.164591)"><g><path d="M 26 1.09375 C 22.332031 1.09375 19.03125 0.363281 16.09375 -1.09375 C 13.164062 -2.5625 10.847656 -4.976562 9.140625 -8.34375 C 7.441406 -11.71875 6.59375 -16.269531 6.59375 -22 L 6.59375 -48.796875 C 6.59375 -49.597656 6.742188 -50.148438 7.046875 -50.453125 C 7.347656 -50.753906 7.898438 -50.90625 8.703125 -50.90625 L 15.90625 -50.90625 C 16.695312 -50.90625 17.242188 -50.753906 17.546875 -50.453125 C 17.847656 -50.148438 18 -49.597656 18 -48.796875 L 18 -24.40625 C 18 -19.132812 18.945312 -15.265625 20.84375 -12.796875 C 22.75 -10.328125 25.4375 -9.09375 28.90625 -9.09375 C 30.769531 -9.09375 32.550781 -9.578125 34.25 -10.546875 C 35.945312 -11.515625 37.296875 -13 38.296875 -15 L 38.296875 -4.203125 C 34.960938 -0.671875 30.863281 1.09375 26 1.09375 Z M 51.5 -48.796875 L 51.5 -2.09375 C 51.5 -1.300781 51.347656 -0.753906 51.046875 -0.453125 C 50.742188 -0.148438 50.195312 0 49.40625 0 L 45.796875 0 C 43.929688 0 42.632812 -0.398438 41.90625 -1.203125 L 40.09375 -4 L 40.09375 -48.796875 C 40.09375 -49.597656 40.242188 -50.148438 40.546875 -50.453125 C 40.847656 -50.753906 41.398438 -50.90625 42.203125 -50.90625 L 49.40625 -50.90625 C 50.195312 -50.90625 50.742188 -50.753906 51.046875 -50.453125 C 51.347656 -50.148438 51.5 -49.597656 51.5 -48.796875 Z M 51.5 -48.796875 "/></g></g></g><g fill="#373643" fill-opacity="1"><g transform="translate(371.61009, 694.164591)"><g><path d="M 53.796875 -35.59375 L 53.703125 -35.59375 C 53.566406 -37.132812 53.234375 -38.703125 52.703125 -40.296875 C 52.171875 -41.898438 51.535156 -43.132812 50.796875 -44 C 52.734375 -46.726562 54.953125 -48.742188 57.453125 -50.046875 C 59.953125 -51.347656 62.664062 -52 65.59375 -52 C 69.257812 -52 72.539062 -51.265625 75.4375 -49.796875 C 78.34375 -48.328125 80.628906 -45.925781 82.296875 -42.59375 C 83.960938 -39.257812 84.796875 -34.726562 84.796875 -29 L 84.796875 -2.09375 C 84.796875 -1.300781 84.644531 -0.753906 84.34375 -0.453125 C 84.050781 -0.148438 83.503906 0 82.703125 0 L 75.5 0 C 74.695312 0 74.144531 -0.148438 73.84375 -0.453125 C 73.550781 -0.753906 73.40625 -1.300781 73.40625 -2.09375 L 73.40625 -26.40625 C 73.40625 -31.738281 72.488281 -35.632812 70.65625 -38.09375 C 68.820312 -40.5625 66.238281 -41.796875 62.90625 -41.796875 C 61.300781 -41.796875 59.628906 -41.363281 57.890625 -40.5 C 56.160156 -39.632812 54.796875 -38 53.796875 -35.59375 Z M 52.296875 -27.59375 L 52.296875 -2.09375 C 52.296875 -1.300781 52.144531 -0.753906 51.84375 -0.453125 C 51.550781 -0.148438 51.003906 0 50.203125 0 L 43 0 C 42.195312 0 41.644531 -0.148438 41.34375 -0.453125 C 41.050781 -0.753906 40.90625 -1.300781 40.90625 -2.09375 L 40.90625 -26.40625 C 40.90625 -31.332031 40.035156 -35.128906 38.296875 -37.796875 C 36.566406 -40.460938 33.9375 -41.796875 30.40625 -41.796875 C 28.738281 -41.796875 27.101562 -41.378906 25.5 -40.546875 C 23.894531 -39.710938 22.5625 -38.265625 21.5 -36.203125 L 21.5 -46.90625 C 22.96875 -48.5 24.703125 -49.742188 26.703125 -50.640625 C 28.703125 -51.546875 30.832031 -52 33.09375 -52 C 37.894531 -52 41.695312 -50.960938 44.5 -48.890625 C 47.300781 -46.828125 49.300781 -43.960938 50.5 -40.296875 C 51.695312 -36.628906 52.296875 -32.394531 52.296875 -27.59375 Z M 17.59375 0 L 10.40625 0 C 9 0 8.296875 -0.695312 8.296875 -2.09375 L 8.296875 -48.796875 C 8.296875 -50.203125 9 -50.90625 10.40625 -50.90625 L 14.09375 -50.90625 C 16.03125 -50.90625 17.300781 -50.503906 17.90625 -49.703125 L 19.703125 -46.90625 L 19.703125 -2.09375 C 19.703125 -1.300781 19.566406 -0.753906 19.296875 -0.453125 C 19.035156 -0.148438 18.46875 0 17.59375 0 Z M 17.59375 0 "/></g></g></g><g fill="#373643" fill-opacity="1"><g transform="translate(459.206572, 694.164591)"><g><path d="M 59.40625 -25.40625 C 59.40625 -20.664062 58.421875 -16.28125 56.453125 -12.25 C 54.484375 -8.21875 51.765625 -4.984375 48.296875 -2.546875 C 44.828125 -0.117188 40.828125 1.09375 36.296875 1.09375 C 33.367188 1.09375 30.570312 0.5625 27.90625 -0.5 C 25.238281 -1.5625 23.035156 -2.960938 21.296875 -4.703125 L 21.296875 -17.203125 C 22.828125 -14.128906 24.773438 -11.976562 27.140625 -10.75 C 29.515625 -9.519531 31.734375 -8.90625 33.796875 -8.90625 C 36.597656 -8.90625 39.066406 -9.632812 41.203125 -11.09375 C 43.335938 -12.5625 45.003906 -14.546875 46.203125 -17.046875 C 47.398438 -19.546875 48 -22.332031 48 -25.40625 C 48 -28.40625 47.398438 -31.15625 46.203125 -33.65625 C 45.003906 -36.15625 43.335938 -38.132812 41.203125 -39.59375 C 39.066406 -41.0625 36.597656 -41.796875 33.796875 -41.796875 C 31.265625 -41.796875 28.898438 -41.09375 26.703125 -39.6875 C 24.503906 -38.289062 22.703125 -36.226562 21.296875 -33.5 L 21.296875 -45.296875 C 22.960938 -47.234375 25.128906 -48.832031 27.796875 -50.09375 C 30.460938 -51.363281 33.296875 -52 36.296875 -52 C 40.828125 -52 44.828125 -50.796875 48.296875 -48.390625 C 51.765625 -45.992188 54.484375 -42.78125 56.453125 -38.75 C 58.421875 -34.71875 59.40625 -30.269531 59.40625 -25.40625 Z M 8.203125 -2.09375 L 8.203125 -71.703125 C 8.203125 -72.503906 8.347656 -73.050781 8.640625 -73.34375 C 8.941406 -73.644531 9.492188 -73.796875 10.296875 -73.796875 L 17.5 -73.796875 C 18.300781 -73.796875 18.847656 -73.644531 19.140625 -73.34375 C 19.441406 -73.050781 19.59375 -72.503906 19.59375 -71.703125 L 19.59375 -4.40625 L 17.59375 -1.703125 C 17 -1.097656 16.367188 -0.660156 15.703125 -0.390625 C 15.035156 -0.128906 14.398438 0 13.796875 0 L 10.296875 0 C 9.492188 0 8.941406 -0.148438 8.640625 -0.453125 C 8.347656 -0.753906 8.203125 -1.300781 8.203125 -2.09375 Z M 8.203125 -2.09375 "/></g></g></g><g fill="#373643" fill-opacity="1"><g transform="translate(519.104119, 694.164591)"><g><path d="M 8.90625 -2.09375 L 8.90625 -71.703125 C 8.90625 -72.503906 9.050781 -73.050781 9.34375 -73.34375 C 9.644531 -73.644531 10.195312 -73.796875 11 -73.796875 L 18.203125 -73.796875 C 19.066406 -73.796875 19.628906 -73.644531 19.890625 -73.34375 C 20.160156 -73.050781 20.296875 -72.503906 20.296875 -71.703125 L 20.296875 -2.09375 C 20.296875 -1.300781 20.144531 -0.753906 19.84375 -0.453125 C 19.550781 -0.148438 19.003906 0 18.203125 0 L 11 0 C 10.195312 0 9.644531 -0.148438 9.34375 -0.453125 C 9.050781 -0.753906 8.90625 -1.300781 8.90625 -2.09375 Z M 8.90625 -2.09375 "/></g></g></g><g fill="#373643" fill-opacity="1"><g transform="translate(544.502996, 694.164591)"><g><path d="M 48.203125 -12.296875 L 51.09375 -8.703125 C 51.632812 -8.097656 51.9375 -7.613281 52 -7.25 C 52.0625 -6.882812 51.863281 -6.4375 51.40625 -5.90625 C 49.070312 -3.632812 46.035156 -1.898438 42.296875 -0.703125 C 38.566406 0.492188 34.832031 1.09375 31.09375 1.09375 C 26.09375 1.09375 21.5625 -0.101562 17.5 -2.5 C 13.4375 -4.894531 10.21875 -8.09375 7.84375 -12.09375 C 5.476562 -16.09375 4.296875 -20.53125 4.296875 -25.40625 C 4.296875 -30.070312 5.410156 -34.382812 7.640625 -38.34375 C 9.878906 -42.3125 12.898438 -45.546875 16.703125 -48.046875 C 20.503906 -50.546875 24.769531 -51.863281 29.5 -52 L 29.5 -42.59375 C 25.5 -42.332031 22.25 -40.632812 19.75 -37.5 C 17.25 -34.363281 16 -30.429688 16 -25.703125 L 16 -25 C 16 -21.9375 16.679688 -19.171875 18.046875 -16.703125 C 19.410156 -14.234375 21.257812 -12.28125 23.59375 -10.84375 C 25.925781 -9.414062 28.53125 -8.703125 31.40625 -8.703125 C 33.195312 -8.703125 35.273438 -8.96875 37.640625 -9.5 C 40.015625 -10.03125 42.5 -11.03125 45.09375 -12.5 C 45.5 -12.695312 45.832031 -12.863281 46.09375 -13 C 46.363281 -13.132812 46.632812 -13.203125 46.90625 -13.203125 C 47.300781 -13.203125 47.734375 -12.898438 48.203125 -12.296875 Z M 55.5 -23.90625 C 55.5 -23.101562 55.378906 -22.535156 55.140625 -22.203125 C 54.910156 -21.867188 54.363281 -21.703125 53.5 -21.703125 L 18.09375 -21.703125 C 17.5625 -24.234375 17.5625 -26.734375 18.09375 -29.203125 L 43.90625 -29.203125 C 43.695312 -31.203125 43.09375 -33.203125 42.09375 -35.203125 C 41.09375 -37.203125 39.707031 -38.898438 37.9375 -40.296875 C 36.175781 -41.703125 33.929688 -42.46875 31.203125 -42.59375 L 31.203125 -52 C 36.597656 -51.863281 41.09375 -50.476562 44.6875 -47.84375 C 48.289062 -45.21875 50.992188 -41.785156 52.796875 -37.546875 C 54.597656 -33.316406 55.5 -28.769531 55.5 -23.90625 Z M 55.5 -23.90625 "/></g></g></g><g fill="#373643" fill-opacity="1"><g transform="translate(599.900727, 694.164591)"><g><path d="M 4.796875 -35.796875 C 4.796875 -40.460938 6.578125 -44.328125 10.140625 -47.390625 C 13.710938 -50.460938 18.632812 -52 24.90625 -52 L 26 -52 L 26 -43.09375 C 24.46875 -43.09375 22.898438 -42.941406 21.296875 -42.640625 C 19.703125 -42.347656 18.351562 -41.71875 17.25 -40.75 C 16.144531 -39.78125 15.59375 -38.332031 15.59375 -36.40625 C 15.59375 -34.46875 16.625 -33.113281 18.6875 -32.34375 C 20.757812 -31.582031 23.726562 -30.9375 27.59375 -30.40625 C 31.0625 -30 34.28125 -29.28125 37.25 -28.25 C 40.21875 -27.21875 42.597656 -25.664062 44.390625 -23.59375 C 46.191406 -21.53125 47.09375 -18.734375 47.09375 -15.203125 C 47.09375 -10.460938 45.191406 -6.539062 41.390625 -3.4375 C 37.597656 -0.34375 32.4375 1.164062 25.90625 1.09375 L 25.90625 -7.796875 C 29.4375 -7.867188 32.050781 -8.550781 33.75 -9.84375 C 35.445312 -11.144531 36.296875 -12.726562 36.296875 -14.59375 C 36.296875 -16.257812 35.242188 -17.539062 33.140625 -18.4375 C 31.046875 -19.34375 28.097656 -20.03125 24.296875 -20.5 C 20.828125 -20.96875 17.609375 -21.71875 14.640625 -22.75 C 11.679688 -23.78125 9.300781 -25.328125 7.5 -27.390625 C 5.695312 -29.460938 4.796875 -32.265625 4.796875 -35.796875 Z M 5.296875 -5.296875 C 4.628906 -5.828125 4.296875 -6.289062 4.296875 -6.6875 C 4.296875 -7.09375 4.460938 -7.628906 4.796875 -8.296875 L 7 -12.09375 C 7.269531 -12.5625 7.503906 -12.925781 7.703125 -13.1875 C 7.898438 -13.457031 8.164062 -13.59375 8.5 -13.59375 C 8.769531 -13.59375 9.203125 -13.394531 9.796875 -13 C 11.460938 -11.800781 13.5625 -10.664062 16.09375 -9.59375 C 18.632812 -8.53125 21.335938 -7.929688 24.203125 -7.796875 L 24.203125 1 C 21.460938 0.863281 18.410156 0.296875 15.046875 -0.703125 C 11.679688 -1.703125 8.429688 -3.234375 5.296875 -5.296875 Z M 39.90625 -38.59375 C 38.03125 -39.726562 36.109375 -40.726562 34.140625 -41.59375 C 32.179688 -42.46875 30.066406 -42.9375 27.796875 -43 L 27.796875 -51.796875 C 30.203125 -51.660156 32.785156 -51.160156 35.546875 -50.296875 C 38.316406 -49.429688 41.234375 -48.132812 44.296875 -46.40625 C 45.097656 -45.9375 45.484375 -45.484375 45.453125 -45.046875 C 45.421875 -44.617188 45.238281 -44.035156 44.90625 -43.296875 L 42.703125 -39.59375 C 42.171875 -38.59375 41.671875 -38.09375 41.203125 -38.09375 C 40.867188 -38.09375 40.4375 -38.257812 39.90625 -38.59375 Z M 39.90625 -38.59375 "/></g></g></g><g fill="#373643" fill-opacity="1"><g transform="translate(647.198765, 694.164591)"><g><path d="M 6.203125 -6.5 C 6.203125 -8.632812 6.929688 -10.453125 8.390625 -11.953125 C 9.859375 -13.453125 11.660156 -14.203125 13.796875 -14.203125 C 15.929688 -14.203125 17.765625 -13.453125 19.296875 -11.953125 C 20.828125 -10.453125 21.59375 -8.632812 21.59375 -6.5 C 21.59375 -4.363281 20.828125 -2.5625 19.296875 -1.09375 C 17.765625 0.363281 15.929688 1.09375 13.796875 1.09375 C 11.660156 1.09375 9.859375 0.363281 8.390625 -1.09375 C 6.929688 -2.5625 6.203125 -4.363281 6.203125 -6.5 Z M 6.203125 -6.5 "/></g></g></g><g fill="#373643" fill-opacity="1"><g transform="translate(671.197709, 694.164591)"><g><path d="M 39.5 -2.09375 L 39.5 -29.09375 C 39.5 -33.832031 38.710938 -37.203125 37.140625 -39.203125 C 35.578125 -41.203125 32.5 -42.203125 27.90625 -42.203125 C 25.03125 -42.203125 22.328125 -42.035156 19.796875 -41.703125 C 17.265625 -41.367188 15.066406 -41.035156 13.203125 -40.703125 C 12.335938 -40.703125 11.785156 -40.832031 11.546875 -41.09375 C 11.316406 -41.363281 11.066406 -41.898438 10.796875 -42.703125 L 9.59375 -47.5 C 9.394531 -48.300781 9.378906 -48.882812 9.546875 -49.25 C 9.710938 -49.613281 10.164062 -49.894531 10.90625 -50.09375 C 11.300781 -50.226562 12.429688 -50.445312 14.296875 -50.75 C 16.160156 -51.050781 18.359375 -51.332031 20.890625 -51.59375 C 23.429688 -51.863281 25.9375 -52 28.40625 -52 C 34.800781 -52 39.597656 -51.082031 42.796875 -49.25 C 45.992188 -47.414062 48.144531 -44.695312 49.25 -41.09375 C 50.351562 -37.5 50.90625 -33.066406 50.90625 -27.796875 L 50.90625 -2.09375 C 50.90625 -1.300781 50.769531 -0.753906 50.5 -0.453125 C 50.226562 -0.148438 49.660156 0 48.796875 0 L 42.703125 0 C 42.035156 0 41.46875 -0.179688 41 -0.546875 C 40.53125 -0.910156 40.03125 -1.425781 39.5 -2.09375 Z M 37.796875 -29.703125 L 37.796875 -21.59375 C 36.128906 -22.195312 34.460938 -22.679688 32.796875 -23.046875 C 31.128906 -23.410156 29.363281 -23.59375 27.5 -23.59375 C 23.695312 -23.59375 20.945312 -22.84375 19.25 -21.34375 C 17.550781 -19.84375 16.703125 -17.925781 16.703125 -15.59375 C 16.703125 -13.664062 17.46875 -11.847656 19 -10.140625 C 20.53125 -8.441406 23.03125 -7.59375 26.5 -7.59375 C 28.5 -7.59375 30.515625 -8.09375 32.546875 -9.09375 C 34.578125 -10.09375 36.328125 -11.328125 37.796875 -12.796875 L 37.796875 -3.59375 C 33.867188 -0.46875 28.90625 1.09375 22.90625 1.09375 C 19.90625 1.09375 17.070312 0.476562 14.40625 -0.75 C 11.738281 -1.976562 9.570312 -3.828125 7.90625 -6.296875 C 6.238281 -8.765625 5.40625 -11.863281 5.40625 -15.59375 C 5.40625 -19.257812 6.269531 -22.273438 8 -24.640625 C 9.726562 -27.015625 12.0625 -28.785156 15 -29.953125 C 17.9375 -31.117188 21.203125 -31.703125 24.796875 -31.703125 C 26.535156 -31.703125 28.617188 -31.515625 31.046875 -31.140625 C 33.484375 -30.773438 35.734375 -30.296875 37.796875 -29.703125 Z M 37.796875 -29.703125 "/></g></g></g><g fill="#373643" fill-opacity="1"><g transform="translate(724.795491, 694.164591)"><g><path d="M 19.59375 0 L 12.40625 0 C 11.601562 0 11.050781 -0.148438 10.75 -0.453125 C 10.445312 -0.753906 10.296875 -1.300781 10.296875 -2.09375 L 10.296875 -48.796875 C 10.296875 -49.597656 10.445312 -50.148438 10.75 -50.453125 C 11.050781 -50.753906 11.601562 -50.90625 12.40625 -50.90625 L 19.59375 -50.90625 C 20.394531 -50.90625 20.945312 -50.753906 21.25 -50.453125 C 21.550781 -50.148438 21.703125 -49.597656 21.703125 -48.796875 L 21.703125 -2.09375 C 21.703125 -1.300781 21.550781 -0.753906 21.25 -0.453125 C 20.945312 -0.148438 20.394531 0 19.59375 0 Z M 15.90625 -73.90625 C 17.832031 -73.90625 19.476562 -73.203125 20.84375 -71.796875 C 22.21875 -70.398438 22.90625 -68.734375 22.90625 -66.796875 C 22.90625 -64.867188 22.21875 -63.238281 20.84375 -61.90625 C 19.476562 -60.570312 17.832031 -59.90625 15.90625 -59.90625 C 13.96875 -59.90625 12.316406 -60.570312 10.953125 -61.90625 C 9.585938 -63.238281 8.90625 -64.867188 8.90625 -66.796875 C 8.90625 -68.734375 9.585938 -70.398438 10.953125 -71.796875 C 12.316406 -73.203125 13.96875 -73.90625 15.90625 -73.90625 Z M 15.90625 -73.90625 "/></g></g></g></svg>