<svg xmlns="http://www.w3.org/2000/svg" xmlns:xlink="http://www.w3.org/1999/xlink" width="500" zoomAndPan="magnify" viewBox="0 0 375.12 383.03998" height="500" preserveAspectRatio="xMidYMid meet" version="1.2"><defs><clipPath id="e9ccacbd2d"><path d="M 258 168 L 275 168 L 275 186 L 258 186 Z M 258 168 "/></clipPath><clipPath id="2f5c6cd633"><path d="M 255.667969 170.949219 L 267.046875 161.230469 L 282.109375 178.867188 L 270.734375 188.585938 Z M 255.667969 170.949219 "/></clipPath><clipPath id="732f669c92"><path d="M 255.667969 170.949219 L 267.046875 161.230469 L 282.109375 178.867188 L 270.734375 188.585938 Z M 255.667969 170.949219 "/></clipPath></defs><g id="a24768ae60"><g clip-rule="nonzero" clip-path="url(#e9ccacbd2d)"><g clip-rule="nonzero" clip-path="url(#2f5c6cd633)"><g clip-rule="nonzero" clip-path="url(#732f669c92)"><path style=" stroke:none;fill-rule:nonzero;fill:#8c52ff;fill-opacity:1;" d="M 274.6875 170.175781 L 261.132812 168.796875 C 258.511719 168.53125 257.960938 173.632812 261.0625 173.894531 L 269.5 174.605469 L 268.675781 183.097656 C 268.421875 185.683594 273.460938 186.246094 273.660156 183.613281 Z M 274.6875 170.175781 "/></g></g></g><g style="fill:#8c52ff;fill-opacity:1;"><g transform="translate(96.219517, 201.664145)"><path style="stroke:none" d="M 2.71875 -0.671875 L 2.71875 -22.890625 C 2.71875 -23.335938 2.941406 -23.5625 3.390625 -23.5625 L 5.6875 -23.5625 C 5.9375 -23.5625 6.109375 -23.507812 6.203125 -23.40625 C 6.304688 -23.3125 6.359375 -23.140625 6.359375 -22.890625 L 6.359375 -0.671875 C 6.359375 -0.410156 6.3125 -0.234375 6.21875 -0.140625 C 6.132812 -0.046875 5.957031 0 5.6875 0 L 3.390625 0 C 2.941406 0 2.71875 -0.222656 2.71875 -0.671875 Z M 17.046875 -9.21875 L 17.046875 -0.671875 C 17.046875 -0.410156 17.003906 -0.234375 16.921875 -0.140625 C 16.835938 -0.046875 16.65625 0 16.375 0 L 14.078125 0 C 13.628906 0 13.40625 -0.222656 13.40625 -0.671875 L 13.40625 -8.421875 C 13.40625 -10.128906 13.109375 -11.375 12.515625 -12.15625 C 11.921875 -12.945312 11.054688 -13.34375 9.921875 -13.34375 C 9.265625 -13.34375 8.675781 -13.164062 8.15625 -12.8125 C 7.632812 -12.46875 7.222656 -12.003906 6.921875 -11.421875 L 6.921875 -14.875 C 7.410156 -15.40625 7.992188 -15.820312 8.671875 -16.125 C 9.359375 -16.4375 10.085938 -16.59375 10.859375 -16.59375 C 12.023438 -16.59375 13.078125 -16.359375 14.015625 -15.890625 C 14.953125 -15.421875 15.691406 -14.648438 16.234375 -13.578125 C 16.773438 -12.503906 17.046875 -11.050781 17.046875 -9.21875 Z M 17.046875 -9.21875 "/></g></g><g style="fill:#8c52ff;fill-opacity:1;"><g transform="translate(114.162921, 201.664145)"><path style="stroke:none" d="M 6.421875 -15.265625 L 6.421875 -0.671875 C 6.398438 -0.410156 6.34375 -0.234375 6.25 -0.140625 C 6.164062 -0.046875 6 0 5.75 0 L 3.453125 0 C 3.191406 0 3.015625 -0.046875 2.921875 -0.140625 C 2.828125 -0.234375 2.78125 -0.410156 2.78125 -0.671875 L 2.78125 -15.578125 C 2.78125 -15.828125 2.828125 -16 2.921875 -16.09375 C 3.015625 -16.195312 3.191406 -16.25 3.453125 -16.25 L 4.59375 -16.25 C 5.082031 -16.25 5.421875 -16.179688 5.609375 -16.046875 C 5.804688 -15.921875 6.078125 -15.660156 6.421875 -15.265625 Z M 6.953125 -10.46875 L 6.953125 -14.453125 C 8.085938 -15.878906 9.832031 -16.59375 12.1875 -16.59375 C 12.507812 -16.59375 12.707031 -16.546875 12.78125 -16.453125 C 12.851562 -16.359375 12.867188 -16.191406 12.828125 -15.953125 L 12.484375 -13.625 C 12.441406 -13.375 12.363281 -13.207031 12.25 -13.125 C 12.144531 -13.039062 11.96875 -13 11.71875 -13 C 10.738281 -13 9.820312 -12.804688 8.96875 -12.421875 C 8.113281 -12.035156 7.441406 -11.382812 6.953125 -10.46875 Z M 6.953125 -10.46875 "/></g></g><g style="fill:#373643;fill-opacity:1;"><g transform="translate(126.328882, 201.664145)"><path style="stroke:none" d="M 8.296875 0.34375 C 7.128906 0.34375 6.078125 0.113281 5.140625 -0.34375 C 4.203125 -0.8125 3.460938 -1.582031 2.921875 -2.65625 C 2.378906 -3.738281 2.109375 -5.191406 2.109375 -7.015625 L 2.109375 -15.578125 C 2.109375 -15.828125 2.15625 -16 2.25 -16.09375 C 2.34375 -16.195312 2.519531 -16.25 2.78125 -16.25 L 5.078125 -16.25 C 5.328125 -16.25 5.5 -16.195312 5.59375 -16.09375 C 5.695312 -16 5.75 -15.828125 5.75 -15.578125 L 5.75 -7.78125 C 5.75 -6.101562 6.050781 -4.867188 6.65625 -4.078125 C 7.257812 -3.296875 8.113281 -2.90625 9.21875 -2.90625 C 9.820312 -2.90625 10.394531 -3.054688 10.9375 -3.359375 C 11.476562 -3.671875 11.90625 -4.144531 12.21875 -4.78125 L 12.21875 -1.34375 C 11.15625 -0.21875 9.847656 0.34375 8.296875 0.34375 Z M 16.4375 -15.578125 L 16.4375 -0.671875 C 16.4375 -0.410156 16.390625 -0.234375 16.296875 -0.140625 C 16.203125 -0.046875 16.023438 0 15.765625 0 L 14.625 0 C 14.019531 0 13.601562 -0.128906 13.375 -0.390625 L 12.796875 -1.28125 L 12.796875 -15.578125 C 12.796875 -15.828125 12.84375 -16 12.9375 -16.09375 C 13.039062 -16.195312 13.21875 -16.25 13.46875 -16.25 L 15.765625 -16.25 C 16.023438 -16.25 16.203125 -16.195312 16.296875 -16.09375 C 16.390625 -16 16.4375 -15.828125 16.4375 -15.578125 Z M 16.4375 -15.578125 "/></g></g><g style="fill:#373643;fill-opacity:1;"><g transform="translate(144.336143, 201.664145)"><path style="stroke:none" d="M 17.171875 -11.359375 L 17.140625 -11.359375 C 17.097656 -11.847656 16.988281 -12.347656 16.8125 -12.859375 C 16.644531 -13.367188 16.445312 -13.765625 16.21875 -14.046875 C 16.832031 -14.921875 17.535156 -15.5625 18.328125 -15.96875 C 19.128906 -16.382812 20 -16.59375 20.9375 -16.59375 C 22.113281 -16.59375 23.160156 -16.359375 24.078125 -15.890625 C 25.003906 -15.421875 25.734375 -14.65625 26.265625 -13.59375 C 26.796875 -12.53125 27.0625 -11.082031 27.0625 -9.25 L 27.0625 -0.671875 C 27.0625 -0.410156 27.015625 -0.234375 26.921875 -0.140625 C 26.828125 -0.046875 26.65625 0 26.40625 0 L 24.09375 0 C 23.84375 0 23.671875 -0.046875 23.578125 -0.140625 C 23.484375 -0.234375 23.4375 -0.410156 23.4375 -0.671875 L 23.4375 -8.421875 C 23.4375 -10.128906 23.140625 -11.375 22.546875 -12.15625 C 21.960938 -12.945312 21.140625 -13.34375 20.078125 -13.34375 C 19.566406 -13.34375 19.035156 -13.203125 18.484375 -12.921875 C 17.929688 -12.648438 17.492188 -12.128906 17.171875 -11.359375 Z M 16.6875 -8.8125 L 16.6875 -0.671875 C 16.6875 -0.410156 16.640625 -0.234375 16.546875 -0.140625 C 16.453125 -0.046875 16.28125 0 16.03125 0 L 13.71875 0 C 13.46875 0 13.296875 -0.046875 13.203125 -0.140625 C 13.109375 -0.234375 13.0625 -0.410156 13.0625 -0.671875 L 13.0625 -8.421875 C 13.0625 -10.003906 12.78125 -11.21875 12.21875 -12.0625 C 11.664062 -12.914062 10.828125 -13.34375 9.703125 -13.34375 C 9.171875 -13.34375 8.648438 -13.207031 8.140625 -12.9375 C 7.628906 -12.675781 7.203125 -12.21875 6.859375 -11.5625 L 6.859375 -14.96875 C 7.328125 -15.476562 7.878906 -15.875 8.515625 -16.15625 C 9.160156 -16.445312 9.84375 -16.59375 10.5625 -16.59375 C 12.09375 -16.59375 13.304688 -16.265625 14.203125 -15.609375 C 15.097656 -14.953125 15.734375 -14.035156 16.109375 -12.859375 C 16.492188 -11.691406 16.6875 -10.34375 16.6875 -8.8125 Z M 5.625 0 L 3.3125 0 C 2.875 0 2.65625 -0.222656 2.65625 -0.671875 L 2.65625 -15.578125 C 2.65625 -16.023438 2.875 -16.25 3.3125 -16.25 L 4.5 -16.25 C 5.113281 -16.25 5.519531 -16.117188 5.71875 -15.859375 L 6.28125 -14.96875 L 6.28125 -0.671875 C 6.28125 -0.410156 6.238281 -0.234375 6.15625 -0.140625 C 6.070312 -0.046875 5.894531 0 5.625 0 Z M 5.625 0 "/></g></g><g style="fill:#373643;fill-opacity:1;"><g transform="translate(172.304889, 201.664145)"><path style="stroke:none" d="M 18.96875 -8.109375 C 18.96875 -6.597656 18.648438 -5.195312 18.015625 -3.90625 C 17.390625 -2.625 16.523438 -1.59375 15.421875 -0.8125 C 14.316406 -0.0390625 13.039062 0.34375 11.59375 0.34375 C 10.65625 0.34375 9.757812 0.175781 8.90625 -0.15625 C 8.050781 -0.5 7.347656 -0.945312 6.796875 -1.5 L 6.796875 -5.484375 C 7.285156 -4.503906 7.90625 -3.816406 8.65625 -3.421875 C 9.414062 -3.035156 10.128906 -2.84375 10.796875 -2.84375 C 11.679688 -2.84375 12.460938 -3.078125 13.140625 -3.546875 C 13.828125 -4.015625 14.363281 -4.644531 14.75 -5.4375 C 15.132812 -6.238281 15.328125 -7.128906 15.328125 -8.109375 C 15.328125 -9.066406 15.132812 -9.941406 14.75 -10.734375 C 14.363281 -11.535156 13.828125 -12.171875 13.140625 -12.640625 C 12.460938 -13.109375 11.679688 -13.34375 10.796875 -13.34375 C 9.984375 -13.34375 9.222656 -13.117188 8.515625 -12.671875 C 7.816406 -12.222656 7.242188 -11.5625 6.796875 -10.6875 L 6.796875 -14.453125 C 7.328125 -15.078125 8.019531 -15.585938 8.875 -15.984375 C 9.726562 -16.390625 10.632812 -16.59375 11.59375 -16.59375 C 13.039062 -16.59375 14.316406 -16.207031 15.421875 -15.4375 C 16.523438 -14.675781 17.390625 -13.648438 18.015625 -12.359375 C 18.648438 -11.078125 18.96875 -9.660156 18.96875 -8.109375 Z M 2.625 -0.671875 L 2.625 -22.890625 C 2.625 -23.140625 2.671875 -23.3125 2.765625 -23.40625 C 2.859375 -23.507812 3.03125 -23.5625 3.28125 -23.5625 L 5.59375 -23.5625 C 5.84375 -23.5625 6.015625 -23.507812 6.109375 -23.40625 C 6.203125 -23.3125 6.25 -23.140625 6.25 -22.890625 L 6.25 -1.40625 L 5.625 -0.546875 C 5.425781 -0.347656 5.21875 -0.207031 5 -0.125 C 4.789062 -0.0390625 4.59375 0 4.40625 0 L 3.28125 0 C 3.03125 0 2.859375 -0.046875 2.765625 -0.140625 C 2.671875 -0.234375 2.625 -0.410156 2.625 -0.671875 Z M 2.625 -0.671875 "/></g></g><g style="fill:#373643;fill-opacity:1;"><g transform="translate(191.429622, 201.664145)"><path style="stroke:none" d="M 2.84375 -0.671875 L 2.84375 -22.890625 C 2.84375 -23.140625 2.890625 -23.3125 2.984375 -23.40625 C 3.078125 -23.507812 3.253906 -23.5625 3.515625 -23.5625 L 5.8125 -23.5625 C 6.082031 -23.5625 6.257812 -23.507812 6.34375 -23.40625 C 6.4375 -23.3125 6.484375 -23.140625 6.484375 -22.890625 L 6.484375 -0.671875 C 6.484375 -0.410156 6.429688 -0.234375 6.328125 -0.140625 C 6.234375 -0.046875 6.0625 0 5.8125 0 L 3.515625 0 C 3.253906 0 3.078125 -0.046875 2.984375 -0.140625 C 2.890625 -0.234375 2.84375 -0.410156 2.84375 -0.671875 Z M 2.84375 -0.671875 "/></g></g><g style="fill:#373643;fill-opacity:1;"><g transform="translate(199.539256, 201.664145)"><path style="stroke:none" d="M 15.390625 -3.921875 L 16.3125 -2.78125 C 16.476562 -2.582031 16.570312 -2.425781 16.59375 -2.3125 C 16.613281 -2.195312 16.550781 -2.054688 16.40625 -1.890625 C 15.664062 -1.160156 14.695312 -0.601562 13.5 -0.21875 C 12.3125 0.15625 11.117188 0.34375 9.921875 0.34375 C 8.328125 0.34375 6.878906 -0.0351562 5.578125 -0.796875 C 4.285156 -1.566406 3.257812 -2.585938 2.5 -3.859375 C 1.75 -5.140625 1.375 -6.554688 1.375 -8.109375 C 1.375 -9.597656 1.726562 -10.972656 2.4375 -12.234375 C 3.15625 -13.503906 4.117188 -14.535156 5.328125 -15.328125 C 6.546875 -16.128906 7.910156 -16.550781 9.421875 -16.59375 L 9.421875 -13.59375 C 8.140625 -13.507812 7.097656 -12.96875 6.296875 -11.96875 C 5.503906 -10.96875 5.109375 -9.710938 5.109375 -8.203125 L 5.109375 -7.984375 C 5.109375 -7.003906 5.328125 -6.117188 5.765625 -5.328125 C 6.203125 -4.546875 6.789062 -3.925781 7.53125 -3.46875 C 8.28125 -3.007812 9.113281 -2.78125 10.03125 -2.78125 C 10.601562 -2.78125 11.265625 -2.863281 12.015625 -3.03125 C 12.773438 -3.195312 13.566406 -3.515625 14.390625 -3.984375 C 14.523438 -4.054688 14.632812 -4.113281 14.71875 -4.15625 C 14.800781 -4.195312 14.882812 -4.21875 14.96875 -4.21875 C 15.09375 -4.21875 15.234375 -4.117188 15.390625 -3.921875 Z M 17.71875 -7.625 C 17.71875 -7.375 17.679688 -7.191406 17.609375 -7.078125 C 17.535156 -6.972656 17.359375 -6.921875 17.078125 -6.921875 L 5.78125 -6.921875 C 5.601562 -7.734375 5.601562 -8.535156 5.78125 -9.328125 L 14.015625 -9.328125 C 13.953125 -9.960938 13.757812 -10.597656 13.4375 -11.234375 C 13.113281 -11.867188 12.671875 -12.410156 12.109375 -12.859375 C 11.546875 -13.304688 10.828125 -13.550781 9.953125 -13.59375 L 9.953125 -16.59375 C 11.679688 -16.550781 13.117188 -16.109375 14.265625 -15.265625 C 15.421875 -14.429688 16.285156 -13.335938 16.859375 -11.984375 C 17.429688 -10.628906 17.71875 -9.175781 17.71875 -7.625 Z M 17.71875 -7.625 "/></g></g><g style="fill:#373643;fill-opacity:1;"><g transform="translate(217.227239, 201.664145)"><path style="stroke:none" d="M 1.53125 -11.421875 C 1.53125 -12.910156 2.097656 -14.144531 3.234375 -15.125 C 4.378906 -16.101562 5.953125 -16.59375 7.953125 -16.59375 L 8.296875 -16.59375 L 8.296875 -13.765625 C 7.804688 -13.765625 7.304688 -13.710938 6.796875 -13.609375 C 6.285156 -13.515625 5.851562 -13.3125 5.5 -13 C 5.15625 -12.695312 4.984375 -12.238281 4.984375 -11.625 C 4.984375 -11 5.3125 -10.5625 5.96875 -10.3125 C 6.625 -10.070312 7.570312 -9.867188 8.8125 -9.703125 C 9.914062 -9.578125 10.941406 -9.347656 11.890625 -9.015625 C 12.835938 -8.679688 13.597656 -8.1875 14.171875 -7.53125 C 14.742188 -6.875 15.03125 -5.984375 15.03125 -4.859375 C 15.03125 -3.335938 14.421875 -2.082031 13.203125 -1.09375 C 11.992188 -0.101562 10.347656 0.375 8.265625 0.34375 L 8.265625 -2.484375 C 9.390625 -2.503906 10.222656 -2.722656 10.765625 -3.140625 C 11.316406 -3.554688 11.59375 -4.0625 11.59375 -4.65625 C 11.59375 -5.1875 11.253906 -5.597656 10.578125 -5.890625 C 9.910156 -6.179688 8.96875 -6.398438 7.75 -6.546875 C 6.644531 -6.691406 5.617188 -6.925781 4.671875 -7.25 C 3.722656 -7.582031 2.960938 -8.078125 2.390625 -8.734375 C 1.816406 -9.398438 1.53125 -10.296875 1.53125 -11.421875 Z M 1.6875 -1.6875 C 1.476562 -1.863281 1.375 -2.015625 1.375 -2.140625 C 1.375 -2.265625 1.425781 -2.4375 1.53125 -2.65625 L 2.234375 -3.859375 C 2.316406 -4.015625 2.390625 -4.132812 2.453125 -4.21875 C 2.515625 -4.300781 2.601562 -4.34375 2.71875 -4.34375 C 2.800781 -4.34375 2.9375 -4.28125 3.125 -4.15625 C 3.65625 -3.769531 4.328125 -3.40625 5.140625 -3.0625 C 5.953125 -2.71875 6.8125 -2.523438 7.71875 -2.484375 L 7.71875 0.3125 C 6.851562 0.269531 5.878906 0.09375 4.796875 -0.21875 C 3.722656 -0.539062 2.6875 -1.03125 1.6875 -1.6875 Z M 12.734375 -12.328125 C 12.140625 -12.679688 11.523438 -12.992188 10.890625 -13.265625 C 10.265625 -13.546875 9.59375 -13.695312 8.875 -13.71875 L 8.875 -16.53125 C 9.644531 -16.488281 10.46875 -16.328125 11.34375 -16.046875 C 12.226562 -15.773438 13.160156 -15.363281 14.140625 -14.8125 C 14.398438 -14.664062 14.523438 -14.519531 14.515625 -14.375 C 14.503906 -14.238281 14.441406 -14.054688 14.328125 -13.828125 L 13.625 -12.640625 C 13.457031 -12.316406 13.300781 -12.15625 13.15625 -12.15625 C 13.050781 -12.15625 12.910156 -12.210938 12.734375 -12.328125 Z M 12.734375 -12.328125 "/></g></g><g style="fill:#373643;fill-opacity:1;"><g transform="translate(232.329065, 201.664145)"><path style="stroke:none" d="M 1.984375 -2.078125 C 1.984375 -2.753906 2.21875 -3.332031 2.6875 -3.8125 C 3.15625 -4.289062 3.726562 -4.53125 4.40625 -4.53125 C 5.082031 -4.53125 5.664062 -4.289062 6.15625 -3.8125 C 6.644531 -3.332031 6.890625 -2.753906 6.890625 -2.078125 C 6.890625 -1.390625 6.644531 -0.8125 6.15625 -0.34375 C 5.664062 0.113281 5.082031 0.34375 4.40625 0.34375 C 3.726562 0.34375 3.15625 0.113281 2.6875 -0.34375 C 2.21875 -0.8125 1.984375 -1.390625 1.984375 -2.078125 Z M 1.984375 -2.078125 "/></g></g><g style="fill:#373643;fill-opacity:1;"><g transform="translate(239.991706, 201.664145)"><path style="stroke:none" d="M 12.609375 -0.671875 L 12.609375 -9.296875 C 12.609375 -10.804688 12.359375 -11.878906 11.859375 -12.515625 C 11.359375 -13.148438 10.375 -13.46875 8.90625 -13.46875 C 7.988281 -13.46875 7.125 -13.414062 6.3125 -13.3125 C 5.507812 -13.207031 4.8125 -13.101562 4.21875 -13 C 3.9375 -13 3.757812 -13.039062 3.6875 -13.125 C 3.613281 -13.207031 3.535156 -13.375 3.453125 -13.625 L 3.0625 -15.15625 C 3 -15.414062 2.992188 -15.601562 3.046875 -15.71875 C 3.097656 -15.832031 3.242188 -15.925781 3.484375 -16 C 3.609375 -16.039062 3.96875 -16.109375 4.5625 -16.203125 C 5.15625 -16.296875 5.859375 -16.382812 6.671875 -16.46875 C 7.484375 -16.550781 8.28125 -16.59375 9.0625 -16.59375 C 11.101562 -16.59375 12.632812 -16.300781 13.65625 -15.71875 C 14.675781 -15.132812 15.363281 -14.265625 15.71875 -13.109375 C 16.070312 -11.960938 16.25 -10.550781 16.25 -8.875 L 16.25 -0.671875 C 16.25 -0.410156 16.207031 -0.234375 16.125 -0.140625 C 16.039062 -0.046875 15.859375 0 15.578125 0 L 13.625 0 C 13.414062 0 13.234375 -0.0546875 13.078125 -0.171875 C 12.929688 -0.285156 12.773438 -0.453125 12.609375 -0.671875 Z M 12.0625 -9.484375 L 12.0625 -6.890625 C 11.53125 -7.085938 11 -7.242188 10.46875 -7.359375 C 9.9375 -7.472656 9.375 -7.53125 8.78125 -7.53125 C 7.5625 -7.53125 6.679688 -7.289062 6.140625 -6.8125 C 5.597656 -6.332031 5.328125 -5.722656 5.328125 -4.984375 C 5.328125 -4.359375 5.570312 -3.773438 6.0625 -3.234375 C 6.550781 -2.691406 7.347656 -2.421875 8.453125 -2.421875 C 9.097656 -2.421875 9.742188 -2.582031 10.390625 -2.90625 C 11.035156 -3.226562 11.59375 -3.625 12.0625 -4.09375 L 12.0625 -1.15625 C 10.8125 -0.15625 9.226562 0.34375 7.3125 0.34375 C 6.351562 0.34375 5.445312 0.148438 4.59375 -0.234375 C 3.738281 -0.628906 3.046875 -1.21875 2.515625 -2 C 1.984375 -2.789062 1.71875 -3.785156 1.71875 -4.984375 C 1.71875 -6.148438 1.992188 -7.109375 2.546875 -7.859375 C 3.109375 -8.617188 3.851562 -9.1875 4.78125 -9.5625 C 5.71875 -9.9375 6.765625 -10.125 7.921875 -10.125 C 8.472656 -10.125 9.132812 -10.0625 9.90625 -9.9375 C 10.6875 -9.820312 11.40625 -9.671875 12.0625 -9.484375 Z M 12.0625 -9.484375 "/></g></g><g style="fill:#373643;fill-opacity:1;"><g transform="translate(257.104989, 201.664145)"><path style="stroke:none" d="M 6.25 0 L 3.953125 0 C 3.703125 0 3.523438 -0.046875 3.421875 -0.140625 C 3.328125 -0.234375 3.28125 -0.410156 3.28125 -0.671875 L 3.28125 -15.578125 C 3.28125 -15.828125 3.328125 -16 3.421875 -16.09375 C 3.523438 -16.195312 3.703125 -16.25 3.953125 -16.25 L 6.25 -16.25 C 6.507812 -16.25 6.6875 -16.195312 6.78125 -16.09375 C 6.875 -16 6.921875 -15.828125 6.921875 -15.578125 L 6.921875 -0.671875 C 6.921875 -0.410156 6.875 -0.234375 6.78125 -0.140625 C 6.6875 -0.046875 6.507812 0 6.25 0 Z M 5.078125 -23.59375 C 5.691406 -23.59375 6.21875 -23.367188 6.65625 -22.921875 C 7.09375 -22.472656 7.3125 -21.941406 7.3125 -21.328125 C 7.3125 -20.703125 7.09375 -20.175781 6.65625 -19.75 C 6.21875 -19.332031 5.691406 -19.125 5.078125 -19.125 C 4.460938 -19.125 3.9375 -19.332031 3.5 -19.75 C 3.0625 -20.175781 2.84375 -20.703125 2.84375 -21.328125 C 2.84375 -21.941406 3.0625 -22.472656 3.5 -22.921875 C 3.9375 -23.367188 4.460938 -23.59375 5.078125 -23.59375 Z M 5.078125 -23.59375 "/></g></g></g></svg>